<?xml version='1.0' encoding='UTF-8' standalone='no'?>
<svg xmlns="http://www.w3.org/2000/svg" height="315pt" width="420pt" viewBox="0 0 420 315" xmlns:xlink="http://www.w3.org/1999/xlink">
 <title>gl2ps_renderer figure</title>
 <desc>
Creator: GL2PS 1.4.2, (C) 1999-2020 C. Geuzaine
For: Octave
CreationDate: Sun Jan  8 04:06:20 2023
</desc>
 <defs/>
 <polygon points="0,0 420,0 420,315 0,315" fill="#ffffff"/>
 <g>
  <polygon points="0,315 420,315 420,0 0,0" fill="#ffffff" shape-rendering="crispEdges"/>
  <clipPath id="cp00420315">
   <polygon points="0,315 420,315 420,0 0,0"/>
  </clipPath>
  <g clip-path="url(#cp00420315)">
   <polygon points="54.6001,280.35 380.1,280.35 380.1,23.625 54.6001,23.625" fill="#ffffff" shape-rendering="crispEdges"/>
   <polyline points="65.4502,280.35 65.4502,23.625" fill="none" stroke="#191919" stroke-width="0.5" stroke-linejoin="miter" stroke-dasharray="1,3,1,3,1,3,1,3" stroke-linecap="butt" stroke-opacity="0.25"/>
   <polyline points="76.2998,280.35 76.2998,23.625" fill="none" stroke="#191919" stroke-width="0.5" stroke-linejoin="miter" stroke-dasharray="1,3,1,3,1,3,1,3" stroke-linecap="butt" stroke-opacity="0.25"/>
   <polyline points="87.1499,280.35 87.1499,23.625" fill="none" stroke="#191919" stroke-width="0.5" stroke-linejoin="miter" stroke-dasharray="1,3,1,3,1,3,1,3" stroke-linecap="butt" stroke-opacity="0.25"/>
   <polyline points="98,280.35 98,23.625" fill="none" stroke="#191919" stroke-width="0.5" stroke-linejoin="miter" stroke-dasharray="1,3,1,3,1,3,1,3" stroke-linecap="butt" stroke-opacity="0.25"/>
   <polyline points="119.7,280.35 119.7,23.625" fill="none" stroke="#191919" stroke-width="0.5" stroke-linejoin="miter" stroke-dasharray="1,3,1,3,1,3,1,3" stroke-linecap="butt" stroke-opacity="0.25"/>
   <polyline points="130.55,280.35 130.55,23.625" fill="none" stroke="#191919" stroke-width="0.5" stroke-linejoin="miter" stroke-dasharray="1,3,1,3,1,3,1,3" stroke-linecap="butt" stroke-opacity="0.25"/>
   <polyline points="141.4,280.35 141.4,23.625" fill="none" stroke="#191919" stroke-width="0.5" stroke-linejoin="miter" stroke-dasharray="1,3,1,3,1,3,1,3" stroke-linecap="butt" stroke-opacity="0.25"/>
   <polyline points="152.25,280.35 152.25,23.625" fill="none" stroke="#191919" stroke-width="0.5" stroke-linejoin="miter" stroke-dasharray="1,3,1,3,1,3,1,3" stroke-linecap="butt" stroke-opacity="0.25"/>
   <polyline points="173.95,280.35 173.95,23.625" fill="none" stroke="#191919" stroke-width="0.5" stroke-linejoin="miter" stroke-dasharray="1,3,1,3,1,3,1,3" stroke-linecap="butt" stroke-opacity="0.25"/>
   <polyline points="184.8,280.35 184.8,23.625" fill="none" stroke="#191919" stroke-width="0.5" stroke-linejoin="miter" stroke-dasharray="1,3,1,3,1,3,1,3" stroke-linecap="butt" stroke-opacity="0.25"/>
   <polyline points="195.65,280.35 195.65,23.625" fill="none" stroke="#191919" stroke-width="0.5" stroke-linejoin="miter" stroke-dasharray="1,3,1,3,1,3,1,3" stroke-linecap="butt" stroke-opacity="0.25"/>
   <polyline points="206.5,280.35 206.5,23.625" fill="none" stroke="#191919" stroke-width="0.5" stroke-linejoin="miter" stroke-dasharray="1,3,1,3,1,3,1,3" stroke-linecap="butt" stroke-opacity="0.25"/>
   <polyline points="228.2,280.35 228.2,23.625" fill="none" stroke="#191919" stroke-width="0.5" stroke-linejoin="miter" stroke-dasharray="1,3,1,3,1,3,1,3" stroke-linecap="butt" stroke-opacity="0.25"/>
   <polyline points="239.05,280.35 239.05,23.625" fill="none" stroke="#191919" stroke-width="0.5" stroke-linejoin="miter" stroke-dasharray="1,3,1,3,1,3,1,3" stroke-linecap="butt" stroke-opacity="0.25"/>
   <polyline points="249.9,280.35 249.9,23.625" fill="none" stroke="#191919" stroke-width="0.5" stroke-linejoin="miter" stroke-dasharray="1,3,1,3,1,3,1,3" stroke-linecap="butt" stroke-opacity="0.25"/>
   <polyline points="260.75,280.35 260.75,23.625" fill="none" stroke="#191919" stroke-width="0.5" stroke-linejoin="miter" stroke-dasharray="1,3,1,3,1,3,1,3" stroke-linecap="butt" stroke-opacity="0.25"/>
   <polyline points="282.45,280.35 282.45,23.625" fill="none" stroke="#191919" stroke-width="0.5" stroke-linejoin="miter" stroke-dasharray="1,3,1,3,1,3,1,3" stroke-linecap="butt" stroke-opacity="0.25"/>
   <polyline points="293.3,280.35 293.3,23.625" fill="none" stroke="#191919" stroke-width="0.5" stroke-linejoin="miter" stroke-dasharray="1,3,1,3,1,3,1,3" stroke-linecap="butt" stroke-opacity="0.25"/>
   <polyline points="304.15,280.35 304.15,23.625" fill="none" stroke="#191919" stroke-width="0.5" stroke-linejoin="miter" stroke-dasharray="1,3,1,3,1,3,1,3" stroke-linecap="butt" stroke-opacity="0.25"/>
   <polyline points="315,280.35 315,23.625" fill="none" stroke="#191919" stroke-width="0.5" stroke-linejoin="miter" stroke-dasharray="1,3,1,3,1,3,1,3" stroke-linecap="butt" stroke-opacity="0.25"/>
   <polyline points="336.7,280.35 336.7,23.625" fill="none" stroke="#191919" stroke-width="0.5" stroke-linejoin="miter" stroke-dasharray="1,3,1,3,1,3,1,3" stroke-linecap="butt" stroke-opacity="0.25"/>
   <polyline points="347.55,280.35 347.55,23.625" fill="none" stroke="#191919" stroke-width="0.5" stroke-linejoin="miter" stroke-dasharray="1,3,1,3,1,3,1,3" stroke-linecap="butt" stroke-opacity="0.25"/>
   <polyline points="358.4,280.35 358.4,23.625" fill="none" stroke="#191919" stroke-width="0.5" stroke-linejoin="miter" stroke-dasharray="1,3,1,3,1,3,1,3" stroke-linecap="butt" stroke-opacity="0.25"/>
   <polyline points="369.25,280.35 369.25,23.625" fill="none" stroke="#191919" stroke-width="0.5" stroke-linejoin="miter" stroke-dasharray="1,3,1,3,1,3,1,3" stroke-linecap="butt" stroke-opacity="0.25"/>
   <polyline points="54.6001,280.35 54.6001,23.625" fill="none" stroke="#262626" stroke-width="0.5" stroke-linejoin="miter" stroke-dasharray="16,0" stroke-linecap="butt" stroke-opacity="0.15"/>
   <polyline points="108.85,280.35 108.85,23.625" fill="none" stroke="#262626" stroke-width="0.5" stroke-linejoin="miter" stroke-dasharray="16,0" stroke-linecap="butt" stroke-opacity="0.15"/>
   <polyline points="163.1,280.35 163.1,23.625" fill="none" stroke="#262626" stroke-width="0.5" stroke-linejoin="miter" stroke-dasharray="16,0" stroke-linecap="butt" stroke-opacity="0.15"/>
   <polyline points="217.35,280.35 217.35,23.625" fill="none" stroke="#262626" stroke-width="0.5" stroke-linejoin="miter" stroke-dasharray="16,0" stroke-linecap="butt" stroke-opacity="0.15"/>
   <polyline points="271.6,280.35 271.6,23.625" fill="none" stroke="#262626" stroke-width="0.5" stroke-linejoin="miter" stroke-dasharray="16,0" stroke-linecap="butt" stroke-opacity="0.15"/>
   <polyline points="325.85,280.35 325.85,23.625" fill="none" stroke="#262626" stroke-width="0.5" stroke-linejoin="miter" stroke-dasharray="16,0" stroke-linecap="butt" stroke-opacity="0.15"/>
   <polyline points="380.1,280.35 380.1,23.625" fill="none" stroke="#262626" stroke-width="0.5" stroke-linejoin="miter" stroke-dasharray="16,0" stroke-linecap="butt" stroke-opacity="0.15"/>
   <polyline points="54.6001,280.35 54.6001,277.099" fill="none" stroke="#262626" stroke-width="0.5" stroke-linejoin="miter" stroke-linecap="butt"/>
   <polyline points="54.6001,23.625 54.6001,26.8765" fill="none" stroke="#262626" stroke-width="0.5" stroke-linejoin="miter" stroke-linecap="butt"/>
   <polyline points="108.85,280.35 108.85,277.099" fill="none" stroke="#262626" stroke-width="0.5" stroke-linejoin="miter" stroke-linecap="butt"/>
   <polyline points="108.85,23.625 108.85,26.8765" fill="none" stroke="#262626" stroke-width="0.5" stroke-linejoin="miter" stroke-linecap="butt"/>
   <polyline points="163.1,280.35 163.1,277.099" fill="none" stroke="#262626" stroke-width="0.5" stroke-linejoin="miter" stroke-linecap="butt"/>
   <polyline points="163.1,23.625 163.1,26.8765" fill="none" stroke="#262626" stroke-width="0.5" stroke-linejoin="miter" stroke-linecap="butt"/>
   <polyline points="217.35,280.35 217.35,277.099" fill="none" stroke="#262626" stroke-width="0.5" stroke-linejoin="miter" stroke-linecap="butt"/>
   <polyline points="217.35,23.625 217.35,26.8765" fill="none" stroke="#262626" stroke-width="0.5" stroke-linejoin="miter" stroke-linecap="butt"/>
   <polyline points="271.6,280.35 271.6,277.099" fill="none" stroke="#262626" stroke-width="0.5" stroke-linejoin="miter" stroke-linecap="butt"/>
   <polyline points="271.6,23.625 271.6,26.8765" fill="none" stroke="#262626" stroke-width="0.5" stroke-linejoin="miter" stroke-linecap="butt"/>
   <polyline points="325.85,280.35 325.85,277.099" fill="none" stroke="#262626" stroke-width="0.5" stroke-linejoin="miter" stroke-linecap="butt"/>
   <polyline points="325.85,23.625 325.85,26.8765" fill="none" stroke="#262626" stroke-width="0.5" stroke-linejoin="miter" stroke-linecap="butt"/>
   <polyline points="380.1,280.35 380.1,277.099" fill="none" stroke="#262626" stroke-width="0.5" stroke-linejoin="miter" stroke-linecap="butt"/>
   <polyline points="380.1,23.625 380.1,26.8765" fill="none" stroke="#262626" stroke-width="0.5" stroke-linejoin="miter" stroke-linecap="butt"/>
   <text font-size="10" font-weight="normal" xml:space="preserve" font-style="normal" transform="translate(51.6,295.842) rotate(-0,3,-8)" font-family="FreeSans">
    <tspan y="-0" fill="rgb(38,38,38)" x="0 ">0</tspan>
   </text>
   <text font-size="10" font-weight="normal" xml:space="preserve" font-style="normal" transform="translate(95.35,295.842) rotate(-0,13.5,-8)" font-family="FreeSans">
    <tspan y="-0" fill="rgb(38,38,38)" x="0 6 9 15 21 ">0.001</tspan>
   </text>
   <text font-size="10" font-weight="normal" xml:space="preserve" font-style="normal" transform="translate(149.6,295.842) rotate(-0,13.5,-8)" font-family="FreeSans">
    <tspan y="-0" fill="rgb(38,38,38)" x="0 6 9 15 21 ">0.002</tspan>
   </text>
   <text font-size="10" font-weight="normal" xml:space="preserve" font-style="normal" transform="translate(203.85,295.842) rotate(-0,13.5,-8)" font-family="FreeSans">
    <tspan y="-0" fill="rgb(38,38,38)" x="0 6 9 15 21 ">0.003</tspan>
   </text>
   <text font-size="10" font-weight="normal" xml:space="preserve" font-style="normal" transform="translate(258.1,295.842) rotate(-0,13.5,-8)" font-family="FreeSans">
    <tspan y="-0" fill="rgb(38,38,38)" x="0 6 9 15 21 ">0.004</tspan>
   </text>
   <text font-size="10" font-weight="normal" xml:space="preserve" font-style="normal" transform="translate(312.35,295.842) rotate(-0,13.5,-8)" font-family="FreeSans">
    <tspan y="-0" fill="rgb(38,38,38)" x="0 6 9 15 21 ">0.005</tspan>
   </text>
   <text font-size="10" font-weight="normal" xml:space="preserve" font-style="normal" transform="translate(366.6,295.842) rotate(-0,13.5,-8)" font-family="FreeSans">
    <tspan y="-0" fill="rgb(38,38,38)" x="0 6 9 15 21 ">0.006</tspan>
   </text>
   <polyline points="54.6001,267.514 380.1,267.514" fill="none" stroke="#191919" stroke-width="0.5" stroke-linejoin="miter" stroke-dasharray="1,3,1,3,1,3,1,3" stroke-linecap="butt" stroke-opacity="0.25"/>
   <polyline points="54.6001,254.678 380.1,254.678" fill="none" stroke="#191919" stroke-width="0.5" stroke-linejoin="miter" stroke-dasharray="1,3,1,3,1,3,1,3" stroke-linecap="butt" stroke-opacity="0.25"/>
   <polyline points="54.6001,241.841 380.1,241.841" fill="none" stroke="#191919" stroke-width="0.5" stroke-linejoin="miter" stroke-dasharray="1,3,1,3,1,3,1,3" stroke-linecap="butt" stroke-opacity="0.25"/>
   <polyline points="54.6001,229.005 380.1,229.005" fill="none" stroke="#191919" stroke-width="0.5" stroke-linejoin="miter" stroke-dasharray="1,3,1,3,1,3,1,3" stroke-linecap="butt" stroke-opacity="0.25"/>
   <polyline points="54.6001,203.333 380.1,203.333" fill="none" stroke="#191919" stroke-width="0.5" stroke-linejoin="miter" stroke-dasharray="1,3,1,3,1,3,1,3" stroke-linecap="butt" stroke-opacity="0.25"/>
   <polyline points="54.6001,190.496 380.1,190.496" fill="none" stroke="#191919" stroke-width="0.5" stroke-linejoin="miter" stroke-dasharray="1,3,1,3,1,3,1,3" stroke-linecap="butt" stroke-opacity="0.25"/>
   <polyline points="54.6001,177.66 380.1,177.66" fill="none" stroke="#191919" stroke-width="0.5" stroke-linejoin="miter" stroke-dasharray="1,3,1,3,1,3,1,3" stroke-linecap="butt" stroke-opacity="0.25"/>
   <polyline points="54.6001,164.824 380.1,164.824" fill="none" stroke="#191919" stroke-width="0.5" stroke-linejoin="miter" stroke-dasharray="1,3,1,3,1,3,1,3" stroke-linecap="butt" stroke-opacity="0.25"/>
   <polyline points="54.6001,139.151 380.1,139.151" fill="none" stroke="#191919" stroke-width="0.5" stroke-linejoin="miter" stroke-dasharray="1,3,1,3,1,3,1,3" stroke-linecap="butt" stroke-opacity="0.25"/>
   <polyline points="54.6001,126.315 380.1,126.315" fill="none" stroke="#191919" stroke-width="0.5" stroke-linejoin="miter" stroke-dasharray="1,3,1,3,1,3,1,3" stroke-linecap="butt" stroke-opacity="0.25"/>
   <polyline points="54.6001,113.479 380.1,113.479" fill="none" stroke="#191919" stroke-width="0.5" stroke-linejoin="miter" stroke-dasharray="1,3,1,3,1,3,1,3" stroke-linecap="butt" stroke-opacity="0.25"/>
   <polyline points="54.6001,100.643 380.1,100.643" fill="none" stroke="#191919" stroke-width="0.5" stroke-linejoin="miter" stroke-dasharray="1,3,1,3,1,3,1,3" stroke-linecap="butt" stroke-opacity="0.25"/>
   <polyline points="54.6001,74.9702 380.1,74.9702" fill="none" stroke="#191919" stroke-width="0.5" stroke-linejoin="miter" stroke-dasharray="1,3,1,3,1,3,1,3" stroke-linecap="butt" stroke-opacity="0.25"/>
   <polyline points="54.6001,62.1338 380.1,62.1338" fill="none" stroke="#191919" stroke-width="0.5" stroke-linejoin="miter" stroke-dasharray="1,3,1,3,1,3,1,3" stroke-linecap="butt" stroke-opacity="0.25"/>
   <polyline points="54.6001,49.2974 380.1,49.2974" fill="none" stroke="#191919" stroke-width="0.5" stroke-linejoin="miter" stroke-dasharray="1,3,1,3,1,3,1,3" stroke-linecap="butt" stroke-opacity="0.25"/>
   <polyline points="54.6001,36.4614 380.1,36.4614" fill="none" stroke="#191919" stroke-width="0.5" stroke-linejoin="miter" stroke-dasharray="1,3,1,3,1,3,1,3" stroke-linecap="butt" stroke-opacity="0.25"/>
   <polyline points="54.6001,280.35 380.1,280.35" fill="none" stroke="#262626" stroke-width="0.5" stroke-linejoin="miter" stroke-dasharray="16,0" stroke-linecap="butt" stroke-opacity="0.15"/>
   <polyline points="54.6001,216.169 380.1,216.169" fill="none" stroke="#262626" stroke-width="0.5" stroke-linejoin="miter" stroke-dasharray="16,0" stroke-linecap="butt" stroke-opacity="0.15"/>
   <polyline points="54.6001,151.987 380.1,151.987" fill="none" stroke="#262626" stroke-width="0.5" stroke-linejoin="miter" stroke-dasharray="16,0" stroke-linecap="butt" stroke-opacity="0.15"/>
   <polyline points="54.6001,87.8062 380.1,87.8062" fill="none" stroke="#262626" stroke-width="0.5" stroke-linejoin="miter" stroke-dasharray="16,0" stroke-linecap="butt" stroke-opacity="0.15"/>
   <polyline points="54.6001,23.625 380.1,23.625" fill="none" stroke="#262626" stroke-width="0.5" stroke-linejoin="miter" stroke-dasharray="16,0" stroke-linecap="butt" stroke-opacity="0.15"/>
   <polyline points="54.6001,280.35 57.8501,280.35" fill="none" stroke="#262626" stroke-width="0.5" stroke-linejoin="miter" stroke-linecap="butt"/>
   <polyline points="380.1,280.35 376.85,280.35" fill="none" stroke="#262626" stroke-width="0.5" stroke-linejoin="miter" stroke-linecap="butt"/>
   <polyline points="54.6001,216.169 57.8501,216.169" fill="none" stroke="#262626" stroke-width="0.5" stroke-linejoin="miter" stroke-linecap="butt"/>
   <polyline points="380.1,216.169 376.85,216.169" fill="none" stroke="#262626" stroke-width="0.5" stroke-linejoin="miter" stroke-linecap="butt"/>
   <polyline points="54.6001,151.987 57.8501,151.987" fill="none" stroke="#262626" stroke-width="0.5" stroke-linejoin="miter" stroke-linecap="butt"/>
   <polyline points="380.1,151.987 376.85,151.987" fill="none" stroke="#262626" stroke-width="0.5" stroke-linejoin="miter" stroke-linecap="butt"/>
   <polyline points="54.6001,87.8062 57.8501,87.8062" fill="none" stroke="#262626" stroke-width="0.5" stroke-linejoin="miter" stroke-linecap="butt"/>
   <polyline points="380.1,87.8062 376.85,87.8062" fill="none" stroke="#262626" stroke-width="0.5" stroke-linejoin="miter" stroke-linecap="butt"/>
   <polyline points="54.6001,23.625 57.8501,23.625" fill="none" stroke="#262626" stroke-width="0.5" stroke-linejoin="miter" stroke-linecap="butt"/>
   <polyline points="380.1,23.625 376.85,23.625" fill="none" stroke="#262626" stroke-width="0.5" stroke-linejoin="miter" stroke-linecap="butt"/>
   <text font-size="10" font-weight="normal" xml:space="preserve" font-style="normal" transform="translate(43.6077,284.35) rotate(-0,6,-4)" font-family="FreeSans">
    <tspan y="-0" fill="rgb(38,38,38)" x="0 ">0</tspan>
   </text>
   <text font-size="10" font-weight="normal" xml:space="preserve" font-style="normal" transform="translate(37.6077,220.169) rotate(-0,12,-4)" font-family="FreeSans">
    <tspan y="-0" fill="rgb(38,38,38)" x="0 6 ">50</tspan>
   </text>
   <text font-size="10" font-weight="normal" xml:space="preserve" font-style="normal" transform="translate(31.6077,155.988) rotate(-0,18,-4)" font-family="FreeSans">
    <tspan y="-0" fill="rgb(38,38,38)" x="0 6 12 ">100</tspan>
   </text>
   <text font-size="10" font-weight="normal" xml:space="preserve" font-style="normal" transform="translate(31.6077,91.8063) rotate(-0,18,-4)" font-family="FreeSans">
    <tspan y="-0" fill="rgb(38,38,38)" x="0 6 12 ">150</tspan>
   </text>
   <text font-size="10" font-weight="normal" xml:space="preserve" font-style="normal" transform="translate(31.6077,27.625) rotate(-0,18,-4)" font-family="FreeSans">
    <tspan y="-0" fill="rgb(38,38,38)" x="0 6 12 ">200</tspan>
   </text>
   <polyline points="54.6001,280.35 380.1,280.35" fill="none" stroke="#262626" stroke-width="0.5" stroke-linejoin="miter" stroke-dasharray="16,0" stroke-linecap="square"/>
   <polyline points="54.6001,23.625 380.1,23.625" fill="none" stroke="#262626" stroke-width="0.5" stroke-linejoin="miter" stroke-dasharray="16,0" stroke-linecap="square"/>
   <polyline points="54.6001,280.35 54.6001,23.625" fill="none" stroke="#262626" stroke-width="0.5" stroke-linejoin="miter" stroke-dasharray="16,0" stroke-linecap="square"/>
   <polyline points="380.1,280.35 380.1,23.625" fill="none" stroke="#262626" stroke-width="0.5" stroke-linejoin="miter" stroke-dasharray="16,0" stroke-linecap="square"/>
   <text font-size="11" font-weight="normal" xml:space="preserve" font-style="normal" transform="translate(174.35,312.842) rotate(-0,43,-12)" font-family="FreeSans">
    <tspan y="-3" fill="rgb(38,38,38)" x="0 7 10 14 20 22 28 ">Strain </tspan>
    <tspan y="-3" fill="rgb(38,38,38)" x="31 ">ε</tspan>
    <tspan y="-3" fill="rgb(38,38,38)" x="36 39 43 52 61 64 73 82 "> (mm/mm)</tspan>
   </text>
   <text font-size="11" font-weight="normal" xml:space="preserve" font-style="normal" transform="translate(-9.89233,151.988) rotate(-90,36.5,0)" font-family="FreeSans">
    <tspan y="-3" fill="rgb(38,38,38)" x="0 7 10 14 20 25 30 ">Stress </tspan>
    <tspan y="-3" fill="rgb(38,38,38)" x="33 ">σ</tspan>
    <tspan y="-3" fill="rgb(38,38,38)" x="40 43 47 56 63 69 "> (MPa)</tspan>
   </text>
   <text font-size="11" font-weight="bold" xml:space="preserve" font-style="normal" transform="translate(161.35,13.625) rotate(-0,56,0)" font-family="FreeSans">
    <tspan y="-3" fill="rgb(0,0,0)" x="0 8 11 17 23 29 35 38 45 48 55 61 67 71 74 82 88 95 98 105 ">Al5005 Linear Region</tspan>
   </text>
   <polyline points="54.6001,280.338 59.4824,272.596 65.4502,264.029 70.875,255.999 75.7573,248.456 80.6401,241.112 85.5225,233.893 90.4048,226.974 95.2876,220.236 100.17,213.561 105.053,207.117 109.935,200.832 114.817,194.69 119.7,188.654 124.583,182.718 128.922,176.83 133.805,171.078 138.688,165.421 143.57,159.917 148.453,154.542 153.335,149.3 158.217,144.302 163.643,139.482 169.067,134.914 174.493,130.63 179.917,126.586 186.428,122.901 192.395,119.485 198.362,116.729 204.873,113.808 211.925,111.163 219.52,108.724 227.115,106.531 235.252,104.475 242.848,102.857 250.442,101.015 259.123,99.5684 267.803,98.1758 276.482,96.8208 285.163,95.6216 294.385,94.4727 303.065,93.5928 311.745,92.4023 320.968,91.5063" fill="none" stroke="#0071bc" stroke-width="0.5" stroke-linejoin="round" stroke-linecap="butt"/>
   <polyline points="163.1,280.35 167.982,274.485 173.95,267.317 179.375,260.8 184.257,254.935 189.14,249.07 194.022,243.206 198.905,237.34 203.788,231.476 208.67,225.61 213.553,219.746 218.435,213.881 223.317,208.016 228.2,202.151 233.083,196.286 237.422,191.073 242.305,185.208 247.188,179.343 252.07,173.478 256.953,167.613 261.835,161.748 266.717,155.883 272.143,149.366 277.567,142.85 282.993,136.333 288.417,129.816 294.928,121.997 300.895,114.828 306.862,107.66 313.373,99.8403 320.425,91.3687 328.02,82.2451 335.615,73.1221" fill="none" stroke="#d85218" stroke-width="0.5" stroke-linejoin="round" stroke-linecap="butt"/>
   <polyline points="317.252,91.5757 323.252,91.5757" fill="none" stroke="#000000" stroke-width="0.5" stroke-linejoin="miter" stroke-linecap="square"/>
   <polyline points="320.252,88.5757 320.252,94.5757" fill="none" stroke="#000000" stroke-width="0.5" stroke-linejoin="miter" stroke-linecap="square"/>
   <polyline points="318.131,89.4546 322.374,93.6973" fill="none" stroke="#000000" stroke-width="0.5" stroke-linejoin="miter" stroke-linecap="square"/>
   <polyline points="318.131,93.6973 322.374,89.4546" fill="none" stroke="#000000" stroke-width="0.5" stroke-linejoin="miter" stroke-linecap="square"/>
   <text font-size="10" font-weight="normal" xml:space="preserve" font-style="normal" transform="translate(320.252,95.5758) rotate(-0,-0,-4)" font-family="FreeSans">
    <tspan y="-0" fill="rgb(0,0,0)" x="0 6 12 18 21 ">147.1</tspan>
   </text>
  </g>
 </g>
</svg>
