<?xml version='1.0' encoding='UTF-8' standalone='no'?>
<svg height="314pt" xmlns="http://www.w3.org/2000/svg" xmlns:xlink="http://www.w3.org/1999/xlink" width="418pt" viewBox="0 0 418 314">
 <title>gl2ps_renderer figure</title>
 <desc>
Creator: GL2PS 1.4.2, (C) 1999-2020 C. Geuzaine
For: Octave
CreationDate: Sun Jan  8 04:06:19 2023
</desc>
 <defs/>
 <polygon fill="#ffffff" points="0,0 418,0 418,314 0,314"/>
 <g>
  <polygon shape-rendering="crispEdges" fill="#ffffff" points="0,314 418,314 418,0 0,0"/>
  <clipPath id="cp00418314">
   <polygon points="0,314 418,314 418,0 0,0"/>
  </clipPath>
  <g clip-path="url(#cp00418314)">
   <polygon shape-rendering="crispEdges" fill="#ffffff" points="54.3398,279.46 378.29,279.46 378.29,23.5498 54.3398,23.5498"/>
   <polyline stroke-opacity="0.25" fill="none" stroke="#191919" points="70.5376,279.46 70.5376,23.5498" stroke-width="0.5" stroke-linejoin="miter" stroke-dasharray="1,3,1,3,1,3,1,3" stroke-linecap="butt"/>
   <polyline stroke-opacity="0.25" fill="none" stroke="#191919" points="86.7349,279.46 86.7349,23.5498" stroke-width="0.5" stroke-linejoin="miter" stroke-dasharray="1,3,1,3,1,3,1,3" stroke-linecap="butt"/>
   <polyline stroke-opacity="0.25" fill="none" stroke="#191919" points="102.933,279.46 102.933,23.5498" stroke-width="0.5" stroke-linejoin="miter" stroke-dasharray="1,3,1,3,1,3,1,3" stroke-linecap="butt"/>
   <polyline stroke-opacity="0.25" fill="none" stroke="#191919" points="119.13,279.46 119.13,23.5498" stroke-width="0.5" stroke-linejoin="miter" stroke-dasharray="1,3,1,3,1,3,1,3" stroke-linecap="butt"/>
   <polyline stroke-opacity="0.25" fill="none" stroke="#191919" points="151.525,279.46 151.525,23.5498" stroke-width="0.5" stroke-linejoin="miter" stroke-dasharray="1,3,1,3,1,3,1,3" stroke-linecap="butt"/>
   <polyline stroke-opacity="0.25" fill="none" stroke="#191919" points="167.723,279.46 167.723,23.5498" stroke-width="0.5" stroke-linejoin="miter" stroke-dasharray="1,3,1,3,1,3,1,3" stroke-linecap="butt"/>
   <polyline stroke-opacity="0.25" fill="none" stroke="#191919" points="183.92,279.46 183.92,23.5498" stroke-width="0.5" stroke-linejoin="miter" stroke-dasharray="1,3,1,3,1,3,1,3" stroke-linecap="butt"/>
   <polyline stroke-opacity="0.25" fill="none" stroke="#191919" points="200.118,279.46 200.118,23.5498" stroke-width="0.5" stroke-linejoin="miter" stroke-dasharray="1,3,1,3,1,3,1,3" stroke-linecap="butt"/>
   <polyline stroke-opacity="0.25" fill="none" stroke="#191919" points="232.513,279.46 232.513,23.5498" stroke-width="0.5" stroke-linejoin="miter" stroke-dasharray="1,3,1,3,1,3,1,3" stroke-linecap="butt"/>
   <polyline stroke-opacity="0.25" fill="none" stroke="#191919" points="248.71,279.46 248.71,23.5498" stroke-width="0.5" stroke-linejoin="miter" stroke-dasharray="1,3,1,3,1,3,1,3" stroke-linecap="butt"/>
   <polyline stroke-opacity="0.25" fill="none" stroke="#191919" points="264.908,279.46 264.908,23.5498" stroke-width="0.5" stroke-linejoin="miter" stroke-dasharray="1,3,1,3,1,3,1,3" stroke-linecap="butt"/>
   <polyline stroke-opacity="0.25" fill="none" stroke="#191919" points="281.105,279.46 281.105,23.5498" stroke-width="0.5" stroke-linejoin="miter" stroke-dasharray="1,3,1,3,1,3,1,3" stroke-linecap="butt"/>
   <polyline stroke-opacity="0.25" fill="none" stroke="#191919" points="313.5,279.46 313.5,23.5498" stroke-width="0.5" stroke-linejoin="miter" stroke-dasharray="1,3,1,3,1,3,1,3" stroke-linecap="butt"/>
   <polyline stroke-opacity="0.25" fill="none" stroke="#191919" points="329.697,279.46 329.697,23.5498" stroke-width="0.5" stroke-linejoin="miter" stroke-dasharray="1,3,1,3,1,3,1,3" stroke-linecap="butt"/>
   <polyline stroke-opacity="0.25" fill="none" stroke="#191919" points="345.895,279.46 345.895,23.5498" stroke-width="0.5" stroke-linejoin="miter" stroke-dasharray="1,3,1,3,1,3,1,3" stroke-linecap="butt"/>
   <polyline stroke-opacity="0.25" fill="none" stroke="#191919" points="362.092,279.46 362.092,23.5498" stroke-width="0.5" stroke-linejoin="miter" stroke-dasharray="1,3,1,3,1,3,1,3" stroke-linecap="butt"/>
   <polyline stroke-opacity="0.15" fill="none" stroke="#262626" points="54.3398,279.46 54.3398,23.5498" stroke-width="0.5" stroke-linejoin="miter" stroke-dasharray="16,0" stroke-linecap="butt"/>
   <polyline stroke-opacity="0.15" fill="none" stroke="#262626" points="135.328,279.46 135.328,23.5498" stroke-width="0.5" stroke-linejoin="miter" stroke-dasharray="16,0" stroke-linecap="butt"/>
   <polyline stroke-opacity="0.15" fill="none" stroke="#262626" points="216.315,279.46 216.315,23.5498" stroke-width="0.5" stroke-linejoin="miter" stroke-dasharray="16,0" stroke-linecap="butt"/>
   <polyline stroke-opacity="0.15" fill="none" stroke="#262626" points="297.303,279.46 297.303,23.5498" stroke-width="0.5" stroke-linejoin="miter" stroke-dasharray="16,0" stroke-linecap="butt"/>
   <polyline stroke-opacity="0.15" fill="none" stroke="#262626" points="378.29,279.46 378.29,23.5498" stroke-width="0.5" stroke-linejoin="miter" stroke-dasharray="16,0" stroke-linecap="butt"/>
   <polyline fill="none" stroke="#262626" points="54.3398,279.46 54.3398,276.222" stroke-width="0.5" stroke-linejoin="miter" stroke-linecap="butt"/>
   <polyline fill="none" stroke="#262626" points="54.3398,23.5498 54.3398,26.7886" stroke-width="0.5" stroke-linejoin="miter" stroke-linecap="butt"/>
   <polyline fill="none" stroke="#262626" points="135.328,279.46 135.328,276.222" stroke-width="0.5" stroke-linejoin="miter" stroke-linecap="butt"/>
   <polyline fill="none" stroke="#262626" points="135.328,23.5498 135.328,26.7886" stroke-width="0.5" stroke-linejoin="miter" stroke-linecap="butt"/>
   <polyline fill="none" stroke="#262626" points="216.315,279.46 216.315,276.222" stroke-width="0.5" stroke-linejoin="miter" stroke-linecap="butt"/>
   <polyline fill="none" stroke="#262626" points="216.315,23.5498 216.315,26.7886" stroke-width="0.5" stroke-linejoin="miter" stroke-linecap="butt"/>
   <polyline fill="none" stroke="#262626" points="297.303,279.46 297.303,276.222" stroke-width="0.5" stroke-linejoin="miter" stroke-linecap="butt"/>
   <polyline fill="none" stroke="#262626" points="297.303,23.5498 297.303,26.7886" stroke-width="0.5" stroke-linejoin="miter" stroke-linecap="butt"/>
   <polyline fill="none" stroke="#262626" points="378.29,279.46 378.29,276.222" stroke-width="0.5" stroke-linejoin="miter" stroke-linecap="butt"/>
   <polyline fill="none" stroke="#262626" points="378.29,23.5498 378.29,26.7886" stroke-width="0.5" stroke-linejoin="miter" stroke-linecap="butt"/>
   <text font-style="normal" font-family="FreeSans" xml:space="preserve" font-weight="normal" font-size="10" transform="translate(51.34,294.957) rotate(-0,3,-8)">
    <tspan x="0 " fill="rgb(38,38,38)" y="-0">0</tspan>
   </text>
   <text font-style="normal" font-family="FreeSans" xml:space="preserve" font-weight="normal" font-size="10" transform="translate(124.828,294.957) rotate(-0,10.5,-8)">
    <tspan x="0 6 9 15 " fill="rgb(38,38,38)" y="-0">0.05</tspan>
   </text>
   <text font-style="normal" font-family="FreeSans" xml:space="preserve" font-weight="normal" font-size="10" transform="translate(208.815,294.957) rotate(-0,7.5,-8)">
    <tspan x="0 6 9 " fill="rgb(38,38,38)" y="-0">0.1</tspan>
   </text>
   <text font-style="normal" font-family="FreeSans" xml:space="preserve" font-weight="normal" font-size="10" transform="translate(286.803,294.957) rotate(-0,10.5,-8)">
    <tspan x="0 6 9 15 " fill="rgb(38,38,38)" y="-0">0.15</tspan>
   </text>
   <text font-style="normal" font-family="FreeSans" xml:space="preserve" font-weight="normal" font-size="10" transform="translate(370.79,294.957) rotate(-0,7.5,-8)">
    <tspan x="0 6 9 " fill="rgb(38,38,38)" y="-0">0.2</tspan>
   </text>
   <polyline stroke-opacity="0.25" fill="none" stroke="#191919" points="54.3398,266.665 378.29,266.665" stroke-width="0.5" stroke-linejoin="miter" stroke-dasharray="1,3,1,3,1,3,1,3" stroke-linecap="butt"/>
   <polyline stroke-opacity="0.25" fill="none" stroke="#191919" points="54.3398,253.869 378.29,253.869" stroke-width="0.5" stroke-linejoin="miter" stroke-dasharray="1,3,1,3,1,3,1,3" stroke-linecap="butt"/>
   <polyline stroke-opacity="0.25" fill="none" stroke="#191919" points="54.3398,241.074 378.29,241.074" stroke-width="0.5" stroke-linejoin="miter" stroke-dasharray="1,3,1,3,1,3,1,3" stroke-linecap="butt"/>
   <polyline stroke-opacity="0.25" fill="none" stroke="#191919" points="54.3398,228.278 378.29,228.278" stroke-width="0.5" stroke-linejoin="miter" stroke-dasharray="1,3,1,3,1,3,1,3" stroke-linecap="butt"/>
   <polyline stroke-opacity="0.25" fill="none" stroke="#191919" points="54.3398,202.687 378.29,202.687" stroke-width="0.5" stroke-linejoin="miter" stroke-dasharray="1,3,1,3,1,3,1,3" stroke-linecap="butt"/>
   <polyline stroke-opacity="0.25" fill="none" stroke="#191919" points="54.3398,189.892 378.29,189.892" stroke-width="0.5" stroke-linejoin="miter" stroke-dasharray="1,3,1,3,1,3,1,3" stroke-linecap="butt"/>
   <polyline stroke-opacity="0.25" fill="none" stroke="#191919" points="54.3398,177.096 378.29,177.096" stroke-width="0.5" stroke-linejoin="miter" stroke-dasharray="1,3,1,3,1,3,1,3" stroke-linecap="butt"/>
   <polyline stroke-opacity="0.25" fill="none" stroke="#191919" points="54.3398,164.3 378.29,164.3" stroke-width="0.5" stroke-linejoin="miter" stroke-dasharray="1,3,1,3,1,3,1,3" stroke-linecap="butt"/>
   <polyline stroke-opacity="0.25" fill="none" stroke="#191919" points="54.3398,138.709 378.29,138.709" stroke-width="0.5" stroke-linejoin="miter" stroke-dasharray="1,3,1,3,1,3,1,3" stroke-linecap="butt"/>
   <polyline stroke-opacity="0.25" fill="none" stroke="#191919" points="54.3398,125.914 378.29,125.914" stroke-width="0.5" stroke-linejoin="miter" stroke-dasharray="1,3,1,3,1,3,1,3" stroke-linecap="butt"/>
   <polyline stroke-opacity="0.25" fill="none" stroke="#191919" points="54.3398,113.119 378.29,113.119" stroke-width="0.5" stroke-linejoin="miter" stroke-dasharray="1,3,1,3,1,3,1,3" stroke-linecap="butt"/>
   <polyline stroke-opacity="0.25" fill="none" stroke="#191919" points="54.3398,100.323 378.29,100.323" stroke-width="0.5" stroke-linejoin="miter" stroke-dasharray="1,3,1,3,1,3,1,3" stroke-linecap="butt"/>
   <polyline stroke-opacity="0.25" fill="none" stroke="#191919" points="54.3398,74.7319 378.29,74.7319" stroke-width="0.5" stroke-linejoin="miter" stroke-dasharray="1,3,1,3,1,3,1,3" stroke-linecap="butt"/>
   <polyline stroke-opacity="0.25" fill="none" stroke="#191919" points="54.3398,61.9365 378.29,61.9365" stroke-width="0.5" stroke-linejoin="miter" stroke-dasharray="1,3,1,3,1,3,1,3" stroke-linecap="butt"/>
   <polyline stroke-opacity="0.25" fill="none" stroke="#191919" points="54.3398,49.1411 378.29,49.1411" stroke-width="0.5" stroke-linejoin="miter" stroke-dasharray="1,3,1,3,1,3,1,3" stroke-linecap="butt"/>
   <polyline stroke-opacity="0.25" fill="none" stroke="#191919" points="54.3398,36.3457 378.29,36.3457" stroke-width="0.5" stroke-linejoin="miter" stroke-dasharray="1,3,1,3,1,3,1,3" stroke-linecap="butt"/>
   <polyline stroke-opacity="0.15" fill="none" stroke="#262626" points="54.3398,279.46 378.29,279.46" stroke-width="0.5" stroke-linejoin="miter" stroke-dasharray="16,0" stroke-linecap="butt"/>
   <polyline stroke-opacity="0.15" fill="none" stroke="#262626" points="54.3398,215.482 378.29,215.482" stroke-width="0.5" stroke-linejoin="miter" stroke-dasharray="16,0" stroke-linecap="butt"/>
   <polyline stroke-opacity="0.15" fill="none" stroke="#262626" points="54.3398,151.505 378.29,151.505" stroke-width="0.5" stroke-linejoin="miter" stroke-dasharray="16,0" stroke-linecap="butt"/>
   <polyline stroke-opacity="0.15" fill="none" stroke="#262626" points="54.3398,87.5273 378.29,87.5273" stroke-width="0.5" stroke-linejoin="miter" stroke-dasharray="16,0" stroke-linecap="butt"/>
   <polyline stroke-opacity="0.15" fill="none" stroke="#262626" points="54.3398,23.5498 378.29,23.5498" stroke-width="0.5" stroke-linejoin="miter" stroke-dasharray="16,0" stroke-linecap="butt"/>
   <polyline fill="none" stroke="#262626" points="54.3398,279.46 57.5791,279.46" stroke-width="0.5" stroke-linejoin="miter" stroke-linecap="butt"/>
   <polyline fill="none" stroke="#262626" points="378.29,279.46 375.051,279.46" stroke-width="0.5" stroke-linejoin="miter" stroke-linecap="butt"/>
   <polyline fill="none" stroke="#262626" points="54.3398,215.482 57.5791,215.482" stroke-width="0.5" stroke-linejoin="miter" stroke-linecap="butt"/>
   <polyline fill="none" stroke="#262626" points="378.29,215.482 375.051,215.482" stroke-width="0.5" stroke-linejoin="miter" stroke-linecap="butt"/>
   <polyline fill="none" stroke="#262626" points="54.3398,151.505 57.5791,151.505" stroke-width="0.5" stroke-linejoin="miter" stroke-linecap="butt"/>
   <polyline fill="none" stroke="#262626" points="378.29,151.505 375.051,151.505" stroke-width="0.5" stroke-linejoin="miter" stroke-linecap="butt"/>
   <polyline fill="none" stroke="#262626" points="54.3398,87.5273 57.5791,87.5273" stroke-width="0.5" stroke-linejoin="miter" stroke-linecap="butt"/>
   <polyline fill="none" stroke="#262626" points="378.29,87.5273 375.051,87.5273" stroke-width="0.5" stroke-linejoin="miter" stroke-linecap="butt"/>
   <polyline fill="none" stroke="#262626" points="54.3398,23.5498 57.5791,23.5498" stroke-width="0.5" stroke-linejoin="miter" stroke-linecap="butt"/>
   <polyline fill="none" stroke="#262626" points="378.29,23.5498 375.051,23.5498" stroke-width="0.5" stroke-linejoin="miter" stroke-linecap="butt"/>
   <text font-style="normal" font-family="FreeSans" xml:space="preserve" font-weight="normal" font-size="10" transform="translate(43.3408,283.46) rotate(-0,6,-4)">
    <tspan x="0 " fill="rgb(38,38,38)" y="-0">0</tspan>
   </text>
   <text font-style="normal" font-family="FreeSans" xml:space="preserve" font-weight="normal" font-size="10" transform="translate(37.3408,219.482) rotate(-0,12,-4)">
    <tspan x="0 6 " fill="rgb(38,38,38)" y="-0">50</tspan>
   </text>
   <text font-style="normal" font-family="FreeSans" xml:space="preserve" font-weight="normal" font-size="10" transform="translate(31.3408,155.505) rotate(-0,18,-4)">
    <tspan x="0 6 12 " fill="rgb(38,38,38)" y="-0">100</tspan>
   </text>
   <text font-style="normal" font-family="FreeSans" xml:space="preserve" font-weight="normal" font-size="10" transform="translate(31.3408,91.5275) rotate(-0,18,-4)">
    <tspan x="0 6 12 " fill="rgb(38,38,38)" y="-0">150</tspan>
   </text>
   <text font-style="normal" font-family="FreeSans" xml:space="preserve" font-weight="normal" font-size="10" transform="translate(31.3408,27.55) rotate(-0,18,-4)">
    <tspan x="0 6 12 " fill="rgb(38,38,38)" y="-0">200</tspan>
   </text>
   <polyline fill="none" stroke="#262626" points="54.3398,279.46 378.29,279.46" stroke-width="0.5" stroke-linejoin="miter" stroke-dasharray="16,0" stroke-linecap="square"/>
   <polyline fill="none" stroke="#262626" points="54.3398,23.5498 378.29,23.5498" stroke-width="0.5" stroke-linejoin="miter" stroke-dasharray="16,0" stroke-linecap="square"/>
   <polyline fill="none" stroke="#262626" points="54.3398,279.46 54.3398,23.5498" stroke-width="0.5" stroke-linejoin="miter" stroke-dasharray="16,0" stroke-linecap="square"/>
   <polyline fill="none" stroke="#262626" points="378.29,279.46 378.29,23.5498" stroke-width="0.5" stroke-linejoin="miter" stroke-dasharray="16,0" stroke-linecap="square"/>
   <text font-style="normal" font-family="FreeSans" xml:space="preserve" font-weight="bold" font-size="11" transform="translate(198.815,13.55) rotate(-0,17.5,0)">
    <tspan x="0 8 11 17 23 29 " fill="rgb(0,0,0)" y="-0">Al5005</tspan>
   </text>
   <text font-style="normal" font-family="FreeSans" xml:space="preserve" font-weight="normal" font-size="11" transform="translate(-10.1592,151.505) rotate(-90,36.5,0)">
    <tspan x="0 7 10 14 20 25 30 " fill="rgb(38,38,38)" y="-3">Stress </tspan>
    <tspan x="33 " fill="rgb(38,38,38)" y="-3">σ</tspan>
    <tspan x="40 43 47 56 63 69 " fill="rgb(38,38,38)" y="-3"> (MPa)</tspan>
   </text>
   <text font-style="normal" font-family="FreeSans" xml:space="preserve" font-weight="normal" font-size="11" transform="translate(173.315,311.957) rotate(-0,43,-12)">
    <tspan x="0 7 10 14 20 22 28 " fill="rgb(38,38,38)" y="-3">Strain </tspan>
    <tspan x="31 " fill="rgb(38,38,38)" y="-3">ε</tspan>
    <tspan x="36 39 43 52 61 64 73 82 " fill="rgb(38,38,38)" y="-3"> (mm/mm)</tspan>
   </text>
   <polyline fill="none" stroke="#0071bc" points="54.3398,279.448 54.4858,271.73 54.6641,263.191 54.8262,255.186 54.9717,247.667 55.1177,240.346 55.2632,233.151 55.4092,226.253 55.5547,219.537 55.7007,212.883 55.8462,206.459 55.9922,200.195 56.1377,194.073 56.2837,188.056 56.4297,182.138 56.5591,176.268 56.7051,170.535 56.8506,164.896 56.9966,159.409 57.1421,154.051 57.2881,148.826 57.4336,143.844 57.5957,139.039 57.7578,134.485 57.9194,130.215 58.0815,126.185 58.2759,122.511 58.4541,119.106 58.6323,116.358 58.8267,113.447 59.0371,110.81 59.2642,108.379 59.4907,106.192 59.7339,104.143 59.9604,102.53 60.1875,100.694 60.4463,99.2524 60.7056,97.8643 60.9648,96.5137 61.2241,95.3184 61.4995,94.1724 61.7583,93.2954 62.0176,92.1089 62.293,91.2158 62.5845,90.3628 62.876,89.562 63.1514,88.7686 63.3945,88.0659 63.605,87.4575 63.8154,86.562 64.0259,85.8032 64.2852,85.3154 64.5283,85.0361 64.7227,84.686 64.8682,84.417 65.3057,84.3101 66.0996,83.9561 66.8931,83.6108 67.6865,83.2988 68.4966,83.0054 69.2256,82.7354 69.5493,82.271 69.6143,82.1362 69.6465,82.0972 69.6631,82.3506 69.6792,81.8633 69.7275,80.5488 69.7114,81.5581 69.7275,80.7168 69.7603,79.6885 69.7764,79.3735 69.7925,78.5449 69.8574,75.9229 69.8735,75.6787 69.9058,75.1455 69.938,74.9395 70.4243,74.9761 71.2827,74.6323 72.1572,74.2705 73.0156,74.001 73.874,73.7388 74.7651,73.6323 75.6235,73.2812 76.4336,73.0186 77.0005,72.7983 77.2109,72.5034 77.2432,72.5854 77.2759,72.5151 77.292,72.4536 77.3242,72.5366 77.3403,72.0464 77.373,72.3228 77.4214,70.7036 77.3892,71.6816 77.3892,71.3794 77.4053,70.3462 77.4214,69.707 77.4375,69.1323 77.4536,68.0986 77.4536,68.3755 77.5186,65.5195 77.4863,67.4121 77.5186,66.4634 77.5347,65.9551 77.7778,65.5488 78.5068,65.2007 79.3652,64.7603 80.2559,64.4404 81.1309,64.1543 82.0054,63.936 82.9126,63.8374 83.8032,63.6367 84.6943,63.4912 85.5527,63.314 86.2329,63.022 86.6216,62.8623 86.7188,62.668 86.751,62.5093 86.7837,62.6367 86.7998,62.5249 86.8159,62.46 86.8481,62.3032 86.8647,62.4312 86.8809,63.0981 86.897,62.8838 86.9941,59.3125 86.9131,61.6094 86.9619,59.313 86.9292,60.2964 86.9458,60.019 86.9619,59.5039 86.9619,59.019 86.978,58.2065 86.9941,57.5835 87.0103,56.6841 87.0103,56.7598 87.0264,56.4888 87.0591,54.5942 87.0591,54.9468 87.2534,54.9146 87.8853,54.6895 88.7598,54.5576 89.667,54.4463 90.5576,54.1782 91.4482,54.0933 92.3555,53.9375 93.2466,53.7603 94.1694,53.7153 95.0605,53.4316 95.9678,53.2617 96.8423,53.0532 97.6035,52.9961 98.0083,52.8857 98.1865,52.7573 98.2354,52.7354 98.2676,52.7666 98.2837,52.6611 98.3164,52.6328 98.3325,52.4878 98.3325,52.4556 98.3486,52.7847 98.3486,53.2378 98.3647,53.3574 98.4136,52.6494 98.4297,51.8555 98.4458,50.8521 98.4136,51.9346 98.4136,51.853 98.4297,50.998 98.4458,50.6006 98.4458,50.3193 98.4619,49.8525 98.4619,49.2671 98.478,48.7944 98.4941,48 98.4941,48.0415 98.5107,47.1729 98.5107,46.9419 98.5107,46.9619 98.5269,46.9219 98.6401,46.564 98.7861,44.8564 99.4336,47.0532 100.26,47.335 100.989,45.7891 101.799,44.6055 102.673,44.3311 103.581,44.3188 104.503,44.5278 105.443,44.7739 106.382,44.9038 107.322,45.2007 108.278,45.4268 109.217,45.5835 110.108,45.2939 110.869,44.0923 111.485,43.2944 111.922,43.0293 112.133,43.0996 112.197,43.4185 112.214,43.7437 112.23,44.1108 112.246,44.4585 112.262,44.6655 112.294,44.6675 112.327,44.1626 112.359,43.6855 112.375,43.4712 112.408,43.4292 112.44,43.228 112.457,42.9971 112.489,42.5898 112.505,42.7466 112.603,39.3887 112.505,41.4531 112.505,41.7217 112.489,42.7842 112.473,43.5649 112.489,42.9097 112.554,40.5112 112.554,39.8013 112.554,40.2017 112.538,40.96 112.521,41.5713 112.57,39.8643 112.586,38.1973 112.554,39.6201 112.586,38.4209 112.635,36.4766 112.538,41.9146 112.619,37.5264 112.635,37.3428 112.635,38.1348 112.894,39.0796 113.542,39.8857 114.141,37.7104 114.87,36.1543 115.826,36.8408 116.814,37.7632 117.77,38.8501 118.644,38.7393 119.243,36.1665 119.778,35.8354 120.312,36.7085 120.863,37.8398 121.397,38.832 121.932,36.8252 122.483,34.9741 123.018,35.8066 123.552,37.0137 124.103,38.0308 124.637,37.6914 125.172,34.812 125.722,34.9365 126.257,35.9932 126.792,37.1987 127.342,37.7896 127.876,34.8325 128.411,34.4746 128.962,35.4819 129.497,36.6699 130.031,37.4697 130.582,35.936 131.116,34.4272 131.651,35.0562 132.201,36.1167 132.736,37.1948 133.271,37.3594 133.821,34.9424 134.355,34.4741 134.89,36.1411 135.441,32.9175 135.976,33.7822 136.526,32.6343 137.061,31.1851 137.595,30.3511 138.13,32.7129 138.68,38.2217 139.215,33.6416 139.75,34.3901 140.3,35.2329 140.834,33.5073 141.369,32.6699 141.92,33.0288 142.455,35.1421 142.989,33.9253 143.54,32.0874 144.074,33.8076 144.609,34.8716 145.159,35.9639 145.694,33.5322 146.229,32.2397 146.779,33.5933 147.313,35.1846 147.848,35.4966 148.399,31.0083 148.934,32.0488 149.468,33.6436 150.019,34.8867 150.553,30.9644 151.088,30.9502 151.638,32.4385 152.173,33.9771 152.708,31.4385 153.258,30.1299 153.792,31.5303 154.327,33.231 154.878,33.1045 155.413,29.7119 155.947,30.7827 156.498,32.4258 157.032,33.4375 157.567,29.6445 158.117,30.606 158.652,30.915 159.187,31.7563 159.737,30.3193 160.271,31.4238 160.806,33.0337 161.357,30.9058 161.892,29.3325 162.426,30.8047 162.977,32.416 163.511,32.375 164.046,28.7622 164.596,29.8906 165.131,31.4229 165.666,32.6104 166.216,28.5913 166.75,29.2212 167.285,30.8501 167.836,32.2764 168.371,29.1816 168.905,28.8076 169.456,30.2935 169.99,31.9395 170.525,29.999 171.059,28.6201 171.61,29.9761 172.145,31.2104 172.695,30.2109 173.229,29.5957 173.764,31.9297 174.315,32.5527 174.85,29.4048 175.384,30.0103 175.935,31.7539 176.469,27.4424 177.004,28.3579 177.554,30.5059 178.089,26.2085 178.624,29.8711 179.174,30.0854 179.708,27.4131 180.243,30.0186 180.794,26.1885 181.329,28.3296 181.863,28.7407 182.414,25.6333 182.948,30.2822 183.482,25.564 184.033,27.2686 184.568,29.3765 185.103,27.2158 185.653,26.3315 186.188,28.0908 186.722,29.7925 187.273,27.625 187.808,26.8462 188.342,28.3237 188.893,29.7695 189.427,30.2153 189.961,26.5801 190.512,27.7627 191.047,29.6616 191.598,29.7686 192.132,26.3716 192.667,27.8569 193.201,29.6333 193.752,29.1274 194.287,26.3604 194.821,27.9297 195.372,29.6245 195.906,28.126 196.44,26.5771 196.991,28.0254 197.526,29.7598 198.061,29.7339 198.611,26.3589 199.146,27.855 199.68,29.8818 200.231,28.9492 200.766,26.5542 201.3,28.3813 201.851,30.0923 202.385,26.5215 202.919,27.1011 203.47,29.0264 204.005,29.7207 204.54,26.1416 205.09,27.6216 205.625,29.5791 206.159,29.0278 206.71,26.4897 207.245,28.0703 207.779,30.0493 208.33,27.7422 208.864,26.9004 209.398,28.6758 209.949,30.1792 210.484,27.5547 211.019,27.3042 211.569,28.9282 212.104,30.3452 212.654,27.1494 213.189,27.6997 213.723,29.5518 214.258,30.0112 214.809,27.7168 215.343,28.3013 215.877,29.6558 216.428,30.459 216.963,28.2202 217.498,28.7256 218.048,30.688 218.583,32.1665 219.117,28.5684 219.668,29.3188 220.202,30.8452 220.737,32.2295 221.288,27.7373 221.822,28.9888 222.356,31.2573 222.907,27.3555 223.442,28.2544 223.977,30.5703 224.527,30.9277 225.062,27.8843 225.596,29.3765 226.147,31.1055 226.681,31.5859 227.216,27.6699 227.767,29.5918 228.301,31.3525 228.835,27.1929 229.386,29.3232 229.921,30.7368 230.456,29.3521 231.006,31.4614 231.541,29.3496 232.075,29.0146 232.626,30.8564 233.16,30.541 233.695,28.0781 234.246,29.8857 234.78,31.4849 235.314,27.5869 235.865,28.8535 236.4,31.1865 236.935,27.2603 237.485,28.7124 238.02,30.8291 238.554,27.3184 239.105,28.3315 239.639,31.9546 240.174,30.4849 240.725,29.4707 241.259,31.04 241.793,31.7432 242.344,29.3472 242.879,29.9941 243.414,31.6641 243.964,30.8691 244.499,29.2964 245.033,30.9077 245.584,32.0806 246.118,31.2554 246.653,31.1519 247.204,32.8472 247.738,33.2959 248.272,31.127 248.823,31.8633 249.358,33.3301 249.909,33.354 250.443,31.7588 250.978,32.4082 251.512,34.124 252.063,34.5234 252.597,34.666 253.132,34.3389 253.683,34.2495 254.217,34.6499 254.751,35.3887 255.302,35.9268 255.837,36.165 256.372,35.9673 256.922,36.5386 257.457,36.771 257.991,37.3042 258.542,37.9868 259.076,38.3726 259.611,39.0967 260.162,39.2495 260.696,39.3584 261.23,39.7368 261.781,40.3403 262.316,40.9199 262.851,41.5005 263.401,41.897 263.936,42.646 264.47,43.125 265.021,43.5723 265.555,44.1675 266.09,44.7607 266.641,45.3369 267.175,46.0381 267.709,46.6509 268.26,47.2681 268.795,47.9658 269.346,48.583 269.88,49.3726 270.415,50.0996 270.949,50.7788 271.5,51.6138 272.034,52.312 272.569,53.1558 273.12,53.9912 273.654,54.8184 274.188,55.7261 274.739,56.5742 275.274,57.5073 275.809,58.4707 276.359,59.2969 276.894,60.3311 277.428,61.3198 277.979,62.3125 278.513,63.4756 279.064,64.5034 279.599,65.6187 280.133,66.7622 280.667,67.897 281.218,69.1279 281.753,70.3604 282.288,71.6362 282.838,72.981 283.373,74.2021 283.907,75.7231 284.458,77.0645 284.992,78.4839 285.527,80.1318 286.078,81.54 286.612,83.3013 287.146,84.9614 287.697,86.6343 288.232,88.5762 288.767,90.4399 289.317,92.5127 289.852,94.8398 290.386,98.9102 290.937,118.171 291.471,129.354 292.022,145.939 292.557,170.005 293.091,211.966 293.625,226.3 294.176,236.665 294.711,243.398 295.246,250.24 295.796,255.392 296.331,259.684 296.865,263.036 297.416,266.319 297.48,266.749" stroke-width="0.5" stroke-linejoin="round" stroke-linecap="butt"/>
   <polyline fill="none" stroke="#d85218" points="57.5796,279.46 57.7251,273.614 57.9033,266.468 58.0654,259.972 58.2114,254.126 58.3569,248.28 58.5029,242.433 58.6484,236.587 58.7944,230.741 58.9399,224.895 59.0859,219.048 59.2314,213.202 59.3774,207.355 59.5234,201.509 59.6689,195.663 59.7983,190.466 59.9443,184.62 60.0903,178.773 60.2358,172.927 60.3818,167.081 60.5273,161.234 60.6733,155.388 60.835,148.892 60.9971,142.396 61.1592,135.9 61.3213,129.404 61.5156,121.609 61.6938,114.464 61.8721,107.318 62.0664,99.5229 62.2769,91.0786 62.5034,81.9844 62.7305,72.8901" stroke-width="0.5" stroke-linejoin="round" stroke-linecap="butt"/>
   <polyline fill="none" stroke="#000000" points="59.2715,91.2852 65.2715,91.2852" stroke-width="0.5" stroke-linejoin="miter" stroke-linecap="square"/>
   <polyline fill="none" stroke="#000000" points="62.2715,88.2852 62.2715,94.2852" stroke-width="0.5" stroke-linejoin="miter" stroke-linecap="square"/>
   <polyline fill="none" stroke="#000000" points="60.1504,89.1636 64.3931,93.4062" stroke-width="0.5" stroke-linejoin="miter" stroke-linecap="square"/>
   <polyline fill="none" stroke="#000000" points="60.1504,93.4062 64.3931,89.1636" stroke-width="0.5" stroke-linejoin="miter" stroke-linecap="square"/>
   <text font-style="normal" font-family="FreeSans" xml:space="preserve" font-weight="normal" font-size="10" transform="translate(62.2716,97.2851) rotate(-0,-0,-6)">
    <tspan x="0 " fill="rgb(0,0,0)" y="-4"/>
    <tspan x="3 " fill="rgb(0,0,0)" y="-4">σ</tspan>
    <tspan x="9 " fill="rgb(0,0,0)" y="-2" font-size="7">y</tspan>
    <tspan x="12 15 21 27 33 39 42 " fill="rgb(0,0,0)" y="-4"> =147.1</tspan>
   </text>
   <polyline fill="none" stroke="#000000" points="180.482,25.564 186.482,25.564" stroke-width="0.5" stroke-linejoin="miter" stroke-linecap="square"/>
   <polyline fill="none" stroke="#000000" points="183.482,22.564 183.482,28.564" stroke-width="0.5" stroke-linejoin="miter" stroke-linecap="square"/>
   <polyline fill="none" stroke="#000000" points="181.361,23.4424 185.604,27.6851" stroke-width="0.5" stroke-linejoin="miter" stroke-linecap="square"/>
   <polyline fill="none" stroke="#000000" points="181.361,27.6851 185.604,23.4424" stroke-width="0.5" stroke-linejoin="miter" stroke-linecap="square"/>
   <text font-style="normal" font-family="FreeSans" xml:space="preserve" font-weight="normal" font-size="10" transform="translate(183.483,33.5638) rotate(-0,-0,-8)">
    <tspan x="0 6 12 18 21 " fill="rgb(0,0,0)" y="-0">198.4</tspan>
   </text>
  </g>
 </g>
</svg>
