<?xml version='1.0' encoding='UTF-8' standalone='no'?>
<svg height="314pt" xmlns:xlink="http://www.w3.org/1999/xlink" xmlns="http://www.w3.org/2000/svg" width="418pt" viewBox="0 0 418 314">
 <title>gl2ps_renderer figure</title>
 <desc>
Creator: GL2PS 1.4.2, (C) 1999-2020 C. Geuzaine
For: Octave
CreationDate: Sun Jan  8 04:08:12 2023
</desc>
 <defs/>
 <polygon fill="#ffffff" points="0,0 418,0 418,314 0,314"/>
 <g>
  <polygon fill="#ffffff" points="0,314 418,314 418,0 0,0" shape-rendering="crispEdges"/>
  <clipPath id="cp00418314">
   <polygon points="0,314 418,314 418,0 0,0"/>
  </clipPath>
  <g clip-path="url(#cp00418314)">
   <polygon fill="#ffffff" points="54.3398,279.46 378.29,279.46 378.29,23.5498 54.3398,23.5498" shape-rendering="crispEdges"/>
   <polyline stroke-width="0.5" stroke-opacity="0.25" stroke-dasharray="1,3,1,3,1,3,1,3" fill="none" stroke-linejoin="miter" points="63.5957,279.46 63.5957,23.5498" stroke-linecap="butt" stroke="#191919"/>
   <polyline stroke-width="0.5" stroke-opacity="0.25" stroke-dasharray="1,3,1,3,1,3,1,3" fill="none" stroke-linejoin="miter" points="72.8516,279.46 72.8516,23.5498" stroke-linecap="butt" stroke="#191919"/>
   <polyline stroke-width="0.5" stroke-opacity="0.25" stroke-dasharray="1,3,1,3,1,3,1,3" fill="none" stroke-linejoin="miter" points="82.1069,279.46 82.1069,23.5498" stroke-linecap="butt" stroke="#191919"/>
   <polyline stroke-width="0.5" stroke-opacity="0.25" stroke-dasharray="1,3,1,3,1,3,1,3" fill="none" stroke-linejoin="miter" points="91.3628,279.46 91.3628,23.5498" stroke-linecap="butt" stroke="#191919"/>
   <polyline stroke-width="0.5" stroke-opacity="0.25" stroke-dasharray="1,3,1,3,1,3,1,3" fill="none" stroke-linejoin="miter" points="109.875,279.46 109.875,23.5498" stroke-linecap="butt" stroke="#191919"/>
   <polyline stroke-width="0.5" stroke-opacity="0.25" stroke-dasharray="1,3,1,3,1,3,1,3" fill="none" stroke-linejoin="miter" points="119.13,279.46 119.13,23.5498" stroke-linecap="butt" stroke="#191919"/>
   <polyline stroke-width="0.5" stroke-opacity="0.25" stroke-dasharray="1,3,1,3,1,3,1,3" fill="none" stroke-linejoin="miter" points="128.386,279.46 128.386,23.5498" stroke-linecap="butt" stroke="#191919"/>
   <polyline stroke-width="0.5" stroke-opacity="0.25" stroke-dasharray="1,3,1,3,1,3,1,3" fill="none" stroke-linejoin="miter" points="137.642,279.46 137.642,23.5498" stroke-linecap="butt" stroke="#191919"/>
   <polyline stroke-width="0.5" stroke-opacity="0.25" stroke-dasharray="1,3,1,3,1,3,1,3" fill="none" stroke-linejoin="miter" points="156.153,279.46 156.153,23.5498" stroke-linecap="butt" stroke="#191919"/>
   <polyline stroke-width="0.5" stroke-opacity="0.25" stroke-dasharray="1,3,1,3,1,3,1,3" fill="none" stroke-linejoin="miter" points="165.409,279.46 165.409,23.5498" stroke-linecap="butt" stroke="#191919"/>
   <polyline stroke-width="0.5" stroke-opacity="0.25" stroke-dasharray="1,3,1,3,1,3,1,3" fill="none" stroke-linejoin="miter" points="174.664,279.46 174.664,23.5498" stroke-linecap="butt" stroke="#191919"/>
   <polyline stroke-width="0.5" stroke-opacity="0.25" stroke-dasharray="1,3,1,3,1,3,1,3" fill="none" stroke-linejoin="miter" points="183.92,279.46 183.92,23.5498" stroke-linecap="butt" stroke="#191919"/>
   <polyline stroke-width="0.5" stroke-opacity="0.25" stroke-dasharray="1,3,1,3,1,3,1,3" fill="none" stroke-linejoin="miter" points="202.432,279.46 202.432,23.5498" stroke-linecap="butt" stroke="#191919"/>
   <polyline stroke-width="0.5" stroke-opacity="0.25" stroke-dasharray="1,3,1,3,1,3,1,3" fill="none" stroke-linejoin="miter" points="211.687,279.46 211.687,23.5498" stroke-linecap="butt" stroke="#191919"/>
   <polyline stroke-width="0.5" stroke-opacity="0.25" stroke-dasharray="1,3,1,3,1,3,1,3" fill="none" stroke-linejoin="miter" points="220.943,279.46 220.943,23.5498" stroke-linecap="butt" stroke="#191919"/>
   <polyline stroke-width="0.5" stroke-opacity="0.25" stroke-dasharray="1,3,1,3,1,3,1,3" fill="none" stroke-linejoin="miter" points="230.199,279.46 230.199,23.5498" stroke-linecap="butt" stroke="#191919"/>
   <polyline stroke-width="0.5" stroke-opacity="0.25" stroke-dasharray="1,3,1,3,1,3,1,3" fill="none" stroke-linejoin="miter" points="248.71,279.46 248.71,23.5498" stroke-linecap="butt" stroke="#191919"/>
   <polyline stroke-width="0.5" stroke-opacity="0.25" stroke-dasharray="1,3,1,3,1,3,1,3" fill="none" stroke-linejoin="miter" points="257.966,279.46 257.966,23.5498" stroke-linecap="butt" stroke="#191919"/>
   <polyline stroke-width="0.5" stroke-opacity="0.25" stroke-dasharray="1,3,1,3,1,3,1,3" fill="none" stroke-linejoin="miter" points="267.221,279.46 267.221,23.5498" stroke-linecap="butt" stroke="#191919"/>
   <polyline stroke-width="0.5" stroke-opacity="0.25" stroke-dasharray="1,3,1,3,1,3,1,3" fill="none" stroke-linejoin="miter" points="276.477,279.46 276.477,23.5498" stroke-linecap="butt" stroke="#191919"/>
   <polyline stroke-width="0.5" stroke-opacity="0.25" stroke-dasharray="1,3,1,3,1,3,1,3" fill="none" stroke-linejoin="miter" points="294.989,279.46 294.989,23.5498" stroke-linecap="butt" stroke="#191919"/>
   <polyline stroke-width="0.5" stroke-opacity="0.25" stroke-dasharray="1,3,1,3,1,3,1,3" fill="none" stroke-linejoin="miter" points="304.244,279.46 304.244,23.5498" stroke-linecap="butt" stroke="#191919"/>
   <polyline stroke-width="0.5" stroke-opacity="0.25" stroke-dasharray="1,3,1,3,1,3,1,3" fill="none" stroke-linejoin="miter" points="313.5,279.46 313.5,23.5498" stroke-linecap="butt" stroke="#191919"/>
   <polyline stroke-width="0.5" stroke-opacity="0.25" stroke-dasharray="1,3,1,3,1,3,1,3" fill="none" stroke-linejoin="miter" points="322.756,279.46 322.756,23.5498" stroke-linecap="butt" stroke="#191919"/>
   <polyline stroke-width="0.5" stroke-opacity="0.25" stroke-dasharray="1,3,1,3,1,3,1,3" fill="none" stroke-linejoin="miter" points="341.267,279.46 341.267,23.5498" stroke-linecap="butt" stroke="#191919"/>
   <polyline stroke-width="0.5" stroke-opacity="0.25" stroke-dasharray="1,3,1,3,1,3,1,3" fill="none" stroke-linejoin="miter" points="350.523,279.46 350.523,23.5498" stroke-linecap="butt" stroke="#191919"/>
   <polyline stroke-width="0.5" stroke-opacity="0.25" stroke-dasharray="1,3,1,3,1,3,1,3" fill="none" stroke-linejoin="miter" points="359.778,279.46 359.778,23.5498" stroke-linecap="butt" stroke="#191919"/>
   <polyline stroke-width="0.5" stroke-opacity="0.25" stroke-dasharray="1,3,1,3,1,3,1,3" fill="none" stroke-linejoin="miter" points="369.034,279.46 369.034,23.5498" stroke-linecap="butt" stroke="#191919"/>
   <polyline stroke-width="0.5" stroke-opacity="0.15" stroke-dasharray="16,0" fill="none" stroke-linejoin="miter" points="54.3398,279.46 54.3398,23.5498" stroke-linecap="butt" stroke="#262626"/>
   <polyline stroke-width="0.5" stroke-opacity="0.15" stroke-dasharray="16,0" fill="none" stroke-linejoin="miter" points="100.619,279.46 100.619,23.5498" stroke-linecap="butt" stroke="#262626"/>
   <polyline stroke-width="0.5" stroke-opacity="0.15" stroke-dasharray="16,0" fill="none" stroke-linejoin="miter" points="146.897,279.46 146.897,23.5498" stroke-linecap="butt" stroke="#262626"/>
   <polyline stroke-width="0.5" stroke-opacity="0.15" stroke-dasharray="16,0" fill="none" stroke-linejoin="miter" points="193.176,279.46 193.176,23.5498" stroke-linecap="butt" stroke="#262626"/>
   <polyline stroke-width="0.5" stroke-opacity="0.15" stroke-dasharray="16,0" fill="none" stroke-linejoin="miter" points="239.454,279.46 239.454,23.5498" stroke-linecap="butt" stroke="#262626"/>
   <polyline stroke-width="0.5" stroke-opacity="0.15" stroke-dasharray="16,0" fill="none" stroke-linejoin="miter" points="285.733,279.46 285.733,23.5498" stroke-linecap="butt" stroke="#262626"/>
   <polyline stroke-width="0.5" stroke-opacity="0.15" stroke-dasharray="16,0" fill="none" stroke-linejoin="miter" points="332.011,279.46 332.011,23.5498" stroke-linecap="butt" stroke="#262626"/>
   <polyline stroke-width="0.5" stroke-opacity="0.15" stroke-dasharray="16,0" fill="none" stroke-linejoin="miter" points="378.29,279.46 378.29,23.5498" stroke-linecap="butt" stroke="#262626"/>
   <polyline stroke-width="0.5" fill="none" stroke-linejoin="miter" points="54.3398,279.46 54.3398,276.222" stroke-linecap="butt" stroke="#262626"/>
   <polyline stroke-width="0.5" fill="none" stroke-linejoin="miter" points="54.3398,23.5498 54.3398,26.7886" stroke-linecap="butt" stroke="#262626"/>
   <polyline stroke-width="0.5" fill="none" stroke-linejoin="miter" points="100.619,279.46 100.619,276.222" stroke-linecap="butt" stroke="#262626"/>
   <polyline stroke-width="0.5" fill="none" stroke-linejoin="miter" points="100.619,23.5498 100.619,26.7886" stroke-linecap="butt" stroke="#262626"/>
   <polyline stroke-width="0.5" fill="none" stroke-linejoin="miter" points="146.897,279.46 146.897,276.222" stroke-linecap="butt" stroke="#262626"/>
   <polyline stroke-width="0.5" fill="none" stroke-linejoin="miter" points="146.897,23.5498 146.897,26.7886" stroke-linecap="butt" stroke="#262626"/>
   <polyline stroke-width="0.5" fill="none" stroke-linejoin="miter" points="193.176,279.46 193.176,276.222" stroke-linecap="butt" stroke="#262626"/>
   <polyline stroke-width="0.5" fill="none" stroke-linejoin="miter" points="193.176,23.5498 193.176,26.7886" stroke-linecap="butt" stroke="#262626"/>
   <polyline stroke-width="0.5" fill="none" stroke-linejoin="miter" points="239.454,279.46 239.454,276.222" stroke-linecap="butt" stroke="#262626"/>
   <polyline stroke-width="0.5" fill="none" stroke-linejoin="miter" points="239.454,23.5498 239.454,26.7886" stroke-linecap="butt" stroke="#262626"/>
   <polyline stroke-width="0.5" fill="none" stroke-linejoin="miter" points="285.733,279.46 285.733,276.222" stroke-linecap="butt" stroke="#262626"/>
   <polyline stroke-width="0.5" fill="none" stroke-linejoin="miter" points="285.733,23.5498 285.733,26.7886" stroke-linecap="butt" stroke="#262626"/>
   <polyline stroke-width="0.5" fill="none" stroke-linejoin="miter" points="332.011,279.46 332.011,276.222" stroke-linecap="butt" stroke="#262626"/>
   <polyline stroke-width="0.5" fill="none" stroke-linejoin="miter" points="332.011,23.5498 332.011,26.7886" stroke-linecap="butt" stroke="#262626"/>
   <polyline stroke-width="0.5" fill="none" stroke-linejoin="miter" points="378.29,279.46 378.29,276.222" stroke-linecap="butt" stroke="#262626"/>
   <polyline stroke-width="0.5" fill="none" stroke-linejoin="miter" points="378.29,23.5498 378.29,26.7886" stroke-linecap="butt" stroke="#262626"/>
   <text xml:space="preserve" font-weight="normal" font-style="normal" font-size="10" font-family="FreeSans" transform="translate(51.34,294.957) rotate(-0,3,-8)">
    <tspan y="-0" x="0 " fill="rgb(38,38,38)">0</tspan>
   </text>
   <text xml:space="preserve" font-weight="normal" font-style="normal" font-size="10" font-family="FreeSans" transform="translate(93.1186,294.957) rotate(-0,7.5,-8)">
    <tspan y="-0" x="0 6 9 " fill="rgb(38,38,38)">0.1</tspan>
   </text>
   <text xml:space="preserve" font-weight="normal" font-style="normal" font-size="10" font-family="FreeSans" transform="translate(139.397,294.957) rotate(-0,7.5,-8)">
    <tspan y="-0" x="0 6 9 " fill="rgb(38,38,38)">0.2</tspan>
   </text>
   <text xml:space="preserve" font-weight="normal" font-style="normal" font-size="10" font-family="FreeSans" transform="translate(185.676,294.957) rotate(-0,7.5,-8)">
    <tspan y="-0" x="0 6 9 " fill="rgb(38,38,38)">0.3</tspan>
   </text>
   <text xml:space="preserve" font-weight="normal" font-style="normal" font-size="10" font-family="FreeSans" transform="translate(231.954,294.957) rotate(-0,7.5,-8)">
    <tspan y="-0" x="0 6 9 " fill="rgb(38,38,38)">0.4</tspan>
   </text>
   <text xml:space="preserve" font-weight="normal" font-style="normal" font-size="10" font-family="FreeSans" transform="translate(278.233,294.957) rotate(-0,7.5,-8)">
    <tspan y="-0" x="0 6 9 " fill="rgb(38,38,38)">0.5</tspan>
   </text>
   <text xml:space="preserve" font-weight="normal" font-style="normal" font-size="10" font-family="FreeSans" transform="translate(324.511,294.957) rotate(-0,7.5,-8)">
    <tspan y="-0" x="0 6 9 " fill="rgb(38,38,38)">0.6</tspan>
   </text>
   <text xml:space="preserve" font-weight="normal" font-style="normal" font-size="10" font-family="FreeSans" transform="translate(370.79,294.957) rotate(-0,7.5,-8)">
    <tspan y="-0" x="0 6 9 " fill="rgb(38,38,38)">0.7</tspan>
   </text>
   <polyline stroke-width="0.5" stroke-opacity="0.25" stroke-dasharray="1,3,1,3,1,3,1,3" fill="none" stroke-linejoin="miter" points="54.3398,270.93 378.29,270.93" stroke-linecap="butt" stroke="#191919"/>
   <polyline stroke-width="0.5" stroke-opacity="0.25" stroke-dasharray="1,3,1,3,1,3,1,3" fill="none" stroke-linejoin="miter" points="54.3398,262.399 378.29,262.399" stroke-linecap="butt" stroke="#191919"/>
   <polyline stroke-width="0.5" stroke-opacity="0.25" stroke-dasharray="1,3,1,3,1,3,1,3" fill="none" stroke-linejoin="miter" points="54.3398,253.869 378.29,253.869" stroke-linecap="butt" stroke="#191919"/>
   <polyline stroke-width="0.5" stroke-opacity="0.25" stroke-dasharray="1,3,1,3,1,3,1,3" fill="none" stroke-linejoin="miter" points="54.3398,245.339 378.29,245.339" stroke-linecap="butt" stroke="#191919"/>
   <polyline stroke-width="0.5" stroke-opacity="0.25" stroke-dasharray="1,3,1,3,1,3,1,3" fill="none" stroke-linejoin="miter" points="54.3398,228.278 378.29,228.278" stroke-linecap="butt" stroke="#191919"/>
   <polyline stroke-width="0.5" stroke-opacity="0.25" stroke-dasharray="1,3,1,3,1,3,1,3" fill="none" stroke-linejoin="miter" points="54.3398,219.748 378.29,219.748" stroke-linecap="butt" stroke="#191919"/>
   <polyline stroke-width="0.5" stroke-opacity="0.25" stroke-dasharray="1,3,1,3,1,3,1,3" fill="none" stroke-linejoin="miter" points="54.3398,211.217 378.29,211.217" stroke-linecap="butt" stroke="#191919"/>
   <polyline stroke-width="0.5" stroke-opacity="0.25" stroke-dasharray="1,3,1,3,1,3,1,3" fill="none" stroke-linejoin="miter" points="54.3398,202.687 378.29,202.687" stroke-linecap="butt" stroke="#191919"/>
   <polyline stroke-width="0.5" stroke-opacity="0.25" stroke-dasharray="1,3,1,3,1,3,1,3" fill="none" stroke-linejoin="miter" points="54.3398,185.626 378.29,185.626" stroke-linecap="butt" stroke="#191919"/>
   <polyline stroke-width="0.5" stroke-opacity="0.25" stroke-dasharray="1,3,1,3,1,3,1,3" fill="none" stroke-linejoin="miter" points="54.3398,177.096 378.29,177.096" stroke-linecap="butt" stroke="#191919"/>
   <polyline stroke-width="0.5" stroke-opacity="0.25" stroke-dasharray="1,3,1,3,1,3,1,3" fill="none" stroke-linejoin="miter" points="54.3398,168.565 378.29,168.565" stroke-linecap="butt" stroke="#191919"/>
   <polyline stroke-width="0.5" stroke-opacity="0.25" stroke-dasharray="1,3,1,3,1,3,1,3" fill="none" stroke-linejoin="miter" points="54.3398,160.035 378.29,160.035" stroke-linecap="butt" stroke="#191919"/>
   <polyline stroke-width="0.5" stroke-opacity="0.25" stroke-dasharray="1,3,1,3,1,3,1,3" fill="none" stroke-linejoin="miter" points="54.3398,142.975 378.29,142.975" stroke-linecap="butt" stroke="#191919"/>
   <polyline stroke-width="0.5" stroke-opacity="0.25" stroke-dasharray="1,3,1,3,1,3,1,3" fill="none" stroke-linejoin="miter" points="54.3398,134.444 378.29,134.444" stroke-linecap="butt" stroke="#191919"/>
   <polyline stroke-width="0.5" stroke-opacity="0.25" stroke-dasharray="1,3,1,3,1,3,1,3" fill="none" stroke-linejoin="miter" points="54.3398,125.914 378.29,125.914" stroke-linecap="butt" stroke="#191919"/>
   <polyline stroke-width="0.5" stroke-opacity="0.25" stroke-dasharray="1,3,1,3,1,3,1,3" fill="none" stroke-linejoin="miter" points="54.3398,117.384 378.29,117.384" stroke-linecap="butt" stroke="#191919"/>
   <polyline stroke-width="0.5" stroke-opacity="0.25" stroke-dasharray="1,3,1,3,1,3,1,3" fill="none" stroke-linejoin="miter" points="54.3398,100.323 378.29,100.323" stroke-linecap="butt" stroke="#191919"/>
   <polyline stroke-width="0.5" stroke-opacity="0.25" stroke-dasharray="1,3,1,3,1,3,1,3" fill="none" stroke-linejoin="miter" points="54.3398,91.7925 378.29,91.7925" stroke-linecap="butt" stroke="#191919"/>
   <polyline stroke-width="0.5" stroke-opacity="0.25" stroke-dasharray="1,3,1,3,1,3,1,3" fill="none" stroke-linejoin="miter" points="54.3398,83.2622 378.29,83.2622" stroke-linecap="butt" stroke="#191919"/>
   <polyline stroke-width="0.5" stroke-opacity="0.25" stroke-dasharray="1,3,1,3,1,3,1,3" fill="none" stroke-linejoin="miter" points="54.3398,74.7319 378.29,74.7319" stroke-linecap="butt" stroke="#191919"/>
   <polyline stroke-width="0.5" stroke-opacity="0.25" stroke-dasharray="1,3,1,3,1,3,1,3" fill="none" stroke-linejoin="miter" points="54.3398,57.6714 378.29,57.6714" stroke-linecap="butt" stroke="#191919"/>
   <polyline stroke-width="0.5" stroke-opacity="0.25" stroke-dasharray="1,3,1,3,1,3,1,3" fill="none" stroke-linejoin="miter" points="54.3398,49.1411 378.29,49.1411" stroke-linecap="butt" stroke="#191919"/>
   <polyline stroke-width="0.5" stroke-opacity="0.25" stroke-dasharray="1,3,1,3,1,3,1,3" fill="none" stroke-linejoin="miter" points="54.3398,40.6108 378.29,40.6108" stroke-linecap="butt" stroke="#191919"/>
   <polyline stroke-width="0.5" stroke-opacity="0.25" stroke-dasharray="1,3,1,3,1,3,1,3" fill="none" stroke-linejoin="miter" points="54.3398,32.0806 378.29,32.0806" stroke-linecap="butt" stroke="#191919"/>
   <polyline stroke-width="0.5" stroke-opacity="0.15" stroke-dasharray="16,0" fill="none" stroke-linejoin="miter" points="54.3398,279.46 378.29,279.46" stroke-linecap="butt" stroke="#262626"/>
   <polyline stroke-width="0.5" stroke-opacity="0.15" stroke-dasharray="16,0" fill="none" stroke-linejoin="miter" points="54.3398,236.808 378.29,236.808" stroke-linecap="butt" stroke="#262626"/>
   <polyline stroke-width="0.5" stroke-opacity="0.15" stroke-dasharray="16,0" fill="none" stroke-linejoin="miter" points="54.3398,194.157 378.29,194.157" stroke-linecap="butt" stroke="#262626"/>
   <polyline stroke-width="0.5" stroke-opacity="0.15" stroke-dasharray="16,0" fill="none" stroke-linejoin="miter" points="54.3398,151.505 378.29,151.505" stroke-linecap="butt" stroke="#262626"/>
   <polyline stroke-width="0.5" stroke-opacity="0.15" stroke-dasharray="16,0" fill="none" stroke-linejoin="miter" points="54.3398,108.854 378.29,108.854" stroke-linecap="butt" stroke="#262626"/>
   <polyline stroke-width="0.5" stroke-opacity="0.15" stroke-dasharray="16,0" fill="none" stroke-linejoin="miter" points="54.3398,66.2017 378.29,66.2017" stroke-linecap="butt" stroke="#262626"/>
   <polyline stroke-width="0.5" stroke-opacity="0.15" stroke-dasharray="16,0" fill="none" stroke-linejoin="miter" points="54.3398,23.5498 378.29,23.5498" stroke-linecap="butt" stroke="#262626"/>
   <polyline stroke-width="0.5" fill="none" stroke-linejoin="miter" points="54.3398,279.46 57.5791,279.46" stroke-linecap="butt" stroke="#262626"/>
   <polyline stroke-width="0.5" fill="none" stroke-linejoin="miter" points="378.29,279.46 375.051,279.46" stroke-linecap="butt" stroke="#262626"/>
   <polyline stroke-width="0.5" fill="none" stroke-linejoin="miter" points="54.3398,236.808 57.5791,236.808" stroke-linecap="butt" stroke="#262626"/>
   <polyline stroke-width="0.5" fill="none" stroke-linejoin="miter" points="378.29,236.808 375.051,236.808" stroke-linecap="butt" stroke="#262626"/>
   <polyline stroke-width="0.5" fill="none" stroke-linejoin="miter" points="54.3398,194.157 57.5791,194.157" stroke-linecap="butt" stroke="#262626"/>
   <polyline stroke-width="0.5" fill="none" stroke-linejoin="miter" points="378.29,194.157 375.051,194.157" stroke-linecap="butt" stroke="#262626"/>
   <polyline stroke-width="0.5" fill="none" stroke-linejoin="miter" points="54.3398,151.505 57.5791,151.505" stroke-linecap="butt" stroke="#262626"/>
   <polyline stroke-width="0.5" fill="none" stroke-linejoin="miter" points="378.29,151.505 375.051,151.505" stroke-linecap="butt" stroke="#262626"/>
   <polyline stroke-width="0.5" fill="none" stroke-linejoin="miter" points="54.3398,108.854 57.5791,108.854" stroke-linecap="butt" stroke="#262626"/>
   <polyline stroke-width="0.5" fill="none" stroke-linejoin="miter" points="378.29,108.854 375.051,108.854" stroke-linecap="butt" stroke="#262626"/>
   <polyline stroke-width="0.5" fill="none" stroke-linejoin="miter" points="54.3398,66.2017 57.5791,66.2017" stroke-linecap="butt" stroke="#262626"/>
   <polyline stroke-width="0.5" fill="none" stroke-linejoin="miter" points="378.29,66.2017 375.051,66.2017" stroke-linecap="butt" stroke="#262626"/>
   <polyline stroke-width="0.5" fill="none" stroke-linejoin="miter" points="54.3398,23.5498 57.5791,23.5498" stroke-linecap="butt" stroke="#262626"/>
   <polyline stroke-width="0.5" fill="none" stroke-linejoin="miter" points="378.29,23.5498 375.051,23.5498" stroke-linecap="butt" stroke="#262626"/>
   <text xml:space="preserve" font-weight="normal" font-style="normal" font-size="10" font-family="FreeSans" transform="translate(43.3408,283.46) rotate(-0,6,-4)">
    <tspan y="-0" x="0 " fill="rgb(38,38,38)">0</tspan>
   </text>
   <text xml:space="preserve" font-weight="normal" font-style="normal" font-size="10" font-family="FreeSans" transform="translate(37.3408,240.808) rotate(-0,12,-4)">
    <tspan y="-0" x="0 6 " fill="rgb(38,38,38)">50</tspan>
   </text>
   <text xml:space="preserve" font-weight="normal" font-style="normal" font-size="10" font-family="FreeSans" transform="translate(31.3408,198.157) rotate(-0,18,-4)">
    <tspan y="-0" x="0 6 12 " fill="rgb(38,38,38)">100</tspan>
   </text>
   <text xml:space="preserve" font-weight="normal" font-style="normal" font-size="10" font-family="FreeSans" transform="translate(31.3408,155.505) rotate(-0,18,-4)">
    <tspan y="-0" x="0 6 12 " fill="rgb(38,38,38)">150</tspan>
   </text>
   <text xml:space="preserve" font-weight="normal" font-style="normal" font-size="10" font-family="FreeSans" transform="translate(31.3408,112.853) rotate(-0,18,-4)">
    <tspan y="-0" x="0 6 12 " fill="rgb(38,38,38)">200</tspan>
   </text>
   <text xml:space="preserve" font-weight="normal" font-style="normal" font-size="10" font-family="FreeSans" transform="translate(31.3408,70.2017) rotate(-0,18,-4)">
    <tspan y="-0" x="0 6 12 " fill="rgb(38,38,38)">250</tspan>
   </text>
   <text xml:space="preserve" font-weight="normal" font-style="normal" font-size="10" font-family="FreeSans" transform="translate(31.3408,27.55) rotate(-0,18,-4)">
    <tspan y="-0" x="0 6 12 " fill="rgb(38,38,38)">300</tspan>
   </text>
   <polyline stroke-width="0.5" stroke-dasharray="16,0" fill="none" stroke-linejoin="miter" points="54.3398,279.46 378.29,279.46" stroke-linecap="square" stroke="#262626"/>
   <polyline stroke-width="0.5" stroke-dasharray="16,0" fill="none" stroke-linejoin="miter" points="54.3398,23.5498 378.29,23.5498" stroke-linecap="square" stroke="#262626"/>
   <polyline stroke-width="0.5" stroke-dasharray="16,0" fill="none" stroke-linejoin="miter" points="54.3398,279.46 54.3398,23.5498" stroke-linecap="square" stroke="#262626"/>
   <polyline stroke-width="0.5" stroke-dasharray="16,0" fill="none" stroke-linejoin="miter" points="378.29,279.46 378.29,23.5498" stroke-linecap="square" stroke="#262626"/>
   <text xml:space="preserve" font-weight="bold" font-style="normal" font-size="11" font-family="FreeSans" transform="translate(198.815,13.55) rotate(-0,17.5,0)">
    <tspan y="-0" x="0 7 11 17 23 29 " fill="rgb(0,0,0)">St1595</tspan>
   </text>
   <text xml:space="preserve" font-weight="normal" font-style="normal" font-size="11" font-family="FreeSans" transform="translate(-10.1592,151.505) rotate(-90,36.5,0)">
    <tspan y="-3" x="0 7 10 14 20 25 30 " fill="rgb(38,38,38)">Stress </tspan>
    <tspan y="-3" x="33 " fill="rgb(38,38,38)">σ</tspan>
    <tspan y="-3" x="40 43 47 56 63 69 " fill="rgb(38,38,38)"> (MPa)</tspan>
   </text>
   <text xml:space="preserve" font-weight="normal" font-style="normal" font-size="11" font-family="FreeSans" transform="translate(173.315,311.957) rotate(-0,43,-12)">
    <tspan y="-3" x="0 7 10 14 20 22 28 " fill="rgb(38,38,38)">Strain </tspan>
    <tspan y="-3" x="31 " fill="rgb(38,38,38)">ε</tspan>
    <tspan y="-3" x="36 39 43 52 61 64 73 82 " fill="rgb(38,38,38)"> (mm/mm)</tspan>
   </text>
   <polyline stroke-width="0.5" fill="none" stroke-linejoin="round" points="54.3398,279.432 54.3677,268.5 54.4048,257.073 54.4419,247.344 54.479,238.622 54.5156,230.573 54.5576,223.125 54.5947,216.253 54.6362,209.941 54.6826,204.104 54.7241,198.78 54.7749,193.908 54.8213,189.412 54.877,185.39 54.9277,181.782 54.9878,178.483 55.0435,175.74 55.1084,173.117 55.1729,170.846 55.2378,168.813 55.3071,167.005 55.3765,165.498 55.4507,164.065 55.5249,162.829 55.5986,161.754 55.6772,160.718 55.7515,159.824 55.8301,159.011 55.9087,158.249 55.9873,157.584 56.0708,156.887 56.1494,156.261 56.2329,155.74 56.3115,155.146 56.3945,154.621 56.478,154.092 56.5615,153.57 56.6401,153.114 56.7231,152.557 56.8066,152.169 56.8901,151.715 56.9731,151.197 57.0518,150.834 57.1353,150.35 57.2188,149.907 57.3018,149.505 57.3853,149.054 57.4683,148.651 57.5518,148.229 57.6353,147.77 57.7183,147.431 57.7969,146.987 57.8804,146.559 57.9634,146.226 58.0469,145.763 58.1304,145.415 58.2134,145.024 58.2969,144.626 58.3755,144.238 58.459,143.838 58.542,143.464 58.6255,143.117 58.7041,142.715 58.7876,142.352 58.8706,142.01 58.9541,141.607 59.0327,141.325 59.1113,140.85 59.1948,140.542 59.2734,140.19 59.3564,139.773 59.4399,139.501 59.5234,139.086 59.6021,138.734 59.6851,138.423 59.7686,138.059 59.8516,137.745 59.9307,137.38 60.0137,136.997 60.0923,136.712 60.1758,136.439 60.2544,136.023 60.3379,135.705 60.4209,135.331 60.4995,135.061 60.583,134.702 60.6665,134.408 60.7451,134.083 60.8281,133.72 60.9116,133.426 60.9902,133.114 61.0737,132.799 61.1523,132.46 61.2354,132.175 61.314,131.843 61.3975,131.65 61.4717,131.282 61.5547,130.963 61.6333,130.646 61.7168,130.322 61.7954,130.074 61.8789,129.724 61.9575,129.443 62.0405,129.146 62.1196,128.86 62.1982,128.578 62.2812,128.268 62.3647,127.957 62.4434,127.727 62.5269,127.381 62.6055,127.116 62.6841,126.895 62.7627,126.558 62.8413,126.279 62.9199,125.949 63.0034,125.768 63.082,125.477 63.1606,125.169 63.2441,124.93 63.3228,124.623 63.4014,124.367 63.4849,124.051 63.5635,123.838 63.6421,123.556 63.7251,123.295 63.8037,123.024 63.8828,122.791 63.9614,122.487 64.04,122.371 64.1187,122.138 64.1929,121.712 64.2715,121.503 64.3545,121.205 64.4336,120.985 64.5122,120.715 64.5952,120.455 64.6738,120.213 64.7529,119.999 64.8315,119.719 64.9102,119.486 64.9888,119.223 65.0674,118.98 65.146,118.741 65.2295,118.442 65.3081,118.294 65.3867,118.009 65.4653,117.787 65.5439,117.583 65.6226,117.288 65.7012,117.076 65.7803,116.82 65.8589,116.768 65.9375,116.428 66.0161,116.124 66.0947,115.919 66.1733,115.7 66.252,115.433 66.3306,115.242 66.4097,115 66.4883,114.774 66.5669,114.568 66.6455,114.287 66.7241,114.125 66.8027,113.875 66.8813,113.644 66.96,113.425 67.0391,113.228 67.1177,113.002 67.1963,112.795 67.2749,112.556 67.3535,112.364 67.4321,112.214 67.5107,111.898 67.5894,111.756 67.6685,111.505 67.7422,111.285 67.8208,111.095 67.8994,110.855 67.9785,110.686 68.0571,110.459 68.1357,110.258 68.2144,110.049 68.293,109.812 68.3716,109.649 68.4502,109.435 68.5288,109.189 68.6079,109.03 68.6865,108.818 68.7603,108.639 68.8389,108.46 68.918,108.197 68.9966,108.04 69.0752,107.956 69.1489,107.678 69.228,107.438 69.3066,107.247 69.3804,107.056 69.459,106.846 69.5381,106.675 69.6167,106.512 69.6953,106.276 69.7739,106.072 69.8481,105.923 69.9268,105.7 70.0054,105.529 70.084,105.33 70.1626,105.149 70.2412,104.954 70.3198,104.774 70.3984,104.604 70.4775,104.409 70.5562,104.199 70.6348,104.063 70.709,103.857 70.7876,103.647 70.8662,103.508 70.9448,103.507 71.0186,103.187 71.0977,102.967 71.1763,102.773 71.25,102.658 71.3291,102.446 71.4077,102.278 71.4907,102.08 71.5649,101.894 71.6436,101.719 71.7222,101.533 71.8008,101.388 71.8794,101.229 71.958,101.028 72.0371,100.904 72.1157,100.705 72.1943,100.522 72.2729,100.366 72.3516,100.174 72.4302,100.032 72.5088,99.8369 72.5879,99.6777 72.6665,99.54 72.7451,99.3423 72.8237,99.1787 72.9487,99.0435 73.106,98.9775 73.2588,98.9521 73.4116,98.5342 73.564,98.3809 73.7217,98.248 73.874,98.0361 74.0317,97.8926 74.1841,97.7759 74.3369,97.5977 74.4941,97.4385 74.647,97.2715 74.7998,97.1128 74.9526,96.9683 75.1099,96.7637 75.2627,96.6699 75.4199,96.5024 75.5728,96.3062 75.7251,96.2139 75.8828,96.0024 76.0352,95.856 76.188,95.7373 76.3457,95.543 76.498,95.4287 76.6509,95.2588 76.8081,95.0918 76.9609,94.9751 77.1138,94.7812 77.271,94.6445 77.4238,94.5298 77.5767,94.3521 77.7339,94.2598 77.8867,94.0635 78.0391,93.9507 78.1919,93.7988 78.3491,93.6025 78.502,93.498 78.6592,93.3477 78.812,93.1978 78.9648,93.0532 79.1221,93.5566 79.2749,92.7837 79.4277,92.647 79.585,92.4736 79.7378,92.4023 79.8906,92.2583 80.0479,92.0562 80.2007,92.0098 80.353,91.7744 80.5059,91.665 80.6631,91.5508 80.8159,91.3955 80.9731,91.2944 81.126,91.1289 81.2788,90.9712 81.4316,90.8833 81.5889,90.7124 81.7417,90.582 81.8989,90.457 82.0518,90.2915 82.2041,90.2041 82.3618,90.0273 82.5142,89.9556 82.667,89.8096 82.8242,89.6284 82.9771,89.5527 83.1299,89.3965 83.2827,89.2632 83.4399,89.123 83.5928,89.0215 83.7456,88.8945 83.9028,88.7617 84.0557,88.6172 84.2129,88.5239 84.3657,88.3682 84.5181,88.2134 84.6758,88.165 84.8281,87.9648 84.981,87.8667 85.1382,87.7285 85.291,87.6211 85.4438,87.4883 85.6011,87.3599 85.7539,87.2334 85.9067,87.1855 86.064,87.186 86.2168,86.8936 86.3696,86.7588 86.522,86.6431 86.6797,86.5449 86.832,86.3765 86.9849,86.3179 87.1421,86.2021 87.2949,86.0571 87.4521,85.9717 87.605,85.8135 87.7578,85.7188 87.915,85.5747 88.0679,85.5059 88.2207,85.3716 88.3779,85.2378 88.5308,85.1265 88.6831,85.0474 88.8408,84.895 88.9932,84.7944 89.146,84.6812 89.3032,84.5459 89.4561,84.4678 89.6089,84.2944 89.7617,84.2158 89.9189,84.0732 90.0718,83.978 90.229,83.8687 90.3818,83.7715 90.5347,83.6729 90.6919,83.5527 90.8447,83.4258 90.9971,83.3276 91.1548,83.2202 91.3071,83.0513 91.46,83.0376 91.6172,82.8862 91.77,82.7974 91.9229,82.6895 92.0801,82.5527 92.2329,82.4614 92.3857,82.3428 92.543,82.2612 92.6958,82.1523 92.8486,81.9951 93.0059,81.9492 93.1587,81.8413 93.311,81.6909 93.4688,81.6401 93.6211,81.499 93.7739,81.418 93.9268,81.3486 94.084,81.1738 94.2368,81.1196 94.3896,80.9785 94.5469,80.8804 94.6997,80.7666 94.8569,82.3057 95.0098,80.6636 95.1621,80.4985 95.3198,80.4102 95.4722,80.3481 95.625,80.2129 95.7778,80.0952 95.9351,80.0308 96.0879,79.916 96.2451,79.8306 96.3979,79.7153 96.5508,79.6372 96.708,79.5454 96.8608,79.4438 97.0137,79.3511 97.1709,79.2637 97.3237,79.1431 97.4761,79.0747 97.6338,78.9521 97.7861,78.8354 97.939,78.7959 98.0962,78.6577 98.249,78.5972 98.4019,78.4893 98.5591,78.3867 98.7119,78.3335 98.8647,78.2246 99.0171,78.125 99.1748,78.0259 99.3276,77.9175 99.48,77.8369 99.6377,77.7329 99.79,77.6694 99.9478,77.6016 100.1,77.4722 100.253,77.4136 100.41,77.3066 100.563,77.1953 100.716,77.1313 100.873,77.0112 101.026,76.9702 101.179,76.856 101.336,76.7725 101.489,76.6963 101.641,76.604 101.799,76.501 101.951,76.4336 102.104,76.3286 102.257,76.2573 102.414,76.1699 102.567,76.0737 102.72,76.0034 102.877,75.8896 103.03,75.812 103.187,75.7534 103.34,75.6753 103.493,75.5933 103.65,75.5029 103.803,75.3833 103.955,75.3354 104.113,75.208 104.265,75.1733 104.418,75.0894 104.575,74.9688 104.728,74.9546 104.881,74.8208 105.038,74.7495 105.191,74.6782 105.344,74.5903 105.501,74.5229 105.654,74.4199 105.806,74.3374 105.959,74.2969 106.116,74.1758 106.269,74.0991 106.427,74.0425 106.579,73.9448 106.732,73.9092 106.889,75.7251 107.042,73.8062 107.195,73.6538 107.352,73.5474 107.505,73.5127 107.658,73.4395 107.815,73.3599 107.968,73.29 108.12,73.2388 108.278,73.1309 108.43,73.0698 108.583,72.9629 108.736,72.9238 108.893,72.854 109.046,72.7339 109.199,72.7368 109.356,72.5859 109.509,72.5386 109.666,72.4834 109.819,72.4072 109.972,72.3525 110.124,72.2451 110.282,72.146 110.434,72.1221 110.592,72.0249 110.744,71.9507 110.897,71.897 111.054,71.7886 111.207,71.7632 111.36,71.6577 111.513,71.6348 111.67,71.5508 111.823,71.436 111.98,71.4097 112.133,71.3184 112.285,71.2554 112.443,71.165 112.596,71.1377 112.748,71.0635 112.906,71.001 113.058,70.9028 113.211,70.874 113.364,70.7734 113.521,70.6826 113.674,70.6763 113.831,70.5557 113.984,70.5186 114.137,70.4517 114.294,70.3657 114.447,70.314 114.599,70.2603 114.757,70.1577 114.909,70.1372 115.062,70.0386 115.219,69.9814 115.372,69.9058 115.525,69.8223 115.682,69.7896 115.835,69.6738 115.988,69.6797 116.145,69.626 116.298,69.5283 116.451,69.5049 116.608,69.3994 116.761,69.3394 116.913,69.2656 117.071,69.2339 117.223,69.1484 117.376,69.1094 117.533,69.0361 117.686,69.0107 117.839,68.9116 117.996,68.8267 118.149,68.8091 118.302,68.7119 118.454,68.6738 118.612,68.5884 118.764,68.5635 118.922,68.481 119.074,68.4238 119.227,68.3555 119.385,68.3428 119.537,68.2446 119.69,68.186 119.847,68.1196 120,68.0732 120.153,68.0273 120.31,67.9062 120.463,67.9253 120.616,67.8472 120.773,67.7891 120.926,67.7612 121.078,67.6528 121.231,67.6152 121.388,67.5435 121.541,67.52 121.694,67.4429 121.851,67.3809 122.004,67.3384 122.161,67.2778 122.314,67.1895 122.467,67.1685 122.624,67.1064 122.777,67.062 122.93,67.0088 123.087,66.9111 123.24,66.9009 123.392,66.813 123.55,66.769 123.702,66.7085 123.855,66.6777 124.012,66.6177 124.165,66.5732 124.318,66.5059 124.471,66.4692 124.628,66.3989 124.781,66.314 124.933,66.3184 125.091,66.2388 125.243,66.188 125.401,66.147 125.553,68.3184 125.706,66.1523 125.863,65.9863 126.016,65.9478 126.169,65.8975 126.326,65.8306 126.479,65.8203 126.632,65.752 126.789,65.6758 126.942,65.6694 127.095,65.5986 127.252,65.5664 127.405,65.521 127.557,65.4233 127.71,65.4331 127.867,65.355 128.02,65.2964 128.177,65.2319 128.33,65.1938 128.483,65.1519 128.64,65.1025 128.793,65.0566 128.946,65.0542 129.103,64.9648 129.256,64.9121 129.409,64.8848 129.566,64.7915 129.719,64.7676 129.871,64.7354 130.024,64.6714 130.181,64.6294 130.334,64.5898 130.491,64.5557 130.644,64.4902 130.797,64.4209 130.954,64.4058 131.107,64.3647 131.26,64.2729 131.417,64.2778 131.57,64.1934 131.722,64.1665 131.88,64.1226 132.032,64.0522 132.185,64.0562 132.343,63.9946 132.495,63.9487 132.648,63.8984 132.801,63.8394 132.958,63.8032 133.111,63.7393 133.268,63.7095 133.421,63.6943 133.574,63.6245 133.731,63.6025 133.884,63.5449 134.036,63.4858 134.194,63.4648 134.346,63.4082 134.499,63.3726 134.656,63.3218 134.809,63.2759 134.962,63.2529 135.119,63.1909 135.272,63.1587 135.425,63.1357 135.582,63.0752 135.735,63.0356 135.888,62.9805 136.045,62.9355 136.198,62.8999 136.35,62.8457 136.508,62.8066 136.66,62.8066 136.813,62.7505 136.97,62.709 137.123,62.6577 137.276,62.6152 137.429,62.5728 137.586,62.5034 137.739,62.5049 137.896,62.4731 138.049,62.373 138.201,62.4238 138.359,62.3179 138.511,62.2837 138.664,62.2549 138.821,62.2178 138.974,62.2002 139.127,62.1318 139.284,62.0742 139.437,62.0791 139.59,61.9897 139.747,61.9727 139.9,61.9561 140.053,61.8677 140.205,61.8833 140.363,61.8159 140.515,61.7993 140.668,61.7651 140.825,61.6743 140.978,61.6743 141.135,61.6216 141.288,61.5986 141.441,61.5522 141.598,61.5454 141.751,61.4907 141.904,61.4717 142.061,61.3784 142.214,61.4082 142.367,61.3496 142.524,61.2671 142.677,61.3184 142.829,61.2017 142.987,61.2017 143.139,61.1787 143.292,61.1216 143.449,61.0923 143.602,61.0479 143.755,61.0044 143.908,60.9961 144.065,60.9307 144.218,60.9009 144.375,60.8774 144.528,60.8042 144.68,60.8296 144.838,60.7295 144.99,60.772 145.143,60.7202 145.3,60.6475 145.453,60.6406 145.606,60.5923 145.763,60.5488 145.916,60.5142 146.069,60.521 146.226,60.4624 146.379,60.4355 146.532,60.3804 146.689,60.3965 146.842,60.3242 146.994,60.2612 147.152,60.2886 147.304,60.1924 147.457,60.2075 147.614,60.1436 147.767,60.1221 147.92,60.1079 148.077,60.061 148.23,60.0078 148.383,60.0327 148.535,59.9712 148.693,59.9351 148.846,59.8784 148.998,59.8472 149.156,59.8491 149.308,59.7681 149.461,59.7822 149.618,59.7476 149.771,59.7104 149.928,59.7036 150.081,59.627 150.234,59.6201 150.391,59.5659 150.544,59.5723 150.697,59.52 150.854,59.4941 151.007,59.4556 151.159,59.4517 151.317,59.3901 151.469,59.3579 151.622,59.353 151.775,59.3115 151.932,59.2988 152.085,59.2261 152.238,59.2295 152.395,59.1763 152.548,59.1567 152.705,59.1084 152.858,59.1206 153.011,59.0718 153.168,59.0498 153.321,59.0073 153.473,58.9722 153.631,58.9546 153.783,58.8906 153.936,58.9263 154.093,58.875 154.246,58.8291 154.399,58.8159 154.556,58.7769 154.709,58.7539 154.862,58.7046 155.019,58.7202 155.172,58.6748 155.325,58.6304 155.482,58.6265 155.635,58.6104 155.787,58.5347 155.94,58.542 156.097,58.5049 156.25,58.4829 156.403,58.4692 156.56,58.3936 156.713,58.4297 156.866,58.3491 157.023,58.3188 157.176,58.2871 157.333,58.2734 157.486,58.2646 157.638,58.2363 157.796,58.2012 157.948,58.1958 158.101,58.1592 158.258,58.1011 158.411,58.1245 158.564,58.0522 158.721,58.0586 158.874,58.0288 159.027,57.9932 159.184,57.978 159.337,57.9287 159.49,57.9312 159.642,57.9062 159.8,57.8262 159.952,57.8594 160.11,57.8174 160.262,57.7651 160.415,57.7876 160.572,57.7251 160.725,57.7163 160.878,57.7109 161.035,57.6323 161.188,57.7007 161.341,57.6187 161.493,57.5923 161.651,57.5791 161.803,57.521 161.961,57.52 162.114,57.4844 162.266,57.4619 162.424,57.4727 162.576,57.4199 162.729,57.4111 162.886,57.3906 163.039,57.3257 163.192,57.3242 163.349,57.3047 163.502,57.2734 163.655,57.2578 163.812,57.2339 163.965,57.209 164.117,57.1953 164.275,57.146 164.427,57.1753 164.58,57.1079 164.733,57.0859 164.89,57.0908 165.043,57.0376 165.196,57.0278 165.353,56.9951 165.506,56.957 165.663,56.9834 165.816,56.9541 165.969,56.915 166.126,56.9028 166.279,56.8535 166.431,56.8467 166.589,56.8052 166.741,56.8091 166.894,56.8066 167.051,56.7339 167.204,56.7637 167.357,56.7188 167.514,56.6875 167.667,56.6836 167.82,56.645 167.972,56.6465 168.13,56.6079 168.282,56.582 168.435,56.5679 168.592,56.54 168.745,56.5122 168.902,56.5273 169.055,56.4775 169.208,56.4785 169.365,56.437 169.518,56.4204 169.671,56.4058 169.828,56.3599 169.981,56.3618 170.134,56.3389 170.291,56.3281 170.444,56.3013 170.596,56.293 170.754,56.2666 170.906,56.2446 171.059,56.186 171.212,56.2017 171.369,56.1997 171.522,56.1294 171.675,56.1826 171.832,56.105 171.985,56.1099 172.142,56.0898 172.295,56.0601 172.448,56.0659 172.605,56.0137 172.758,55.9868 172.91,56.0259 173.068,55.9546 173.22,55.9448 173.373,55.9346 173.53,55.876 173.683,55.9043 173.84,55.8618 173.993,55.8726 174.146,55.8623 174.299,55.8027 174.451,55.8252 174.609,55.7866 174.761,55.7524 174.919,55.7427 175.071,55.7495 175.224,55.7188 175.382,55.7271 175.534,55.6514 175.687,55.6948 175.84,55.6509 175.997,55.5923 176.15,55.6445 176.307,55.563 176.46,55.5781 176.613,55.5566 176.77,55.5283 176.923,55.5322 177.075,55.5098 177.233,55.4629 177.385,55.4873 177.538,55.439 177.695,55.4326 177.848,55.417 178.001,55.3667 178.158,55.4028 178.311,55.3286 178.464,55.3936 178.621,55.3506 178.774,55.2935 178.927,55.3286 179.079,55.2915 179.237,55.2612 179.389,55.2368 179.542,55.2627 179.699,55.2129 179.852,55.2134 180.009,55.1802 180.162,55.2021 180.315,55.1475 180.472,55.1367 180.625,55.1582 180.778,55.1021 180.93,55.104 181.088,55.0581 181.24,55.0557 181.398,55.0303 181.55,55.0474 181.703,54.999 181.86,55.0264 182.013,54.9907 182.166,54.9517 182.323,54.959 182.476,54.9272 182.629,54.9312 182.786,54.8633 182.939,54.9248 183.092,54.8828 183.244,54.8755 183.402,54.874 183.554,54.8286 183.712,54.8159 183.864,54.7939 184.017,54.8169 184.17,54.7798 184.327,54.7642 184.48,54.7573 184.633,54.7437 184.79,54.709 184.943,54.7139 185.1,54.7124 185.253,54.6743 185.406,54.665 185.563,54.625 185.716,54.6597 185.868,54.6025 186.026,54.6099 186.178,54.5732 186.331,54.5962 186.488,54.5771 186.641,54.561 186.794,54.5454 186.947,54.5527 187.104,54.5205 187.257,54.4707 187.409,54.5078 187.567,54.4648 187.719,54.458 187.877,54.4517 188.029,54.4365 188.182,54.4482 188.34,54.3926 188.492,54.4136 188.645,54.394 188.802,54.3628 188.955,54.3804 189.108,54.3511 189.265,54.3105 189.418,54.3496 189.571,54.2964 189.728,54.3008 189.881,54.2881 190.033,54.2524 190.186,54.293 190.343,54.2305 190.496,54.2402 190.653,54.2002 190.806,54.1948 190.959,54.2085 191.116,54.1724 191.269,54.166 191.422,54.1968 191.579,54.1353 191.732,54.1304 191.885,54.1504 192.042,54.0864 192.195,54.1094 192.347,54.0967 192.505,54.0601 192.657,54.0718 192.81,54.0444 192.967,54.0562 193.12,54.0337 193.273,54.0063 193.43,54.0352 193.583,54.0039 193.736,53.9688 193.893,53.9863 194.046,53.9502 194.198,53.9507 194.356,53.9512 194.508,53.9077 194.661,53.9561 194.814,53.9272 194.971,53.9023 195.124,53.9106 195.277,53.8613 195.434,53.8604 195.587,53.8452 195.744,53.8525 195.897,53.8706 196.05,53.7993 196.207,53.8223 196.36,53.814 196.512,53.7808 196.67,53.7871 196.822,53.7744 196.975,53.7568 197.132,53.7417 197.285,53.7437 197.438,53.7471 197.595,53.7158 197.748,53.7007 197.901,53.7329 198.058,53.6958 198.211,53.6724 198.364,53.6665 198.516,53.6528 198.674,53.6616 198.826,53.6245 198.984,53.6274 199.136,53.6484 199.289,53.6162 199.446,53.6182 199.599,53.5903 199.752,53.583 199.905,53.5825 200.062,53.5366 200.215,53.5562 200.367,53.5645 200.525,53.5132 200.677,53.5513 200.835,53.5234 200.987,53.5142 201.14,53.5127 201.297,53.499 201.45,53.5049 201.603,53.4644 201.76,53.4673 201.913,53.4771 202.066,53.4355 202.223,53.4316 202.376,53.4463 202.529,53.4048 202.686,53.4268 202.839,53.3936 202.991,53.4263 203.144,53.4043 203.301,53.355 203.454,53.3848 203.611,53.3613 203.764,53.3643 203.917,53.3438 204.074,53.3657 204.227,53.3584 204.38,53.335 204.537,53.2998 204.69,53.3345 204.843,53.3086 205,53.2715 205.153,53.3228 205.305,53.2549 205.458,53.2803 205.615,53.2637 205.768,53.2612 205.925,53.2695 206.078,53.2212 206.231,53.2227 206.384,53.252 206.541,53.2085 206.694,53.2031 206.851,53.1987 207.004,53.1758 207.156,53.207 207.314,53.1553 207.466,53.2148 207.619,53.1924 207.776,53.1465 207.929,53.1655 208.082,53.1421 208.239,53.1348 208.392,53.123 208.545,53.1396 208.702,53.1226 208.855,53.1367 209.008,53.0991 209.16,53.1318 209.318,53.0981 209.47,53.0708 209.628,53.1191 209.78,53.0527 209.933,53.082 210.09,53.0522 210.243,53.0542 210.396,53.0435 210.553,53.0522 210.706,53.0322 210.859,53.0615 211.016,53.0088 211.169,53.0327 211.321,52.9985 211.479,52.9722 211.632,53.0283 211.784,52.9668 211.937,53.0229 212.094,53.0098 212.247,52.9731 212.404,53.0015 212.557,52.9575 212.71,52.9648 212.867,52.9326 213.02,52.9766 213.173,52.9492 213.33,52.9502 213.483,52.9316 213.635,52.9556 213.793,52.915 213.945,52.9336 214.098,52.9473 214.251,52.9165 214.408,52.8989 214.561,52.8916 214.714,52.9043 214.871,52.8853 215.024,52.897 215.181,52.8643 215.334,52.8916 215.487,52.8843 215.644,52.8809 215.797,52.8584 215.949,52.8589 216.107,52.8652 216.259,52.8159 216.412,52.876 216.569,52.8384 216.722,52.8359 216.875,52.855 217.032,52.8359 217.185,52.8169 217.338,52.8159 217.495,52.8369 217.648,52.812 217.8,52.8008 217.958,52.8228 218.111,52.8101 218.263,52.7847 218.416,52.8027 218.573,52.7886 218.726,52.8032 218.883,52.7969 219.036,52.7666 219.189,52.8008 219.346,52.7603 219.499,52.7769 219.652,52.7373 219.809,52.7578 219.962,52.7671 220.114,52.7529 220.272,52.7603 220.424,52.7798 220.577,52.7441 220.734,52.7329 220.887,52.7603 221.04,52.7207 221.197,52.7407 221.35,52.7319 221.503,52.7339 221.66,52.7397 221.813,52.7207 221.966,52.748 222.118,52.7124 222.276,52.7012 222.428,52.7349 222.586,52.7246 222.738,52.6836 222.891,52.7227 223.048,52.6865 223.201,52.7124 223.354,52.707 223.511,52.6748 223.664,52.7188 223.817,52.6792 223.974,52.6987 224.127,52.687 224.279,52.6758 224.437,52.6831 224.589,52.6714 224.742,52.6772 224.9,52.6948 225.052,52.6626 225.205,52.6777 225.358,52.6943 225.515,52.6509 225.668,52.6904 225.825,52.6582 225.978,52.6694 226.131,52.6528 226.288,52.6465 226.441,52.6724 226.593,52.6782 226.751,52.6489 226.903,52.687 227.056,52.6484 227.209,52.6484 227.366,52.6602 227.519,52.6299 227.676,52.644 227.829,52.6543 227.982,52.6123 228.139,52.6797 228.292,52.6489 228.445,52.6489 228.602,52.6333 228.755,52.6211 228.907,52.6372 229.065,52.6099 229.217,52.6387 229.37,52.6455 229.527,52.6118 229.68,52.6553 229.833,52.6362 229.99,52.625 230.143,52.6377 230.296,52.6357 230.448,52.6362 230.606,52.6304 230.758,52.6138 230.911,52.6416 231.068,52.6201 231.221,52.6152 231.379,52.6489 231.531,52.6138 231.684,52.6172 231.841,52.626 231.994,52.6357 232.147,52.6309 232.304,52.6069 232.457,52.6011 232.61,52.6279 232.762,52.6392 232.92,52.6069 233.072,52.6479 233.225,52.6382 233.382,52.6348 233.535,52.5894 233.688,52.6265 233.845,52.6309 233.998,52.606 234.155,52.647 234.308,52.6118 234.461,52.6309 234.618,52.6401 234.771,52.6333 234.924,52.6387 235.081,52.6045 235.234,52.6143 235.386,52.6279 235.544,52.6265 235.696,52.6147 235.849,52.6235 236.006,52.6084 236.159,52.645 236.316,52.6245 236.465,52.6489 236.622,52.6318 236.775,52.6187 236.927,52.6304 237.085,52.6108 237.237,52.626 237.395,52.6313 237.548,52.6475 237.7,52.6362 237.857,52.6372 238.01,52.6094 238.163,52.6714 238.32,52.6431 238.473,52.626 238.626,52.6792 238.783,52.6279 238.936,52.645 239.089,52.6377 239.246,52.6582 239.399,52.6626 239.551,52.6499 239.709,52.6372 239.861,52.6816 240.014,52.6401 240.171,52.6572 240.324,52.6372 240.477,52.6416 240.63,52.6777 240.787,52.6245 240.94,52.7007 241.093,52.6797 241.25,52.6606 241.403,52.6899 241.555,52.6636 241.713,52.6772 241.865,52.6616 242.023,52.6909 242.175,52.689 242.328,52.687 242.485,52.6772 242.638,52.7144 242.791,52.6748 242.948,52.687 243.101,52.7222 243.254,52.668 243.406,52.7114 243.564,52.6826 243.716,52.6865 243.874,52.7075 244.026,52.7007 244.179,52.6895 244.336,52.7471 244.489,52.6948 244.642,52.7285 244.795,52.7246 244.952,52.7109 245.105,52.7285 245.262,52.6851 245.415,52.7446 245.568,52.7378 245.725,52.7349 245.878,52.769 246.03,52.7461 246.188,52.7363 246.34,52.7383 246.493,52.7676 246.65,52.75 246.803,52.7593 246.956,52.7461 247.113,52.7959 247.266,52.7612 247.419,52.7778 247.576,52.7808 247.729,52.7778 247.882,52.7812 248.039,52.7583 248.192,52.8003 248.344,52.7881 248.497,52.7979 248.654,52.7686 248.807,52.8115 248.964,52.8042 249.117,52.8208 249.27,52.8198 249.423,52.8252 249.58,52.8301 249.733,52.8013 249.89,52.8438 250.043,52.834 250.195,52.8345 250.353,52.853 250.505,52.8428 250.658,52.8394 250.815,52.855 250.968,52.8823 251.121,52.8589 251.278,52.8643 251.431,52.8779 251.584,52.8872 251.741,52.8638 251.894,52.8901 252.047,52.8789 252.204,52.894 252.357,52.9028 252.509,52.8877 252.662,52.9419 252.819,52.8999 252.972,52.9146 253.129,52.9019 253.282,52.9189 253.435,52.936 253.592,52.9341 253.745,52.9434 253.898,52.9771 254.055,52.9443 254.208,52.9624 254.361,52.9712 254.518,52.9517 254.671,52.9771 254.823,52.9731 254.981,52.9707 255.133,52.9902 255.286,52.9688 255.443,53.0146 255.596,53.0112 255.749,53.0044 255.902,53.0518 256.059,53.0239 256.212,53.0078 256.369,53.0435 256.522,53.0151 256.674,53.0527 256.832,53.0493 256.984,53.0322 257.137,53.0977 257.29,53.0762 257.447,53.0718 257.6,53.0898 257.757,53.0659 257.91,53.0918 258.063,53.0859 258.22,53.1025 258.373,53.1313 258.526,53.0986 258.683,53.1455 258.836,53.1338 258.988,53.1235 259.146,53.1494 259.298,53.1528 259.451,53.1562 259.608,53.1577 259.761,53.168 259.914,53.1846 260.071,53.1934 260.224,53.1729 260.377,53.229 260.534,53.2104 260.687,53.207 260.84,53.2271 260.992,53.2173 261.15,53.2358 261.302,53.2285 261.46,53.2163 261.612,53.2808 261.765,53.2749 261.922,53.2681 262.075,53.2983 262.228,53.2842 262.381,53.3013 262.538,53.2798 262.691,53.3047 262.848,53.3188 263.001,53.3135 263.153,53.3589 263.311,53.3579 263.463,53.3379 263.616,53.3696 263.773,53.3633 263.926,53.3638 264.079,53.3701 264.236,53.3823 264.389,53.4062 264.542,53.4004 264.695,53.4121 264.852,53.4326 265.005,53.4272 265.162,53.4336 265.315,53.4526 265.467,53.4673 265.625,53.4697 265.777,53.4546 265.93,53.4746 266.087,53.4966 266.24,53.5029 266.393,53.4927 266.55,53.5273 266.703,53.5371 266.856,53.5474 267.013,53.5225 267.166,53.5742 267.319,53.5698 267.476,53.5562 267.629,53.5967 267.781,53.5698 267.934,53.5938 268.091,53.6118 268.244,53.6138 268.401,53.6431 268.554,53.6338 268.707,53.6426 268.86,53.6641 269.017,53.6689 269.17,53.6787 269.327,53.6787 269.48,53.6792 269.632,53.7192 269.79,53.6953 269.942,53.7554 270.095,53.7427 270.252,53.7422 270.405,53.7671 270.558,53.7632 270.715,53.7866 270.868,53.7817 271.021,53.8032 271.174,53.8262 271.331,53.8257 271.484,53.8232 271.636,53.8765 271.794,53.8457 271.946,53.8623 272.104,53.9053 272.256,53.8745 272.409,53.917 272.566,53.877 272.719,53.9185 272.872,53.9424 273.029,53.9321 273.182,53.9595 273.335,53.9937 273.492,53.9546 273.645,53.9814 273.797,53.9897 273.955,53.9956 274.108,54.0322 274.26,53.9932 274.418,54.0674 274.57,54.0713 274.723,54.0718 274.88,54.1064 275.033,54.0884 275.186,54.1099 275.343,54.0996 275.496,54.1489 275.649,54.1499 275.806,54.1553 275.959,54.1553 276.111,54.207 276.269,54.1807 276.421,54.2021 276.574,54.2407 276.731,54.2041 276.884,54.2505 277.037,54.2427 277.19,54.2812 277.347,54.2822 277.5,54.2764 277.657,54.2871 277.81,54.3369 277.963,54.3311 278.12,54.3491 278.273,54.3545 278.425,54.3809 278.583,54.3936 278.735,54.3442 278.888,54.4424 279.045,54.4268 279.198,54.4277 279.351,54.4917 279.504,54.4824 279.661,54.4839 279.814,54.4995 279.971,54.52 280.124,54.5273 280.276,54.5366 280.429,54.5625 280.587,54.5889 280.739,54.5625 280.897,54.5972 281.049,54.6177 281.202,54.6348 281.359,54.6543 281.512,54.6489 281.665,54.6846 281.818,54.689 281.975,54.7119 282.128,54.7012 282.285,54.7314 282.438,54.7466 282.59,54.7744 282.748,54.791 282.9,54.8091 283.053,54.8218 283.21,54.8198 283.363,54.8643 283.516,54.8516 283.669,54.8965 283.826,54.897 283.979,54.9058 284.136,54.9336 284.289,54.936 284.442,54.9854 284.594,54.9819 284.752,54.9888 284.904,55.0439 285.062,55.0376 285.214,55.0205 285.367,55.0806 285.524,55.0679 285.677,55.1123 285.83,55.1333 285.987,55.1265 286.14,55.1924 286.293,55.1719 286.45,55.2026 286.603,55.1973 286.756,55.2207 286.913,55.2505 287.065,55.252 287.218,55.2993 287.371,55.3398 287.528,55.3247 287.681,55.3579 287.838,55.3716 287.991,55.3809 288.144,55.4229 288.301,55.4185 288.454,55.4639 288.607,55.4634 288.764,55.4673 288.917,55.519 289.069,55.542 289.227,55.5278 289.379,55.605 289.532,55.582 289.689,55.6001 289.842,55.6484 289.995,55.6367 290.152,55.687 290.305,55.6934 290.458,55.6968 290.615,55.7827 290.768,55.7627 290.921,55.8052 291.078,55.8179 291.231,55.8193 291.383,55.8677 291.541,55.854 291.693,55.9004 291.846,55.9463 292.003,55.9189 292.156,55.9995 292.309,56.0103 292.466,56.001 292.619,56.0532 292.772,56.063 292.929,56.0894 293.082,56.1284 293.234,56.1235 293.392,56.1826 293.544,56.1938 293.697,56.2031 293.854,56.27 294.007,56.2563 294.16,56.3062 294.317,56.3359 294.47,56.3525 294.623,56.3916 294.78,56.396 294.933,56.4106 295.086,56.479 295.243,56.4873 295.396,56.5137 295.548,56.5762 295.701,56.5859 295.858,56.6133 296.011,56.6147 296.164,56.6709 296.321,56.7163 296.474,56.6997 296.631,56.7803 296.784,56.7681 296.937,56.8042 297.094,56.8584 297.247,56.8799 297.4,56.9243 297.557,56.9536 297.71,56.9702 297.862,57.0259 298.02,57.0293 298.172,57.0635 298.325,57.1201 298.482,57.1362 298.635,57.1953 298.792,57.21 298.941,57.2651 299.098,57.2964 299.251,57.3096 299.403,57.3613 299.561,57.3882 299.713,57.438 299.871,57.4634 300.023,57.5435 300.176,57.5498 300.333,57.6035 300.486,57.6123 300.639,57.6934 300.796,57.7124 300.949,57.7393 301.102,57.8159 301.259,57.8218 301.412,57.8711 301.565,57.9248 301.722,57.9575 301.875,58.0127 302.027,58.0498 302.185,58.0967 302.337,58.1543 302.49,58.1782 302.647,58.2295 302.8,58.2764 302.953,58.3071 303.11,58.3828 303.263,58.3989 303.416,58.5 303.573,58.5269 303.726,58.5728 303.879,58.6377 304.036,58.6631 304.189,58.7261 304.341,58.7563 304.499,58.8433 304.651,58.8926 304.804,58.937 304.961,58.9937 305.114,59.0806 305.267,59.0933 305.424,59.1606 305.577,59.2466 305.73,59.2637 305.882,59.356 306.04,59.3813 306.192,59.4644 306.35,59.5298 306.502,59.5796 306.655,59.6455 306.812,59.7383 306.965,59.7734 307.118,59.8584 307.271,59.9082 307.428,59.9785 307.581,60.0708 307.738,60.0708 307.891,60.2236 308.044,60.272 308.201,60.3423 308.354,60.4604 308.506,60.4692 308.659,60.5845 308.816,60.6445 308.969,60.7344 309.126,60.8071 309.279,60.8965 309.432,60.9731 309.585,61.0898 309.742,61.1084 309.895,61.2354 310.052,61.3198 310.205,61.394 310.358,61.5112 310.515,61.5659 310.667,61.6943 310.82,61.771 310.973,61.8511 311.13,61.9473 311.283,62.0703 311.44,62.1592 311.593,62.2759 311.746,62.3584 311.899,62.4766 312.056,62.5674 312.209,62.6465 312.361,62.8086 312.519,62.8784 312.671,62.9951 312.829,63.1343 312.981,63.2183 313.134,63.3442 313.292,63.4648 313.444,63.5884 313.597,63.7036 313.754,63.8164 313.907,63.958 314.06,64.084 314.217,64.1694 314.37,64.3252 314.523,64.4458 314.68,64.5952 314.833,64.7388 314.985,64.8369 315.138,65.0078 315.295,65.1162 315.448,65.2705 315.605,65.3804 315.758,65.5444 315.911,65.6973 316.068,65.8408 316.221,65.9966 316.374,66.1636 316.531,66.2964 316.684,66.4565 316.837,66.6162 316.994,66.751 317.146,66.937 317.299,67.0874 317.452,67.2456 317.609,67.4033 317.762,67.5635 317.919,67.7769 318.072,67.9238 318.225,68.0957 318.378,68.2944 318.535,68.4497 318.688,68.6187 318.845,68.8218 318.998,68.9897 319.15,69.1968 319.308,69.3628 319.46,69.5469 319.613,69.7832 319.771,69.9448 319.923,70.147 320.076,70.3457 320.233,70.5327 320.386,70.7407 320.539,70.9282 320.696,71.1597 320.849,71.3794 321.002,71.5645 321.159,71.8271 321.312,72.0093 321.464,72.2178 321.617,72.4639 321.774,72.6572 321.927,72.9028 322.084,73.1069 322.237,73.3345 322.39,73.5903 322.547,73.8145 322.7,74.0396 322.853,74.3135 323.01,74.5181 323.163,74.7949 323.316,75.0376 323.468,75.2886 323.625,75.541 323.778,75.7661 323.936,76.0498 324.088,76.3169 324.241,76.5762 324.398,76.8608 324.551,77.1304 324.704,77.3848 324.857,77.665 325.014,77.8994 325.167,78.2241 325.324,78.5142 325.477,78.7642 325.629,79.1226 325.787,79.3652 325.939,79.6768 326.092,79.9834 326.25,80.2588 326.402,80.6016 326.555,80.8823 326.712,81.189 326.865,81.5425 327.018,81.8384 327.175,82.1533 327.328,82.5107 327.481,82.7993 327.638,83.1797 327.791,83.4912 327.943,83.8369 328.096,84.1938 328.253,84.5068 328.406,84.8882 328.563,85.2417 328.716,85.5889 328.869,85.9561 329.026,86.3589 329.179,86.71 329.332,87.0957 329.489,87.4468 329.642,87.8633 329.795,88.2495 329.947,88.6182 330.104,89.0708 330.257,89.4092 330.41,89.8428 330.567,90.271 330.72,90.6831 330.877,91.1113 331.03,91.542 331.183,91.9507 331.34,92.4199 331.493,92.834 331.646,93.2886 331.803,93.7383 331.956,94.1968 332.108,94.6821 332.266,95.1206 332.418,95.6387 332.571,96.0972 332.729,96.561 332.881,97.085 333.034,97.5771 333.191,98.083 333.344,98.5732 333.497,99.1353 333.654,99.6313 333.807,100.174 333.96,100.698 334.112,101.285 334.27,101.795 334.422,102.359 334.58,102.95 334.732,103.487 334.885,104.097 335.042,104.662 335.195,105.273 335.348,105.879 335.505,106.495 335.658,107.11 335.811,107.753 335.968,108.388 336.121,109.042 336.273,109.691 336.431,110.348 336.583,111.043 336.736,111.685 336.889,112.438 337.046,113.124 337.199,113.843 337.356,114.606 337.509,115.307 337.662,116.071 337.819,116.819 337.972,117.616 338.125,118.398 338.282,119.176 338.435,120.017 338.587,120.851 338.745,121.673 338.897,122.539 339.05,123.41 339.208,124.272 339.36,125.208 339.513,126.082 339.67,127.05 339.823,127.991 339.976,128.963 340.133,129.965 340.286,130.982 340.439,132.008 340.596,133.082 340.749,134.128 340.901,135.253 341.054,136.371 341.211,137.498 341.364,138.71 341.521,139.902 341.674,141.145 341.827,142.433 341.984,143.701 342.137,145.064 342.29,146.43 342.447,147.858 342.6,149.318 342.752,150.814 342.91,152.393 343.063,154.007 343.215,155.67 343.373,157.46 343.525,159.281 343.678,161.224 343.835,163.326 343.988,167.552 344.141,199.52 344.298,215.664 344.451,225.79 344.604,231.841 344.761,238.16 344.914,243.362 345.066,248.124 345.224,254.245 345.376,260.165 345.529,265.052 345.673,268.13" stroke-linecap="butt" stroke="#0071bc"/>
   <polyline stroke-width="0.5" fill="none" stroke-linejoin="round" points="55.2656,279.46 55.2935,273.967 55.3306,266.643 55.3672,259.319 55.4043,251.996 55.4414,244.671 55.4829,236.432 55.52,229.108 55.5615,220.869 55.6079,211.714 55.6499,203.475 55.7007,193.404 55.7471,184.25 55.8022,173.264 55.8535,163.193" stroke-linecap="butt" stroke="#d85218"/>
   <polyline stroke-width="0.5" fill="none" stroke-linejoin="miter" points="52.877,158.56 58.877,158.56" stroke-linecap="square" stroke="#000000"/>
   <polyline stroke-width="0.5" fill="none" stroke-linejoin="miter" points="55.877,155.56 55.877,161.56" stroke-linecap="square" stroke="#000000"/>
   <polyline stroke-width="0.5" fill="none" stroke-linejoin="miter" points="53.7554,156.438 57.998,160.681" stroke-linecap="square" stroke="#000000"/>
   <polyline stroke-width="0.5" fill="none" stroke-linejoin="miter" points="53.7554,160.681 57.998,156.438" stroke-linecap="square" stroke="#000000"/>
   <text xml:space="preserve" font-weight="normal" font-style="normal" font-size="10" font-family="FreeSans" transform="translate(55.8767,164.56) rotate(-0,-0,-6)">
    <tspan y="-4" x="0 " fill="rgb(0,0,0)"/>
    <tspan y="-4" x="3 " fill="rgb(0,0,0)">σ</tspan>
    <tspan font-size="7" y="-2" x="9 " fill="rgb(0,0,0)">y</tspan>
    <tspan y="-4" x="12 15 21 27 33 39 42 " fill="rgb(0,0,0)"> =141.7</tspan>
   </text>
   <polyline stroke-width="0.5" fill="none" stroke-linejoin="miter" points="230.535,52.5894 236.535,52.5894" stroke-linecap="square" stroke="#000000"/>
   <polyline stroke-width="0.5" fill="none" stroke-linejoin="miter" points="233.535,49.5894 233.535,55.5894" stroke-linecap="square" stroke="#000000"/>
   <polyline stroke-width="0.5" fill="none" stroke-linejoin="miter" points="231.414,50.4683 235.657,54.7109" stroke-linecap="square" stroke="#000000"/>
   <polyline stroke-width="0.5" fill="none" stroke-linejoin="miter" points="231.414,54.7109 235.657,50.4683" stroke-linecap="square" stroke="#000000"/>
   <text xml:space="preserve" font-weight="normal" font-style="normal" font-size="10" font-family="FreeSans" transform="translate(233.535,60.5894) rotate(-0,-0,-8)">
    <tspan y="-0" x="0 6 12 " fill="rgb(0,0,0)">266</tspan>
   </text>
  </g>
 </g>
</svg>
