<?xml version='1.0' encoding='UTF-8' standalone='no'?>
<svg height="315pt" width="420pt" xmlns:xlink="http://www.w3.org/1999/xlink" xmlns="http://www.w3.org/2000/svg" viewBox="0 0 420 315">
 <title>gl2ps_renderer figure</title>
 <desc>
Creator: GL2PS 1.4.2, (C) 1999-2020 C. Geuzaine
For: Octave
CreationDate: Sun Jan  8 04:07:42 2023
</desc>
 <defs/>
 <polygon points="0,0 420,0 420,315 0,315" fill="#ffffff"/>
 <g>
  <polygon points="0,315 420,315 420,0 0,0" fill="#ffffff" shape-rendering="crispEdges"/>
  <clipPath id="cp00420315">
   <polygon points="0,315 420,315 420,0 0,0"/>
  </clipPath>
  <g clip-path="url(#cp00420315)">
   <polygon points="54.6001,280.35 380.1,280.35 380.1,23.625 54.6001,23.625" fill="#ffffff" shape-rendering="crispEdges"/>
   <polyline stroke-linecap="butt" points="67.6201,280.35 67.6201,23.625" stroke="#191919" stroke-width="0.5" fill="none" stroke-opacity="0.25" stroke-linejoin="miter" stroke-dasharray="1,3,1,3,1,3,1,3"/>
   <polyline stroke-linecap="butt" points="80.6401,280.35 80.6401,23.625" stroke="#191919" stroke-width="0.5" fill="none" stroke-opacity="0.25" stroke-linejoin="miter" stroke-dasharray="1,3,1,3,1,3,1,3"/>
   <polyline stroke-linecap="butt" points="93.6602,280.35 93.6602,23.625" stroke="#191919" stroke-width="0.5" fill="none" stroke-opacity="0.25" stroke-linejoin="miter" stroke-dasharray="1,3,1,3,1,3,1,3"/>
   <polyline stroke-linecap="butt" points="106.68,280.35 106.68,23.625" stroke="#191919" stroke-width="0.5" fill="none" stroke-opacity="0.25" stroke-linejoin="miter" stroke-dasharray="1,3,1,3,1,3,1,3"/>
   <polyline stroke-linecap="butt" points="132.72,280.35 132.72,23.625" stroke="#191919" stroke-width="0.5" fill="none" stroke-opacity="0.25" stroke-linejoin="miter" stroke-dasharray="1,3,1,3,1,3,1,3"/>
   <polyline stroke-linecap="butt" points="145.74,280.35 145.74,23.625" stroke="#191919" stroke-width="0.5" fill="none" stroke-opacity="0.25" stroke-linejoin="miter" stroke-dasharray="1,3,1,3,1,3,1,3"/>
   <polyline stroke-linecap="butt" points="158.76,280.35 158.76,23.625" stroke="#191919" stroke-width="0.5" fill="none" stroke-opacity="0.25" stroke-linejoin="miter" stroke-dasharray="1,3,1,3,1,3,1,3"/>
   <polyline stroke-linecap="butt" points="171.78,280.35 171.78,23.625" stroke="#191919" stroke-width="0.5" fill="none" stroke-opacity="0.25" stroke-linejoin="miter" stroke-dasharray="1,3,1,3,1,3,1,3"/>
   <polyline stroke-linecap="butt" points="197.82,280.35 197.82,23.625" stroke="#191919" stroke-width="0.5" fill="none" stroke-opacity="0.25" stroke-linejoin="miter" stroke-dasharray="1,3,1,3,1,3,1,3"/>
   <polyline stroke-linecap="butt" points="210.84,280.35 210.84,23.625" stroke="#191919" stroke-width="0.5" fill="none" stroke-opacity="0.25" stroke-linejoin="miter" stroke-dasharray="1,3,1,3,1,3,1,3"/>
   <polyline stroke-linecap="butt" points="223.86,280.35 223.86,23.625" stroke="#191919" stroke-width="0.5" fill="none" stroke-opacity="0.25" stroke-linejoin="miter" stroke-dasharray="1,3,1,3,1,3,1,3"/>
   <polyline stroke-linecap="butt" points="236.88,280.35 236.88,23.625" stroke="#191919" stroke-width="0.5" fill="none" stroke-opacity="0.25" stroke-linejoin="miter" stroke-dasharray="1,3,1,3,1,3,1,3"/>
   <polyline stroke-linecap="butt" points="262.92,280.35 262.92,23.625" stroke="#191919" stroke-width="0.5" fill="none" stroke-opacity="0.25" stroke-linejoin="miter" stroke-dasharray="1,3,1,3,1,3,1,3"/>
   <polyline stroke-linecap="butt" points="275.94,280.35 275.94,23.625" stroke="#191919" stroke-width="0.5" fill="none" stroke-opacity="0.25" stroke-linejoin="miter" stroke-dasharray="1,3,1,3,1,3,1,3"/>
   <polyline stroke-linecap="butt" points="288.96,280.35 288.96,23.625" stroke="#191919" stroke-width="0.5" fill="none" stroke-opacity="0.25" stroke-linejoin="miter" stroke-dasharray="1,3,1,3,1,3,1,3"/>
   <polyline stroke-linecap="butt" points="301.98,280.35 301.98,23.625" stroke="#191919" stroke-width="0.5" fill="none" stroke-opacity="0.25" stroke-linejoin="miter" stroke-dasharray="1,3,1,3,1,3,1,3"/>
   <polyline stroke-linecap="butt" points="328.02,280.35 328.02,23.625" stroke="#191919" stroke-width="0.5" fill="none" stroke-opacity="0.25" stroke-linejoin="miter" stroke-dasharray="1,3,1,3,1,3,1,3"/>
   <polyline stroke-linecap="butt" points="341.04,280.35 341.04,23.625" stroke="#191919" stroke-width="0.5" fill="none" stroke-opacity="0.25" stroke-linejoin="miter" stroke-dasharray="1,3,1,3,1,3,1,3"/>
   <polyline stroke-linecap="butt" points="354.06,280.35 354.06,23.625" stroke="#191919" stroke-width="0.5" fill="none" stroke-opacity="0.25" stroke-linejoin="miter" stroke-dasharray="1,3,1,3,1,3,1,3"/>
   <polyline stroke-linecap="butt" points="367.08,280.35 367.08,23.625" stroke="#191919" stroke-width="0.5" fill="none" stroke-opacity="0.25" stroke-linejoin="miter" stroke-dasharray="1,3,1,3,1,3,1,3"/>
   <polyline stroke-linecap="butt" points="54.6001,280.35 54.6001,23.625" stroke="#262626" stroke-width="0.5" fill="none" stroke-opacity="0.15" stroke-linejoin="miter" stroke-dasharray="16,0"/>
   <polyline stroke-linecap="butt" points="119.7,280.35 119.7,23.625" stroke="#262626" stroke-width="0.5" fill="none" stroke-opacity="0.15" stroke-linejoin="miter" stroke-dasharray="16,0"/>
   <polyline stroke-linecap="butt" points="184.8,280.35 184.8,23.625" stroke="#262626" stroke-width="0.5" fill="none" stroke-opacity="0.15" stroke-linejoin="miter" stroke-dasharray="16,0"/>
   <polyline stroke-linecap="butt" points="249.9,280.35 249.9,23.625" stroke="#262626" stroke-width="0.5" fill="none" stroke-opacity="0.15" stroke-linejoin="miter" stroke-dasharray="16,0"/>
   <polyline stroke-linecap="butt" points="315,280.35 315,23.625" stroke="#262626" stroke-width="0.5" fill="none" stroke-opacity="0.15" stroke-linejoin="miter" stroke-dasharray="16,0"/>
   <polyline stroke-linecap="butt" points="380.1,280.35 380.1,23.625" stroke="#262626" stroke-width="0.5" fill="none" stroke-opacity="0.15" stroke-linejoin="miter" stroke-dasharray="16,0"/>
   <polyline stroke-linecap="butt" points="54.6001,280.35 54.6001,277.099" stroke="#262626" stroke-width="0.5" fill="none" stroke-linejoin="miter"/>
   <polyline stroke-linecap="butt" points="54.6001,23.625 54.6001,26.8765" stroke="#262626" stroke-width="0.5" fill="none" stroke-linejoin="miter"/>
   <polyline stroke-linecap="butt" points="119.7,280.35 119.7,277.099" stroke="#262626" stroke-width="0.5" fill="none" stroke-linejoin="miter"/>
   <polyline stroke-linecap="butt" points="119.7,23.625 119.7,26.8765" stroke="#262626" stroke-width="0.5" fill="none" stroke-linejoin="miter"/>
   <polyline stroke-linecap="butt" points="184.8,280.35 184.8,277.099" stroke="#262626" stroke-width="0.5" fill="none" stroke-linejoin="miter"/>
   <polyline stroke-linecap="butt" points="184.8,23.625 184.8,26.8765" stroke="#262626" stroke-width="0.5" fill="none" stroke-linejoin="miter"/>
   <polyline stroke-linecap="butt" points="249.9,280.35 249.9,277.099" stroke="#262626" stroke-width="0.5" fill="none" stroke-linejoin="miter"/>
   <polyline stroke-linecap="butt" points="249.9,23.625 249.9,26.8765" stroke="#262626" stroke-width="0.5" fill="none" stroke-linejoin="miter"/>
   <polyline stroke-linecap="butt" points="315,280.35 315,277.099" stroke="#262626" stroke-width="0.5" fill="none" stroke-linejoin="miter"/>
   <polyline stroke-linecap="butt" points="315,23.625 315,26.8765" stroke="#262626" stroke-width="0.5" fill="none" stroke-linejoin="miter"/>
   <polyline stroke-linecap="butt" points="380.1,280.35 380.1,277.099" stroke="#262626" stroke-width="0.5" fill="none" stroke-linejoin="miter"/>
   <polyline stroke-linecap="butt" points="380.1,23.625 380.1,26.8765" stroke="#262626" stroke-width="0.5" fill="none" stroke-linejoin="miter"/>
   <text transform="translate(51.6,295.842) rotate(-0,3,-8)" font-weight="normal" font-style="normal" xml:space="preserve" font-size="10" font-family="FreeSans">
    <tspan x="0 " y="-0" fill="rgb(38,38,38)">0</tspan>
   </text>
   <text transform="translate(106.2,295.842) rotate(-0,13.5,-8)" font-weight="normal" font-style="normal" xml:space="preserve" font-size="10" font-family="FreeSans">
    <tspan x="0 6 9 15 21 " y="-0" fill="rgb(38,38,38)">0.001</tspan>
   </text>
   <text transform="translate(171.3,295.842) rotate(-0,13.5,-8)" font-weight="normal" font-style="normal" xml:space="preserve" font-size="10" font-family="FreeSans">
    <tspan x="0 6 9 15 21 " y="-0" fill="rgb(38,38,38)">0.002</tspan>
   </text>
   <text transform="translate(236.4,295.842) rotate(-0,13.5,-8)" font-weight="normal" font-style="normal" xml:space="preserve" font-size="10" font-family="FreeSans">
    <tspan x="0 6 9 15 21 " y="-0" fill="rgb(38,38,38)">0.003</tspan>
   </text>
   <text transform="translate(301.5,295.842) rotate(-0,13.5,-8)" font-weight="normal" font-style="normal" xml:space="preserve" font-size="10" font-family="FreeSans">
    <tspan x="0 6 9 15 21 " y="-0" fill="rgb(38,38,38)">0.004</tspan>
   </text>
   <text transform="translate(366.6,295.842) rotate(-0,13.5,-8)" font-weight="normal" font-style="normal" xml:space="preserve" font-size="10" font-family="FreeSans">
    <tspan x="0 6 9 15 21 " y="-0" fill="rgb(38,38,38)">0.005</tspan>
   </text>
   <polyline stroke-linecap="butt" points="54.6001,273.015 380.1,273.015" stroke="#191919" stroke-width="0.5" fill="none" stroke-opacity="0.25" stroke-linejoin="miter" stroke-dasharray="1,3,1,3,1,3,1,3"/>
   <polyline stroke-linecap="butt" points="54.6001,265.68 380.1,265.68" stroke="#191919" stroke-width="0.5" fill="none" stroke-opacity="0.25" stroke-linejoin="miter" stroke-dasharray="1,3,1,3,1,3,1,3"/>
   <polyline stroke-linecap="butt" points="54.6001,258.345 380.1,258.345" stroke="#191919" stroke-width="0.5" fill="none" stroke-opacity="0.25" stroke-linejoin="miter" stroke-dasharray="1,3,1,3,1,3,1,3"/>
   <polyline stroke-linecap="butt" points="54.6001,251.01 380.1,251.01" stroke="#191919" stroke-width="0.5" fill="none" stroke-opacity="0.25" stroke-linejoin="miter" stroke-dasharray="1,3,1,3,1,3,1,3"/>
   <polyline stroke-linecap="butt" points="54.6001,236.34 380.1,236.34" stroke="#191919" stroke-width="0.5" fill="none" stroke-opacity="0.25" stroke-linejoin="miter" stroke-dasharray="1,3,1,3,1,3,1,3"/>
   <polyline stroke-linecap="butt" points="54.6001,229.005 380.1,229.005" stroke="#191919" stroke-width="0.5" fill="none" stroke-opacity="0.25" stroke-linejoin="miter" stroke-dasharray="1,3,1,3,1,3,1,3"/>
   <polyline stroke-linecap="butt" points="54.6001,221.67 380.1,221.67" stroke="#191919" stroke-width="0.5" fill="none" stroke-opacity="0.25" stroke-linejoin="miter" stroke-dasharray="1,3,1,3,1,3,1,3"/>
   <polyline stroke-linecap="butt" points="54.6001,214.335 380.1,214.335" stroke="#191919" stroke-width="0.5" fill="none" stroke-opacity="0.25" stroke-linejoin="miter" stroke-dasharray="1,3,1,3,1,3,1,3"/>
   <polyline stroke-linecap="butt" points="54.6001,199.665 380.1,199.665" stroke="#191919" stroke-width="0.5" fill="none" stroke-opacity="0.25" stroke-linejoin="miter" stroke-dasharray="1,3,1,3,1,3,1,3"/>
   <polyline stroke-linecap="butt" points="54.6001,192.33 380.1,192.33" stroke="#191919" stroke-width="0.5" fill="none" stroke-opacity="0.25" stroke-linejoin="miter" stroke-dasharray="1,3,1,3,1,3,1,3"/>
   <polyline stroke-linecap="butt" points="54.6001,184.995 380.1,184.995" stroke="#191919" stroke-width="0.5" fill="none" stroke-opacity="0.25" stroke-linejoin="miter" stroke-dasharray="1,3,1,3,1,3,1,3"/>
   <polyline stroke-linecap="butt" points="54.6001,177.66 380.1,177.66" stroke="#191919" stroke-width="0.5" fill="none" stroke-opacity="0.25" stroke-linejoin="miter" stroke-dasharray="1,3,1,3,1,3,1,3"/>
   <polyline stroke-linecap="butt" points="54.6001,162.99 380.1,162.99" stroke="#191919" stroke-width="0.5" fill="none" stroke-opacity="0.25" stroke-linejoin="miter" stroke-dasharray="1,3,1,3,1,3,1,3"/>
   <polyline stroke-linecap="butt" points="54.6001,155.655 380.1,155.655" stroke="#191919" stroke-width="0.5" fill="none" stroke-opacity="0.25" stroke-linejoin="miter" stroke-dasharray="1,3,1,3,1,3,1,3"/>
   <polyline stroke-linecap="butt" points="54.6001,148.32 380.1,148.32" stroke="#191919" stroke-width="0.5" fill="none" stroke-opacity="0.25" stroke-linejoin="miter" stroke-dasharray="1,3,1,3,1,3,1,3"/>
   <polyline stroke-linecap="butt" points="54.6001,140.985 380.1,140.985" stroke="#191919" stroke-width="0.5" fill="none" stroke-opacity="0.25" stroke-linejoin="miter" stroke-dasharray="1,3,1,3,1,3,1,3"/>
   <polyline stroke-linecap="butt" points="54.6001,126.315 380.1,126.315" stroke="#191919" stroke-width="0.5" fill="none" stroke-opacity="0.25" stroke-linejoin="miter" stroke-dasharray="1,3,1,3,1,3,1,3"/>
   <polyline stroke-linecap="butt" points="54.6001,118.98 380.1,118.98" stroke="#191919" stroke-width="0.5" fill="none" stroke-opacity="0.25" stroke-linejoin="miter" stroke-dasharray="1,3,1,3,1,3,1,3"/>
   <polyline stroke-linecap="butt" points="54.6001,111.645 380.1,111.645" stroke="#191919" stroke-width="0.5" fill="none" stroke-opacity="0.25" stroke-linejoin="miter" stroke-dasharray="1,3,1,3,1,3,1,3"/>
   <polyline stroke-linecap="butt" points="54.6001,104.31 380.1,104.31" stroke="#191919" stroke-width="0.5" fill="none" stroke-opacity="0.25" stroke-linejoin="miter" stroke-dasharray="1,3,1,3,1,3,1,3"/>
   <polyline stroke-linecap="butt" points="54.6001,89.6401 380.1,89.6401" stroke="#191919" stroke-width="0.5" fill="none" stroke-opacity="0.25" stroke-linejoin="miter" stroke-dasharray="1,3,1,3,1,3,1,3"/>
   <polyline stroke-linecap="butt" points="54.6001,82.3052 380.1,82.3052" stroke="#191919" stroke-width="0.5" fill="none" stroke-opacity="0.25" stroke-linejoin="miter" stroke-dasharray="1,3,1,3,1,3,1,3"/>
   <polyline stroke-linecap="butt" points="54.6001,74.9702 380.1,74.9702" stroke="#191919" stroke-width="0.5" fill="none" stroke-opacity="0.25" stroke-linejoin="miter" stroke-dasharray="1,3,1,3,1,3,1,3"/>
   <polyline stroke-linecap="butt" points="54.6001,67.6348 380.1,67.6348" stroke="#191919" stroke-width="0.5" fill="none" stroke-opacity="0.25" stroke-linejoin="miter" stroke-dasharray="1,3,1,3,1,3,1,3"/>
   <polyline stroke-linecap="butt" points="54.6001,52.9648 380.1,52.9648" stroke="#191919" stroke-width="0.5" fill="none" stroke-opacity="0.25" stroke-linejoin="miter" stroke-dasharray="1,3,1,3,1,3,1,3"/>
   <polyline stroke-linecap="butt" points="54.6001,45.6299 380.1,45.6299" stroke="#191919" stroke-width="0.5" fill="none" stroke-opacity="0.25" stroke-linejoin="miter" stroke-dasharray="1,3,1,3,1,3,1,3"/>
   <polyline stroke-linecap="butt" points="54.6001,38.2949 380.1,38.2949" stroke="#191919" stroke-width="0.5" fill="none" stroke-opacity="0.25" stroke-linejoin="miter" stroke-dasharray="1,3,1,3,1,3,1,3"/>
   <polyline stroke-linecap="butt" points="54.6001,30.96 380.1,30.96" stroke="#191919" stroke-width="0.5" fill="none" stroke-opacity="0.25" stroke-linejoin="miter" stroke-dasharray="1,3,1,3,1,3,1,3"/>
   <polyline stroke-linecap="butt" points="54.6001,280.35 380.1,280.35" stroke="#262626" stroke-width="0.5" fill="none" stroke-opacity="0.15" stroke-linejoin="miter" stroke-dasharray="16,0"/>
   <polyline stroke-linecap="butt" points="54.6001,243.675 380.1,243.675" stroke="#262626" stroke-width="0.5" fill="none" stroke-opacity="0.15" stroke-linejoin="miter" stroke-dasharray="16,0"/>
   <polyline stroke-linecap="butt" points="54.6001,207 380.1,207" stroke="#262626" stroke-width="0.5" fill="none" stroke-opacity="0.15" stroke-linejoin="miter" stroke-dasharray="16,0"/>
   <polyline stroke-linecap="butt" points="54.6001,170.325 380.1,170.325" stroke="#262626" stroke-width="0.5" fill="none" stroke-opacity="0.15" stroke-linejoin="miter" stroke-dasharray="16,0"/>
   <polyline stroke-linecap="butt" points="54.6001,133.65 380.1,133.65" stroke="#262626" stroke-width="0.5" fill="none" stroke-opacity="0.15" stroke-linejoin="miter" stroke-dasharray="16,0"/>
   <polyline stroke-linecap="butt" points="54.6001,96.9751 380.1,96.9751" stroke="#262626" stroke-width="0.5" fill="none" stroke-opacity="0.15" stroke-linejoin="miter" stroke-dasharray="16,0"/>
   <polyline stroke-linecap="butt" points="54.6001,60.2998 380.1,60.2998" stroke="#262626" stroke-width="0.5" fill="none" stroke-opacity="0.15" stroke-linejoin="miter" stroke-dasharray="16,0"/>
   <polyline stroke-linecap="butt" points="54.6001,23.625 380.1,23.625" stroke="#262626" stroke-width="0.5" fill="none" stroke-opacity="0.15" stroke-linejoin="miter" stroke-dasharray="16,0"/>
   <polyline stroke-linecap="butt" points="54.6001,280.35 57.8501,280.35" stroke="#262626" stroke-width="0.5" fill="none" stroke-linejoin="miter"/>
   <polyline stroke-linecap="butt" points="380.1,280.35 376.85,280.35" stroke="#262626" stroke-width="0.5" fill="none" stroke-linejoin="miter"/>
   <polyline stroke-linecap="butt" points="54.6001,243.675 57.8501,243.675" stroke="#262626" stroke-width="0.5" fill="none" stroke-linejoin="miter"/>
   <polyline stroke-linecap="butt" points="380.1,243.675 376.85,243.675" stroke="#262626" stroke-width="0.5" fill="none" stroke-linejoin="miter"/>
   <polyline stroke-linecap="butt" points="54.6001,207 57.8501,207" stroke="#262626" stroke-width="0.5" fill="none" stroke-linejoin="miter"/>
   <polyline stroke-linecap="butt" points="380.1,207 376.85,207" stroke="#262626" stroke-width="0.5" fill="none" stroke-linejoin="miter"/>
   <polyline stroke-linecap="butt" points="54.6001,170.325 57.8501,170.325" stroke="#262626" stroke-width="0.5" fill="none" stroke-linejoin="miter"/>
   <polyline stroke-linecap="butt" points="380.1,170.325 376.85,170.325" stroke="#262626" stroke-width="0.5" fill="none" stroke-linejoin="miter"/>
   <polyline stroke-linecap="butt" points="54.6001,133.65 57.8501,133.65" stroke="#262626" stroke-width="0.5" fill="none" stroke-linejoin="miter"/>
   <polyline stroke-linecap="butt" points="380.1,133.65 376.85,133.65" stroke="#262626" stroke-width="0.5" fill="none" stroke-linejoin="miter"/>
   <polyline stroke-linecap="butt" points="54.6001,96.9751 57.8501,96.9751" stroke="#262626" stroke-width="0.5" fill="none" stroke-linejoin="miter"/>
   <polyline stroke-linecap="butt" points="380.1,96.9751 376.85,96.9751" stroke="#262626" stroke-width="0.5" fill="none" stroke-linejoin="miter"/>
   <polyline stroke-linecap="butt" points="54.6001,60.2998 57.8501,60.2998" stroke="#262626" stroke-width="0.5" fill="none" stroke-linejoin="miter"/>
   <polyline stroke-linecap="butt" points="380.1,60.2998 376.85,60.2998" stroke="#262626" stroke-width="0.5" fill="none" stroke-linejoin="miter"/>
   <polyline stroke-linecap="butt" points="54.6001,23.625 57.8501,23.625" stroke="#262626" stroke-width="0.5" fill="none" stroke-linejoin="miter"/>
   <polyline stroke-linecap="butt" points="380.1,23.625 376.85,23.625" stroke="#262626" stroke-width="0.5" fill="none" stroke-linejoin="miter"/>
   <text transform="translate(43.6077,284.35) rotate(-0,6,-4)" font-weight="normal" font-style="normal" xml:space="preserve" font-size="10" font-family="FreeSans">
    <tspan x="0 " y="-0" fill="rgb(38,38,38)">0</tspan>
   </text>
   <text transform="translate(37.6077,247.675) rotate(-0,12,-4)" font-weight="normal" font-style="normal" xml:space="preserve" font-size="10" font-family="FreeSans">
    <tspan x="0 6 " y="-0" fill="rgb(38,38,38)">50</tspan>
   </text>
   <text transform="translate(31.6077,211) rotate(-0,18,-4)" font-weight="normal" font-style="normal" xml:space="preserve" font-size="10" font-family="FreeSans">
    <tspan x="0 6 12 " y="-0" fill="rgb(38,38,38)">100</tspan>
   </text>
   <text transform="translate(31.6077,174.325) rotate(-0,18,-4)" font-weight="normal" font-style="normal" xml:space="preserve" font-size="10" font-family="FreeSans">
    <tspan x="0 6 12 " y="-0" fill="rgb(38,38,38)">150</tspan>
   </text>
   <text transform="translate(31.6077,137.65) rotate(-0,18,-4)" font-weight="normal" font-style="normal" xml:space="preserve" font-size="10" font-family="FreeSans">
    <tspan x="0 6 12 " y="-0" fill="rgb(38,38,38)">200</tspan>
   </text>
   <text transform="translate(31.6077,100.975) rotate(-0,18,-4)" font-weight="normal" font-style="normal" xml:space="preserve" font-size="10" font-family="FreeSans">
    <tspan x="0 6 12 " y="-0" fill="rgb(38,38,38)">250</tspan>
   </text>
   <text transform="translate(31.6077,64.3) rotate(-0,18,-4)" font-weight="normal" font-style="normal" xml:space="preserve" font-size="10" font-family="FreeSans">
    <tspan x="0 6 12 " y="-0" fill="rgb(38,38,38)">300</tspan>
   </text>
   <text transform="translate(31.6077,27.625) rotate(-0,18,-4)" font-weight="normal" font-style="normal" xml:space="preserve" font-size="10" font-family="FreeSans">
    <tspan x="0 6 12 " y="-0" fill="rgb(38,38,38)">350</tspan>
   </text>
   <polyline stroke-linecap="square" points="54.6001,280.35 380.1,280.35" stroke="#262626" stroke-width="0.5" fill="none" stroke-linejoin="miter" stroke-dasharray="16,0"/>
   <polyline stroke-linecap="square" points="54.6001,23.625 380.1,23.625" stroke="#262626" stroke-width="0.5" fill="none" stroke-linejoin="miter" stroke-dasharray="16,0"/>
   <polyline stroke-linecap="square" points="54.6001,280.35 54.6001,23.625" stroke="#262626" stroke-width="0.5" fill="none" stroke-linejoin="miter" stroke-dasharray="16,0"/>
   <polyline stroke-linecap="square" points="380.1,280.35 380.1,23.625" stroke="#262626" stroke-width="0.5" fill="none" stroke-linejoin="miter" stroke-dasharray="16,0"/>
   <text transform="translate(174.35,312.842) rotate(-0,43,-12)" font-weight="normal" font-style="normal" xml:space="preserve" font-size="11" font-family="FreeSans">
    <tspan x="0 7 10 14 20 22 28 " y="-3" fill="rgb(38,38,38)">Strain </tspan>
    <tspan x="31 " y="-3" fill="rgb(38,38,38)">ε</tspan>
    <tspan x="36 39 43 52 61 64 73 82 " y="-3" fill="rgb(38,38,38)"> (mm/mm)</tspan>
   </text>
   <text transform="translate(-9.89233,151.988) rotate(-90,36.5,0)" font-weight="normal" font-style="normal" xml:space="preserve" font-size="11" font-family="FreeSans">
    <tspan x="0 7 10 14 20 25 30 " y="-3" fill="rgb(38,38,38)">Stress </tspan>
    <tspan x="33 " y="-3" fill="rgb(38,38,38)">σ</tspan>
    <tspan x="40 43 47 56 63 69 " y="-3" fill="rgb(38,38,38)"> (MPa)</tspan>
   </text>
   <text transform="translate(161.35,13.625) rotate(-0,56,0)" font-weight="bold" font-style="normal" xml:space="preserve" font-size="11" font-family="FreeSans">
    <tspan x="0 7 11 17 23 29 35 38 45 48 55 61 67 71 74 82 88 95 98 105 " y="-3" fill="rgb(0,0,0)">St1594 Linear Region</tspan>
   </text>
   <polyline stroke-linecap="butt" points="54.6001,280.347 57.855,270.475 62.4121,259.531 66.9692,249.787 70.875,240.711 74.7812,232.2 79.3379,224.087 82.5928,216.49 86.499,209.279 89.7539,202.097 93.6602,195.121 97.5659,188.283 100.821,181.551 104.727,174.985 108.633,168.564 111.888,162.182 115.794,156.041 119.049,150.344 122.955,144.469 126.861,139.112 130.767,133.571 134.022,128.384 137.928,123.081 142.485,118.083 146.391,113.445 150.297,109.022 154.203,104.807 158.109,100.681 162.666,96.6699 167.223,92.8506 171.78,89.0688 176.337,85.4736 180.894,82.1055 186.102,78.771 191.31,75.6489 196.518,72.6157 202.377,69.7617 208.236,67.1113 214.095,64.5034 219.954,62.0864 226.464,59.75 232.974,57.4556 239.484,55.3887 246.645,53.2939 253.806,51.3418 261.618,49.541 269.43,47.7646 277.242,46.1875 285.705,44.6196 294.168,43.1992 303.282,41.8706 312.396,40.7012 321.51,39.4966" stroke="#0071bc" stroke-width="0.5" fill="none" stroke-linejoin="round"/>
   <polyline stroke-linecap="butt" points="184.8,280.35 188.055,274.499 192.612,266.306 197.169,258.114 201.075,251.092 204.981,244.07 209.538,235.878 212.793,230.027 216.699,223.005 219.954,217.153 223.86,210.131 227.766,203.109 231.021,197.258 234.927,190.236 238.833,183.214 242.088,177.363 245.994,170.341 249.249,164.489 253.155,157.467 257.061,150.446 260.967,143.424 264.222,137.572 268.128,130.55 272.685,122.358 276.591,115.336 280.497,108.314 284.403,101.292 288.309,94.2705 292.866,86.0786 297.423,77.8862 301.98,69.6943 306.537,61.502 311.094,53.3101" stroke="#d85218" stroke-width="0.5" fill="none" stroke-linejoin="round"/>
   <polyline stroke-linecap="square" points="315.561,39.8862 321.561,39.8862" stroke="#000000" stroke-width="0.5" fill="none" stroke-linejoin="miter"/>
   <polyline stroke-linecap="square" points="318.561,36.8862 318.561,42.8862" stroke="#000000" stroke-width="0.5" fill="none" stroke-linejoin="miter"/>
   <polyline stroke-linecap="square" points="316.44,37.7651 320.683,42.0078" stroke="#000000" stroke-width="0.5" fill="none" stroke-linejoin="miter"/>
   <polyline stroke-linecap="square" points="316.44,42.0078 320.683,37.7651" stroke="#000000" stroke-width="0.5" fill="none" stroke-linejoin="miter"/>
   <text transform="translate(318.561,43.8863) rotate(-0,-0,-4)" font-weight="normal" font-style="normal" xml:space="preserve" font-size="10" font-family="FreeSans">
    <tspan x="0 6 12 18 21 " y="-0" fill="rgb(0,0,0)">327.8</tspan>
   </text>
  </g>
 </g>
</svg>
