<?xml version='1.0' encoding='UTF-8' standalone='no'?>
<svg xmlns="http://www.w3.org/2000/svg" xmlns:xlink="http://www.w3.org/1999/xlink" width="418pt" height="314pt" viewBox="0 0 418 314">
 <title>gl2ps_renderer figure</title>
 <desc>
Creator: GL2PS 1.4.2, (C) 1999-2020 C. Geuzaine
For: Octave
CreationDate: Sun Jan  8 04:07:41 2023
</desc>
 <defs/>
 <polygon points="0,0 418,0 418,314 0,314" fill="#ffffff"/>
 <g>
  <polygon points="0,314 418,314 418,0 0,0" fill="#ffffff" shape-rendering="crispEdges"/>
  <clipPath id="cp00418314">
   <polygon points="0,314 418,314 418,0 0,0"/>
  </clipPath>
  <g clip-path="url(#cp00418314)">
   <polygon points="54.3398,279.46 378.29,279.46 378.29,23.5498 54.3398,23.5498" fill="#ffffff" shape-rendering="crispEdges"/>
   <polyline stroke-width="0.5" stroke="#191919" points="70.5376,279.46 70.5376,23.5498" fill="none" stroke-opacity="0.25" stroke-dasharray="1,3,1,3,1,3,1,3" stroke-linejoin="miter" stroke-linecap="butt"/>
   <polyline stroke-width="0.5" stroke="#191919" points="86.7349,279.46 86.7349,23.5498" fill="none" stroke-opacity="0.25" stroke-dasharray="1,3,1,3,1,3,1,3" stroke-linejoin="miter" stroke-linecap="butt"/>
   <polyline stroke-width="0.5" stroke="#191919" points="102.933,279.46 102.933,23.5498" fill="none" stroke-opacity="0.25" stroke-dasharray="1,3,1,3,1,3,1,3" stroke-linejoin="miter" stroke-linecap="butt"/>
   <polyline stroke-width="0.5" stroke="#191919" points="119.13,279.46 119.13,23.5498" fill="none" stroke-opacity="0.25" stroke-dasharray="1,3,1,3,1,3,1,3" stroke-linejoin="miter" stroke-linecap="butt"/>
   <polyline stroke-width="0.5" stroke="#191919" points="151.525,279.46 151.525,23.5498" fill="none" stroke-opacity="0.25" stroke-dasharray="1,3,1,3,1,3,1,3" stroke-linejoin="miter" stroke-linecap="butt"/>
   <polyline stroke-width="0.5" stroke="#191919" points="167.723,279.46 167.723,23.5498" fill="none" stroke-opacity="0.25" stroke-dasharray="1,3,1,3,1,3,1,3" stroke-linejoin="miter" stroke-linecap="butt"/>
   <polyline stroke-width="0.5" stroke="#191919" points="183.92,279.46 183.92,23.5498" fill="none" stroke-opacity="0.25" stroke-dasharray="1,3,1,3,1,3,1,3" stroke-linejoin="miter" stroke-linecap="butt"/>
   <polyline stroke-width="0.5" stroke="#191919" points="200.118,279.46 200.118,23.5498" fill="none" stroke-opacity="0.25" stroke-dasharray="1,3,1,3,1,3,1,3" stroke-linejoin="miter" stroke-linecap="butt"/>
   <polyline stroke-width="0.5" stroke="#191919" points="232.513,279.46 232.513,23.5498" fill="none" stroke-opacity="0.25" stroke-dasharray="1,3,1,3,1,3,1,3" stroke-linejoin="miter" stroke-linecap="butt"/>
   <polyline stroke-width="0.5" stroke="#191919" points="248.71,279.46 248.71,23.5498" fill="none" stroke-opacity="0.25" stroke-dasharray="1,3,1,3,1,3,1,3" stroke-linejoin="miter" stroke-linecap="butt"/>
   <polyline stroke-width="0.5" stroke="#191919" points="264.908,279.46 264.908,23.5498" fill="none" stroke-opacity="0.25" stroke-dasharray="1,3,1,3,1,3,1,3" stroke-linejoin="miter" stroke-linecap="butt"/>
   <polyline stroke-width="0.5" stroke="#191919" points="281.105,279.46 281.105,23.5498" fill="none" stroke-opacity="0.25" stroke-dasharray="1,3,1,3,1,3,1,3" stroke-linejoin="miter" stroke-linecap="butt"/>
   <polyline stroke-width="0.5" stroke="#191919" points="313.5,279.46 313.5,23.5498" fill="none" stroke-opacity="0.25" stroke-dasharray="1,3,1,3,1,3,1,3" stroke-linejoin="miter" stroke-linecap="butt"/>
   <polyline stroke-width="0.5" stroke="#191919" points="329.697,279.46 329.697,23.5498" fill="none" stroke-opacity="0.25" stroke-dasharray="1,3,1,3,1,3,1,3" stroke-linejoin="miter" stroke-linecap="butt"/>
   <polyline stroke-width="0.5" stroke="#191919" points="345.895,279.46 345.895,23.5498" fill="none" stroke-opacity="0.25" stroke-dasharray="1,3,1,3,1,3,1,3" stroke-linejoin="miter" stroke-linecap="butt"/>
   <polyline stroke-width="0.5" stroke="#191919" points="362.092,279.46 362.092,23.5498" fill="none" stroke-opacity="0.25" stroke-dasharray="1,3,1,3,1,3,1,3" stroke-linejoin="miter" stroke-linecap="butt"/>
   <polyline stroke-width="0.5" stroke="#262626" points="54.3398,279.46 54.3398,23.5498" fill="none" stroke-opacity="0.15" stroke-dasharray="16,0" stroke-linejoin="miter" stroke-linecap="butt"/>
   <polyline stroke-width="0.5" stroke="#262626" points="135.328,279.46 135.328,23.5498" fill="none" stroke-opacity="0.15" stroke-dasharray="16,0" stroke-linejoin="miter" stroke-linecap="butt"/>
   <polyline stroke-width="0.5" stroke="#262626" points="216.315,279.46 216.315,23.5498" fill="none" stroke-opacity="0.15" stroke-dasharray="16,0" stroke-linejoin="miter" stroke-linecap="butt"/>
   <polyline stroke-width="0.5" stroke="#262626" points="297.303,279.46 297.303,23.5498" fill="none" stroke-opacity="0.15" stroke-dasharray="16,0" stroke-linejoin="miter" stroke-linecap="butt"/>
   <polyline stroke-width="0.5" stroke="#262626" points="378.29,279.46 378.29,23.5498" fill="none" stroke-opacity="0.15" stroke-dasharray="16,0" stroke-linejoin="miter" stroke-linecap="butt"/>
   <polyline stroke-width="0.5" stroke="#262626" points="54.3398,279.46 54.3398,276.222" fill="none" stroke-linejoin="miter" stroke-linecap="butt"/>
   <polyline stroke-width="0.5" stroke="#262626" points="54.3398,23.5498 54.3398,26.7886" fill="none" stroke-linejoin="miter" stroke-linecap="butt"/>
   <polyline stroke-width="0.5" stroke="#262626" points="135.328,279.46 135.328,276.222" fill="none" stroke-linejoin="miter" stroke-linecap="butt"/>
   <polyline stroke-width="0.5" stroke="#262626" points="135.328,23.5498 135.328,26.7886" fill="none" stroke-linejoin="miter" stroke-linecap="butt"/>
   <polyline stroke-width="0.5" stroke="#262626" points="216.315,279.46 216.315,276.222" fill="none" stroke-linejoin="miter" stroke-linecap="butt"/>
   <polyline stroke-width="0.5" stroke="#262626" points="216.315,23.5498 216.315,26.7886" fill="none" stroke-linejoin="miter" stroke-linecap="butt"/>
   <polyline stroke-width="0.5" stroke="#262626" points="297.303,279.46 297.303,276.222" fill="none" stroke-linejoin="miter" stroke-linecap="butt"/>
   <polyline stroke-width="0.5" stroke="#262626" points="297.303,23.5498 297.303,26.7886" fill="none" stroke-linejoin="miter" stroke-linecap="butt"/>
   <polyline stroke-width="0.5" stroke="#262626" points="378.29,279.46 378.29,276.222" fill="none" stroke-linejoin="miter" stroke-linecap="butt"/>
   <polyline stroke-width="0.5" stroke="#262626" points="378.29,23.5498 378.29,26.7886" fill="none" stroke-linejoin="miter" stroke-linecap="butt"/>
   <text font-family="FreeSans" font-size="10" transform="translate(51.34,294.957) rotate(-0,3,-8)" font-weight="normal" font-style="normal" xml:space="preserve">
    <tspan x="0 " y="-0" fill="rgb(38,38,38)">0</tspan>
   </text>
   <text font-family="FreeSans" font-size="10" transform="translate(127.828,294.957) rotate(-0,7.5,-8)" font-weight="normal" font-style="normal" xml:space="preserve">
    <tspan x="0 6 9 " y="-0" fill="rgb(38,38,38)">0.1</tspan>
   </text>
   <text font-family="FreeSans" font-size="10" transform="translate(208.815,294.957) rotate(-0,7.5,-8)" font-weight="normal" font-style="normal" xml:space="preserve">
    <tspan x="0 6 9 " y="-0" fill="rgb(38,38,38)">0.2</tspan>
   </text>
   <text font-family="FreeSans" font-size="10" transform="translate(289.803,294.957) rotate(-0,7.5,-8)" font-weight="normal" font-style="normal" xml:space="preserve">
    <tspan x="0 6 9 " y="-0" fill="rgb(38,38,38)">0.3</tspan>
   </text>
   <text font-family="FreeSans" font-size="10" transform="translate(370.79,294.957) rotate(-0,7.5,-8)" font-weight="normal" font-style="normal" xml:space="preserve">
    <tspan x="0 6 9 " y="-0" fill="rgb(38,38,38)">0.4</tspan>
   </text>
   <polyline stroke-width="0.5" stroke="#191919" points="54.3398,269.224 378.29,269.224" fill="none" stroke-opacity="0.25" stroke-dasharray="1,3,1,3,1,3,1,3" stroke-linejoin="miter" stroke-linecap="butt"/>
   <polyline stroke-width="0.5" stroke="#191919" points="54.3398,258.987 378.29,258.987" fill="none" stroke-opacity="0.25" stroke-dasharray="1,3,1,3,1,3,1,3" stroke-linejoin="miter" stroke-linecap="butt"/>
   <polyline stroke-width="0.5" stroke="#191919" points="54.3398,248.751 378.29,248.751" fill="none" stroke-opacity="0.25" stroke-dasharray="1,3,1,3,1,3,1,3" stroke-linejoin="miter" stroke-linecap="butt"/>
   <polyline stroke-width="0.5" stroke="#191919" points="54.3398,238.514 378.29,238.514" fill="none" stroke-opacity="0.25" stroke-dasharray="1,3,1,3,1,3,1,3" stroke-linejoin="miter" stroke-linecap="butt"/>
   <polyline stroke-width="0.5" stroke="#191919" points="54.3398,218.042 378.29,218.042" fill="none" stroke-opacity="0.25" stroke-dasharray="1,3,1,3,1,3,1,3" stroke-linejoin="miter" stroke-linecap="butt"/>
   <polyline stroke-width="0.5" stroke="#191919" points="54.3398,207.805 378.29,207.805" fill="none" stroke-opacity="0.25" stroke-dasharray="1,3,1,3,1,3,1,3" stroke-linejoin="miter" stroke-linecap="butt"/>
   <polyline stroke-width="0.5" stroke="#191919" points="54.3398,197.569 378.29,197.569" fill="none" stroke-opacity="0.25" stroke-dasharray="1,3,1,3,1,3,1,3" stroke-linejoin="miter" stroke-linecap="butt"/>
   <polyline stroke-width="0.5" stroke="#191919" points="54.3398,187.333 378.29,187.333" fill="none" stroke-opacity="0.25" stroke-dasharray="1,3,1,3,1,3,1,3" stroke-linejoin="miter" stroke-linecap="butt"/>
   <polyline stroke-width="0.5" stroke="#191919" points="54.3398,166.859 378.29,166.859" fill="none" stroke-opacity="0.25" stroke-dasharray="1,3,1,3,1,3,1,3" stroke-linejoin="miter" stroke-linecap="butt"/>
   <polyline stroke-width="0.5" stroke="#191919" points="54.3398,156.623 378.29,156.623" fill="none" stroke-opacity="0.25" stroke-dasharray="1,3,1,3,1,3,1,3" stroke-linejoin="miter" stroke-linecap="butt"/>
   <polyline stroke-width="0.5" stroke="#191919" points="54.3398,146.387 378.29,146.387" fill="none" stroke-opacity="0.25" stroke-dasharray="1,3,1,3,1,3,1,3" stroke-linejoin="miter" stroke-linecap="butt"/>
   <polyline stroke-width="0.5" stroke="#191919" points="54.3398,136.15 378.29,136.15" fill="none" stroke-opacity="0.25" stroke-dasharray="1,3,1,3,1,3,1,3" stroke-linejoin="miter" stroke-linecap="butt"/>
   <polyline stroke-width="0.5" stroke="#191919" points="54.3398,115.678 378.29,115.678" fill="none" stroke-opacity="0.25" stroke-dasharray="1,3,1,3,1,3,1,3" stroke-linejoin="miter" stroke-linecap="butt"/>
   <polyline stroke-width="0.5" stroke="#191919" points="54.3398,105.441 378.29,105.441" fill="none" stroke-opacity="0.25" stroke-dasharray="1,3,1,3,1,3,1,3" stroke-linejoin="miter" stroke-linecap="butt"/>
   <polyline stroke-width="0.5" stroke="#191919" points="54.3398,95.2046 378.29,95.2046" fill="none" stroke-opacity="0.25" stroke-dasharray="1,3,1,3,1,3,1,3" stroke-linejoin="miter" stroke-linecap="butt"/>
   <polyline stroke-width="0.5" stroke="#191919" points="54.3398,84.9683 378.29,84.9683" fill="none" stroke-opacity="0.25" stroke-dasharray="1,3,1,3,1,3,1,3" stroke-linejoin="miter" stroke-linecap="butt"/>
   <polyline stroke-width="0.5" stroke="#191919" points="54.3398,64.4956 378.29,64.4956" fill="none" stroke-opacity="0.25" stroke-dasharray="1,3,1,3,1,3,1,3" stroke-linejoin="miter" stroke-linecap="butt"/>
   <polyline stroke-width="0.5" stroke="#191919" points="54.3398,54.2593 378.29,54.2593" fill="none" stroke-opacity="0.25" stroke-dasharray="1,3,1,3,1,3,1,3" stroke-linejoin="miter" stroke-linecap="butt"/>
   <polyline stroke-width="0.5" stroke="#191919" points="54.3398,44.0229 378.29,44.0229" fill="none" stroke-opacity="0.25" stroke-dasharray="1,3,1,3,1,3,1,3" stroke-linejoin="miter" stroke-linecap="butt"/>
   <polyline stroke-width="0.5" stroke="#191919" points="54.3398,33.7866 378.29,33.7866" fill="none" stroke-opacity="0.25" stroke-dasharray="1,3,1,3,1,3,1,3" stroke-linejoin="miter" stroke-linecap="butt"/>
   <polyline stroke-width="0.5" stroke="#262626" points="54.3398,279.46 378.29,279.46" fill="none" stroke-opacity="0.15" stroke-dasharray="16,0" stroke-linejoin="miter" stroke-linecap="butt"/>
   <polyline stroke-width="0.5" stroke="#262626" points="54.3398,228.278 378.29,228.278" fill="none" stroke-opacity="0.15" stroke-dasharray="16,0" stroke-linejoin="miter" stroke-linecap="butt"/>
   <polyline stroke-width="0.5" stroke="#262626" points="54.3398,177.096 378.29,177.096" fill="none" stroke-opacity="0.15" stroke-dasharray="16,0" stroke-linejoin="miter" stroke-linecap="butt"/>
   <polyline stroke-width="0.5" stroke="#262626" points="54.3398,125.914 378.29,125.914" fill="none" stroke-opacity="0.15" stroke-dasharray="16,0" stroke-linejoin="miter" stroke-linecap="butt"/>
   <polyline stroke-width="0.5" stroke="#262626" points="54.3398,74.7319 378.29,74.7319" fill="none" stroke-opacity="0.15" stroke-dasharray="16,0" stroke-linejoin="miter" stroke-linecap="butt"/>
   <polyline stroke-width="0.5" stroke="#262626" points="54.3398,23.5498 378.29,23.5498" fill="none" stroke-opacity="0.15" stroke-dasharray="16,0" stroke-linejoin="miter" stroke-linecap="butt"/>
   <polyline stroke-width="0.5" stroke="#262626" points="54.3398,279.46 57.5791,279.46" fill="none" stroke-linejoin="miter" stroke-linecap="butt"/>
   <polyline stroke-width="0.5" stroke="#262626" points="378.29,279.46 375.051,279.46" fill="none" stroke-linejoin="miter" stroke-linecap="butt"/>
   <polyline stroke-width="0.5" stroke="#262626" points="54.3398,228.278 57.5791,228.278" fill="none" stroke-linejoin="miter" stroke-linecap="butt"/>
   <polyline stroke-width="0.5" stroke="#262626" points="378.29,228.278 375.051,228.278" fill="none" stroke-linejoin="miter" stroke-linecap="butt"/>
   <polyline stroke-width="0.5" stroke="#262626" points="54.3398,177.096 57.5791,177.096" fill="none" stroke-linejoin="miter" stroke-linecap="butt"/>
   <polyline stroke-width="0.5" stroke="#262626" points="378.29,177.096 375.051,177.096" fill="none" stroke-linejoin="miter" stroke-linecap="butt"/>
   <polyline stroke-width="0.5" stroke="#262626" points="54.3398,125.914 57.5791,125.914" fill="none" stroke-linejoin="miter" stroke-linecap="butt"/>
   <polyline stroke-width="0.5" stroke="#262626" points="378.29,125.914 375.051,125.914" fill="none" stroke-linejoin="miter" stroke-linecap="butt"/>
   <polyline stroke-width="0.5" stroke="#262626" points="54.3398,74.7319 57.5791,74.7319" fill="none" stroke-linejoin="miter" stroke-linecap="butt"/>
   <polyline stroke-width="0.5" stroke="#262626" points="378.29,74.7319 375.051,74.7319" fill="none" stroke-linejoin="miter" stroke-linecap="butt"/>
   <polyline stroke-width="0.5" stroke="#262626" points="54.3398,23.5498 57.5791,23.5498" fill="none" stroke-linejoin="miter" stroke-linecap="butt"/>
   <polyline stroke-width="0.5" stroke="#262626" points="378.29,23.5498 375.051,23.5498" fill="none" stroke-linejoin="miter" stroke-linecap="butt"/>
   <text font-family="FreeSans" font-size="10" transform="translate(43.3408,283.46) rotate(-0,6,-4)" font-weight="normal" font-style="normal" xml:space="preserve">
    <tspan x="0 " y="-0" fill="rgb(38,38,38)">0</tspan>
   </text>
   <text font-family="FreeSans" font-size="10" transform="translate(31.3408,232.278) rotate(-0,18,-4)" font-weight="normal" font-style="normal" xml:space="preserve">
    <tspan x="0 6 12 " y="-0" fill="rgb(38,38,38)">100</tspan>
   </text>
   <text font-family="FreeSans" font-size="10" transform="translate(31.3408,181.096) rotate(-0,18,-4)" font-weight="normal" font-style="normal" xml:space="preserve">
    <tspan x="0 6 12 " y="-0" fill="rgb(38,38,38)">200</tspan>
   </text>
   <text font-family="FreeSans" font-size="10" transform="translate(31.3408,129.914) rotate(-0,18,-4)" font-weight="normal" font-style="normal" xml:space="preserve">
    <tspan x="0 6 12 " y="-0" fill="rgb(38,38,38)">300</tspan>
   </text>
   <text font-family="FreeSans" font-size="10" transform="translate(31.3408,78.732) rotate(-0,18,-4)" font-weight="normal" font-style="normal" xml:space="preserve">
    <tspan x="0 6 12 " y="-0" fill="rgb(38,38,38)">400</tspan>
   </text>
   <text font-family="FreeSans" font-size="10" transform="translate(31.3408,27.55) rotate(-0,18,-4)" font-weight="normal" font-style="normal" xml:space="preserve">
    <tspan x="0 6 12 " y="-0" fill="rgb(38,38,38)">500</tspan>
   </text>
   <polyline stroke-width="0.5" stroke="#262626" points="54.3398,279.46 378.29,279.46" fill="none" stroke-dasharray="16,0" stroke-linejoin="miter" stroke-linecap="square"/>
   <polyline stroke-width="0.5" stroke="#262626" points="54.3398,23.5498 378.29,23.5498" fill="none" stroke-dasharray="16,0" stroke-linejoin="miter" stroke-linecap="square"/>
   <polyline stroke-width="0.5" stroke="#262626" points="54.3398,279.46 54.3398,23.5498" fill="none" stroke-dasharray="16,0" stroke-linejoin="miter" stroke-linecap="square"/>
   <polyline stroke-width="0.5" stroke="#262626" points="378.29,279.46 378.29,23.5498" fill="none" stroke-dasharray="16,0" stroke-linejoin="miter" stroke-linecap="square"/>
   <text font-family="FreeSans" font-size="11" transform="translate(198.815,13.55) rotate(-0,17.5,0)" font-weight="bold" font-style="normal" xml:space="preserve">
    <tspan x="0 7 11 17 23 29 " y="-0" fill="rgb(0,0,0)">St1594</tspan>
   </text>
   <text font-family="FreeSans" font-size="11" transform="translate(-10.1592,151.505) rotate(-90,36.5,0)" font-weight="normal" font-style="normal" xml:space="preserve">
    <tspan x="0 7 10 14 20 25 30 " y="-3" fill="rgb(38,38,38)">Stress </tspan>
    <tspan x="33 " y="-3" fill="rgb(38,38,38)">σ</tspan>
    <tspan x="40 43 47 56 63 69 " y="-3" fill="rgb(38,38,38)"> (MPa)</tspan>
   </text>
   <text font-family="FreeSans" font-size="11" transform="translate(173.315,311.957) rotate(-0,43,-12)" font-weight="normal" font-style="normal" xml:space="preserve">
    <tspan x="0 7 10 14 20 22 28 " y="-3" fill="rgb(38,38,38)">Strain </tspan>
    <tspan x="31 " y="-3" fill="rgb(38,38,38)">ε</tspan>
    <tspan x="36 39 43 52 61 64 73 82 " y="-3" fill="rgb(38,38,38)"> (mm/mm)</tspan>
   </text>
   <polyline stroke-width="0.5" stroke="#0071bc" points="54.3398,279.458 54.3804,272.569 54.437,264.933 54.4937,258.133 54.5425,251.801 54.5908,245.862 54.6479,240.201 54.6885,234.9 54.7368,229.869 54.7773,224.857 54.8262,219.989 54.8745,215.218 54.915,210.521 54.9634,205.939 55.0122,201.458 55.0527,197.005 55.1011,192.72 55.1416,188.745 55.1904,184.646 55.2388,180.907 55.2876,177.041 55.3281,173.422 55.3765,169.721 55.4331,166.234 55.4819,162.997 55.5303,159.911 55.5791,156.97 55.6279,154.091 55.6846,151.292 55.7412,148.627 55.7979,145.988 55.8545,143.479 55.9111,141.129 55.9761,138.803 56.0405,136.625 56.1055,134.507 56.1782,132.516 56.2515,130.667 56.3242,128.847 56.397,127.161 56.478,125.53 56.5591,123.929 56.6401,122.487 56.729,121.025 56.8184,119.663 56.9155,118.407 57.0127,117.167 57.1099,116.066 57.2148,114.973 57.3203,113.981 57.4336,113.054 57.5469,112.238 57.6606,111.398 57.79,110.693 57.9194,109.924 58.0493,109.311 58.1948,108.795 58.3408,108.322 58.4863,107.944 58.6323,107.576 58.7861,107.279 58.9321,107.002 59.0859,106.713 59.2397,106.449 59.3857,106.193 59.5312,105.903 59.6851,105.647 59.8311,105.336 59.936,105.988 60.0737,104.995 60.2114,104.555 60.333,105.512 60.4546,104.211 60.5923,103.773 60.73,103.456 60.8677,103.125 61.0054,102.833 61.1509,102.489 61.2886,102.14 61.4263,101.835 61.564,101.479 61.7017,101.129 61.8394,100.809 61.9609,101.408 62.0825,100.316 62.2202,99.8525 62.3496,99.5283 62.4629,99.8564 62.5845,98.9541 62.7222,98.564 62.8599,98.2104 62.9976,97.8745 63.1353,97.5269 63.2729,97.2168 63.4106,96.8472 63.5483,96.5322 63.686,96.1621 63.8237,95.853 63.9614,95.7412 64.0664,95.4609 64.2041,94.9663 64.334,94.5732 64.4717,94.2651 64.5767,94.3657 64.7065,93.7339 64.8442,93.3594 64.9819,93.0381 65.1196,92.7065 65.2573,92.4243 65.395,92.0781 65.5322,91.7627 65.6782,91.4473 65.8076,91.1191 65.9536,90.8311 66.0913,90.4805 66.2046,91.2847 66.3262,90.1509 66.4639,89.6914 66.6016,89.3901 66.7393,89.0664 66.8525,89.5913 66.9819,88.623 67.1118,88.2764 67.2495,87.9731 67.3872,87.6738 67.5249,87.3872 67.6626,87.1099 67.8003,86.8003 67.938,86.5166 68.0835,86.2373 68.2134,85.9287 68.3511,85.6812 68.4883,85.3662 68.626,85.1182 68.7637,84.8203 68.8774,85.3901 68.9985,84.4414 69.1362,84.103 69.2739,83.8052 69.4116,83.543 69.5254,84.2881 69.6465,83.1929 69.7764,82.8086 69.9141,82.4858 70.0518,82.2915 70.1895,82.0044 70.3271,81.748 70.4648,81.5171 70.6021,81.2148 70.748,80.9736 70.8857,80.7036 71.0234,80.4644 71.1611,80.2104 71.2988,79.9517 71.4365,79.7026 71.5659,79.4771 71.7036,79.1812 71.8413,78.9634 71.9546,79.3208 72.0762,78.5903 72.2139,78.2944 72.3516,78.0156 72.4893,77.8188 72.627,77.5669 72.7241,77.7261 72.8535,77.1758 72.9912,76.9121 73.1289,76.6743 73.2666,76.4531 73.4043,76.207 73.542,75.998 73.6797,75.7524 73.8174,75.48 73.9551,75.3042 74.0928,75.0581 74.2305,74.8296 74.3682,74.6172 74.5059,74.376 74.6436,74.1675 74.7812,73.9316 74.9189,73.7236 75.0566,73.4888 75.1943,73.2603 75.332,73.0591 75.4697,72.8516 75.6074,72.5928 75.7451,72.4082 75.8584,73.4785 75.98,72.2485 76.1094,71.855 76.2471,71.5908 76.3848,71.4048 76.5225,71.1807 76.6279,71.708 76.749,70.8979 76.8867,70.6221 77.0244,70.4136 77.1621,70.2129 77.2998,70.0112 77.4375,69.835 77.5752,69.6089 77.7129,69.397 77.8506,69.2275 77.9883,68.9932 78.1343,68.8242 78.272,68.6084 78.4097,68.418 78.5474,68.2144 78.6851,68.0303 78.8306,67.8325 78.9683,67.6406 79.106,67.4336 79.2437,67.2646 79.3813,67.0625 79.519,66.8599 79.6567,66.7012 79.8022,66.4829 79.9399,66.314 80.0776,66.1138 80.2153,65.9185 80.353,65.7705 80.4907,65.5674 80.6284,65.395 80.7661,65.1958 80.9038,65.0098 81.0415,64.8281 81.1792,64.6338 81.3169,64.4751 81.4629,64.3169 81.5601,64.8135 81.6812,64.1079 81.8188,63.8413 81.9565,63.627 82.0942,63.4746 82.2402,63.2822 82.3213,63.9277 82.4507,63.1299 82.5884,62.8354 82.7261,62.6821 82.8638,62.502 83.0015,62.3213 83.1392,62.1934 83.2769,62.0088 83.4146,61.8369 83.5522,61.6904 83.6978,61.5107 83.8354,61.3584 83.9731,61.1709 84.1108,61.0005 84.2485,60.8711 84.3945,60.7183 84.5322,60.5361 84.6699,60.3779 84.8076,60.2109 84.9453,60.0723 85.083,59.8701 85.2207,59.7441 85.3662,59.6069 85.5039,59.3994 85.6416,59.2949 85.7793,59.1104 85.917,58.958 86.063,58.813 86.2007,58.6421 86.3384,58.5142 86.4761,58.3403 86.6133,58.1973 86.7754,58.0479 87.043,57.8857 87.3179,57.7256 87.5854,57.6216 87.8525,57.4248 88.1279,57.3149 88.395,57.1519 88.6626,57.0146 88.9297,56.8804 89.2051,57.6665 89.4722,56.7505 89.7476,56.457 90.0151,56.3228 90.2822,56.1714 90.5493,56.9863 90.8247,56.106 91.0923,55.8203 91.3677,55.6313 91.6348,55.5225 91.9019,55.3979 92.1694,55.23 92.4448,55.1445 92.7119,54.9551 92.979,54.8428 93.2544,54.71 93.522,54.5903 93.7969,54.4639 94.0645,54.3145 94.3315,54.1743 94.5991,54.0605 94.874,53.9121 95.1416,53.7949 95.417,53.6504 95.6841,53.5093 95.9512,53.397 96.2266,53.2378 96.4941,53.1572 96.7612,53.0049 97.0283,52.8691 97.3037,52.7646 97.5713,52.6055 97.8384,52.4839 98.1138,52.3481 98.3809,52.25 98.6562,52.1279 98.9238,52.0039 99.1909,51.8647 99.458,51.7646 99.7334,51.6182 100.001,51.4902 100.276,51.3882 100.543,51.2432 100.811,51.1382 101.086,51.0049 101.353,50.8994 101.621,50.7632 101.896,50.6382 102.163,50.5288 102.43,50.4277 102.698,50.2861 102.973,50.1772 103.24,50.062 103.507,49.936 103.783,49.8301 104.05,50.5981 104.317,49.7793 104.593,49.5176 104.86,49.3955 105.135,49.2905 105.403,49.1611 105.67,49.0669 105.945,48.9277 106.212,48.8472 106.48,48.731 106.755,48.6201 107.022,48.5073 107.29,48.4365 107.565,48.2861 107.832,48.188 108.1,48.0713 108.367,47.9644 108.642,47.8765 108.909,47.7339 109.177,47.6548 109.452,47.522 109.719,47.4253 109.995,47.3145 110.262,48.6313 110.529,47.4263 110.805,47.0859 111.072,46.9238 111.339,46.8315 111.606,46.7383 111.882,46.5928 112.149,46.5513 112.424,46.4258 112.691,46.3467 112.959,46.2437 113.234,46.1113 113.501,46.0425 113.769,45.9229 114.044,45.8413 114.311,45.7358 114.579,45.6265 114.854,45.5449 115.121,45.4507 115.388,45.3252 115.656,45.2578 115.931,45.144 116.198,45.0581 116.465,44.9751 116.741,44.8418 117.008,44.7852 117.275,44.6582 117.551,44.563 117.818,44.4702 118.093,44.394 118.361,44.2886 118.628,44.2163 118.903,44.1069 119.17,44.0332 119.438,43.9316 119.705,43.7998 119.98,43.7686 120.248,43.6328 120.523,43.5576 120.79,43.478 121.058,43.3652 121.333,43.2959 121.6,43.1968 121.867,43.1074 122.143,43.022 122.41,42.918 122.677,42.8545 122.944,42.7744 123.22,42.6479 123.487,42.5981 123.754,42.4937 124.03,42.4077 124.297,42.3379 124.572,42.2212 124.84,42.1807 125.107,42.0742 125.374,41.9946 125.649,42.7427 125.917,41.9517 126.184,41.7402 126.459,41.6538 126.727,41.5801 126.994,41.5137 127.269,41.4277 127.537,41.3467 127.804,41.2856 128.079,41.1646 128.346,41.1001 128.622,41.0269 128.889,40.9429 129.156,40.8564 129.432,40.793 129.699,40.7158 129.966,40.6313 130.242,40.5337 130.509,40.4858 130.776,40.3936 131.043,40.3179 131.319,40.2471 131.586,40.1465 131.853,40.0894 132.128,39.9888 132.396,39.9199 132.671,39.8677 132.938,39.7964 133.206,39.7163 133.473,39.6328 133.748,39.5493 134.016,39.4834 134.291,39.3779 134.558,39.3369 134.825,39.2676 135.101,39.1636 135.368,39.1406 135.635,39.0327 135.902,38.9619 136.178,38.897 136.445,38.8159 136.712,38.7593 136.988,38.6606 137.255,38.6079 137.522,38.541 137.798,38.4634 138.065,38.3818 138.34,38.3276 138.607,38.2388 138.875,38.2021 139.15,38.1123 139.417,38.0352 139.685,37.9795 139.96,37.873 140.227,37.8413 140.495,37.7749 140.77,37.7158 141.037,37.6382 141.304,37.583 141.572,37.5029 141.847,37.4473 142.114,37.3501 142.381,37.3076 142.657,37.2515 142.924,37.1353 143.191,37.146 143.467,37.0151 143.734,36.9663 144.009,36.9312 144.277,36.8394 144.544,36.8071 144.811,36.7144 145.086,36.6387 145.354,36.6064 145.621,36.5317 145.896,36.4556 146.164,36.4194 146.439,36.3159 146.706,36.2954 146.981,36.207 147.241,36.1836 147.516,36.1191 147.783,36.0132 148.051,35.979 148.326,35.9121 148.593,35.8438 148.869,35.7881 149.136,35.9707 149.403,36.5151 149.679,35.813 149.946,35.5571 150.213,35.5127 150.48,35.4473 150.756,35.3716 151.023,35.3618 151.298,35.2651 151.565,35.2339 151.833,35.1719 152.1,35.1182 152.375,35.0693 152.643,35.0142 152.918,34.9336 153.185,34.9121 153.453,34.8433 153.72,34.7812 153.995,34.7393 154.262,34.6621 154.53,34.627 154.805,34.5415 155.072,34.5371 155.348,34.4795 155.615,34.4009 155.882,34.373 156.149,34.3037 156.425,34.2378 156.692,34.1694 156.959,34.1655 157.234,34.0859 157.502,34.0439 157.777,33.9873 158.044,33.9502 158.312,33.8896 158.579,33.8169 158.854,33.7949 159.122,33.7085 159.389,33.6943 159.664,33.6147 159.932,33.5811 160.199,33.5249 160.474,33.4692 160.741,33.4126 161.017,33.3984 161.284,33.3306 161.551,33.2798 161.827,33.2251 162.094,33.1694 162.361,33.1318 162.637,33.0376 162.904,33.0601 163.171,32.9858 163.438,32.9434 163.713,32.9062 163.981,32.833 164.248,32.8071 164.523,32.7363 164.791,32.7051 165.058,32.6606 165.333,32.6035 165.601,32.5693 165.868,32.5361 166.143,32.4541 166.411,32.4414 166.686,32.3843 166.953,32.3242 167.22,32.2998 167.496,32.2222 167.763,32.2217 168.03,32.1479 168.297,32.104 168.573,32.0464 168.84,32.0298 169.116,31.9712 169.383,31.9443 169.65,31.8848 169.917,31.8574 170.192,31.791 170.46,31.729 170.727,31.7383 171.002,31.6777 171.27,31.6372 171.545,31.606 171.812,31.54 172.08,31.5244 172.347,31.4741 172.622,31.4316 172.89,31.3872 173.165,31.3325 173.432,31.3047 173.699,31.2827 173.975,31.2012 174.242,31.2012 174.509,31.1289 174.785,31.1064 175.052,31.0684 175.319,31.0068 175.586,31.0176 175.862,30.9482 176.129,30.9048 176.404,30.8555 176.671,30.8325 176.939,30.7744 177.214,30.7554 177.481,30.7139 177.749,30.6948 178.024,30.6445 178.292,30.5933 178.559,30.5796 178.826,30.5029 179.101,30.4951 179.369,30.4521 179.636,30.4087 179.911,30.3735 180.178,30.3452 180.454,30.3071 180.721,30.2686 180.988,30.2178 181.264,30.2046 181.531,30.167 181.798,30.1084 182.065,30.1094 182.341,30.0322 182.608,30.0229 182.883,29.9805 183.15,29.9331 183.418,29.9351 183.685,29.8892 183.96,29.8516 184.228,29.8076 184.495,29.7803 184.771,29.7427 185.038,29.6934 185.305,29.6743 185.58,29.6582 185.848,29.6011 186.115,29.5918 186.39,29.5503 186.657,29.5015 186.925,29.4819 187.2,29.4385 187.467,29.4253 187.734,29.3779 188.01,29.3525 188.277,29.3223 188.552,29.2925 188.82,29.2549 189.087,29.2217 189.362,29.2017 189.629,29.1646 189.897,29.1338 190.164,29.0996 190.439,29.0601 190.707,29.0171 190.974,29 191.25,28.9795 191.517,28.9565 191.792,28.9229 192.059,28.8945 192.327,28.8545 192.594,28.8325 192.869,28.7715 193.136,28.7695 193.412,28.7471 193.679,28.6816 193.946,28.7144 194.222,28.6528 194.489,28.6221 194.756,28.5967 195.031,28.5591 195.299,28.5596 195.566,28.5054 195.841,28.48 196.108,28.4702 196.376,28.417 196.651,28.3857 196.918,28.3833 197.186,28.3223 197.453,28.3335 197.729,28.2847 197.996,28.2739 198.263,28.2578 198.538,28.1968 198.806,28.1929 199.081,28.1494 199.348,28.1372 199.615,28.105 199.891,28.0859 200.158,28.063 200.425,28.0425 200.701,27.9722 200.968,27.9849 201.235,27.9463 201.51,27.9092 201.778,27.9429 202.045,27.8628 202.312,27.8618 202.587,27.8389 202.855,27.8022 203.13,27.7949 203.397,27.752 203.665,27.7197 203.932,27.7344 204.208,27.6768 204.475,27.6567 204.75,27.6387 205.017,27.5815 205.285,27.5977 205.56,27.5352 205.827,27.5649 206.094,27.5347 206.362,27.4858 206.637,27.4927 206.904,27.4463 207.171,27.4272 207.447,27.3896 207.714,27.3989 207.989,27.3799 208.257,27.355 208.524,27.3066 208.791,27.3203 209.066,27.2783 209.334,27.2349 209.609,27.2593 209.876,27.2036 210.144,27.1948 210.419,27.1602 210.687,27.1558 210.954,27.127 211.221,27.1157 211.496,27.0747 211.764,27.0815 212.031,27.0488 212.306,27.0303 212.573,26.9956 212.841,26.9741 213.116,26.9805 213.383,26.916 213.65,26.9585 213.926,26.9131 214.193,26.894 214.468,26.876 214.736,26.8418 215.003,26.8228 215.278,26.7886 215.545,26.813 215.813,26.7734 216.088,26.7612 216.355,26.7349 216.623,26.7344 216.898,26.6992 217.166,26.6777 217.433,26.6812 217.7,26.6519 217.975,26.6475 218.243,26.5903 218.51,26.6104 218.785,26.5596 219.052,26.5591 219.328,26.5186 219.595,26.5322 219.862,26.5112 220.138,26.502 220.405,26.4678 220.672,26.4683 220.947,26.4443 221.215,26.3857 221.482,26.4263 221.757,26.3823 222.024,26.3774 222.292,26.375 222.559,26.3408 222.834,26.3398 223.102,26.2925 223.377,26.2998 223.645,26.2827 223.912,26.2676 224.179,26.2642 224.454,26.2466 224.722,26.2041 224.989,26.2188 225.264,26.1812 225.531,26.1787 225.799,26.1748 226.074,26.1221 226.341,26.1538 226.608,26.1118 226.884,26.0977 227.151,26.0669 227.426,26.0728 227.694,26.0527 227.961,26.0537 228.236,26.0444 228.503,26.0361 228.771,26.0098 229.038,25.9736 229.313,25.9897 229.581,25.9492 229.856,25.957 230.124,25.9307 230.391,25.9316 230.666,25.916 230.933,25.8989 231.201,25.8999 231.468,25.877 231.743,25.8477 232.01,25.8604 232.286,25.8525 232.553,25.814 232.82,25.8276 233.096,25.7896 233.363,25.7954 233.63,25.7827 233.905,25.7388 234.173,25.79 234.44,25.7412 234.707,25.7378 234.982,25.707 235.25,25.7114 235.525,25.6895 235.792,25.6831 236.06,25.6748 236.327,25.6938 236.603,25.6621 236.87,25.6499 237.145,25.6489 237.412,25.6162 237.68,25.6152 237.955,25.5991 238.222,25.6021 238.489,25.5811 238.765,25.5786 239.032,25.5791 239.299,25.5518 239.575,25.5327 239.842,25.5615 240.109,25.5288 240.376,25.5176 240.652,25.5254 240.919,25.4961 241.186,25.5107 241.461,25.4795 241.729,25.4658 242.004,25.4819 242.271,25.479 242.539,25.4619 242.814,25.4395 243.082,25.438 243.349,25.4277 243.624,25.4019 243.891,25.4136 244.159,25.4199 244.434,25.3711 244.701,25.4165 244.968,25.3833 245.236,25.3818 245.511,25.3755 245.778,25.3467 246.045,25.3608 246.321,25.3354 246.588,25.3389 246.855,25.3413 247.131,25.3179 247.398,25.3081 247.673,25.3384 247.94,25.3013 248.208,25.3154 248.483,25.2944 248.75,25.29 249.018,25.2964 249.293,25.252 249.561,25.2729 249.828,25.2642 250.103,25.2612 250.37,25.2627 250.638,25.2681 250.913,25.2559 251.18,25.2412 251.447,25.2124 251.715,25.2266 251.99,25.2437 252.257,25.1934 252.524,25.2422 252.8,25.2012 253.067,25.2124 253.342,25.2124 253.61,25.1899 253.877,25.1987 254.152,25.1772 254.419,25.1758 254.687,25.1978 254.962,25.1782 255.229,25.1572 255.497,25.1802 255.772,25.1431 256.04,25.165 256.315,25.1479 256.574,25.1821 256.849,25.1665 257.117,25.1323 257.384,25.1592 257.659,25.1299 257.926,25.1489 258.202,25.1284 258.469,25.144 258.736,25.1465 259.003,25.1548 259.279,25.1309 259.546,25.1406 259.813,25.1323 260.089,25.1108 260.356,25.1479 260.631,25.0957 260.898,25.1328 261.166,25.1118 261.441,25.1138 261.708,25.1216 261.976,25.105 262.251,25.1069 262.519,25.1304 262.786,25.1123 263.053,25.1074 263.328,25.1152 263.596,25.085 263.863,25.1147 264.138,25.0762 264.405,25.1294 264.681,25.123 264.948,25.0898 265.215,25.123 265.482,25.0928 265.758,25.1021 266.025,25.0859 266.292,25.1157 266.568,25.104 266.835,25.1162 267.11,25.1035 267.377,25.1323 267.645,25.1084 267.912,25.1099 268.188,25.1279 268.455,25.105 268.722,25.1235 268.998,25.0977 269.265,25.1191 269.54,25.1128 269.807,25.1196 270.075,25.1104 270.35,25.1392 270.617,25.1299 270.884,25.125 271.16,25.1348 271.427,25.1348 271.694,25.1401 271.97,25.0972 272.237,25.1646 272.504,25.1421 272.771,25.1533 273.047,25.1606 273.314,25.147 273.581,25.1592 273.856,25.1465 274.124,25.1826 274.399,25.1538 274.667,25.1826 274.934,25.1704 275.201,25.1929 275.477,25.1812 275.744,25.1885 276.019,25.1982 276.286,25.2012 276.554,25.2075 276.829,25.1846 277.096,25.2368 277.363,25.1929 277.631,25.2114 277.906,25.1982 278.173,25.2319 278.449,25.2422 278.716,25.2383 278.983,25.2427 279.25,25.2651 279.526,25.2554 279.793,25.2441 280.06,25.2837 280.335,25.2661 280.603,25.2935 280.878,25.2896 281.146,25.3042 281.413,25.3086 281.688,25.2881 281.956,25.3262 282.223,25.3218 282.498,25.3193 282.765,25.3491 283.033,25.3604 283.308,25.3379 283.575,25.3818 283.842,25.356 284.11,25.3872 284.385,25.3921 284.652,25.3813 284.919,25.4272 285.195,25.4077 285.462,25.4326 285.737,25.4106 286.005,25.4419 286.272,25.4546 286.547,25.4585 286.814,25.4702 287.082,25.5103 287.357,25.4946 287.625,25.4951 287.892,25.5352 288.167,25.5049 288.435,25.5547 288.702,25.5391 288.969,25.5664 289.244,25.5845 289.512,25.5845 289.787,25.6123 290.054,25.6133 290.321,25.6157 290.589,25.6543 290.864,25.666 291.131,25.645 291.398,25.6987 291.674,25.6748 291.941,25.7231 292.216,25.7183 292.484,25.7212 292.751,25.7744 293.018,25.7778 293.293,25.7988 293.561,25.8003 293.828,25.8071 294.104,25.8335 294.371,25.8335 294.646,25.874 294.914,25.9067 295.181,25.897 295.448,25.9297 295.723,25.9487 295.991,25.9458 296.258,25.9868 296.533,25.9858 296.8,26.0186 297.076,26.0332 297.343,26.0522 297.61,26.0845 297.886,26.0996 298.153,26.1152 298.42,26.1562 298.695,26.1709 298.963,26.1875 299.23,26.2183 299.497,26.2251 299.772,26.2593 300.04,26.2627 300.307,26.2944 300.583,26.3398 300.85,26.3706 301.125,26.394 301.393,26.4214 301.66,26.4429 301.927,26.4624 302.202,26.4663 302.47,26.5273 302.745,26.5557 303.012,26.5596 303.279,26.6357 303.555,26.6357 303.822,26.6553 304.089,26.7041 304.365,26.7251 304.632,26.7764 304.899,26.7852 305.174,26.835 305.442,26.8716 305.709,26.8979 305.976,26.9277 306.251,26.9839 306.519,26.9937 306.786,27.0737 307.062,27.0879 307.329,27.1519 307.596,27.1865 307.872,27.1997 308.139,27.2661 308.414,27.2881 308.681,27.3452 308.949,27.3896 309.224,27.4604 309.491,27.5029 309.758,27.5381 310.034,27.5659 310.301,27.6396 310.568,27.6846 310.844,27.7188 311.111,27.8252 311.378,27.8203 311.646,27.9053 311.921,27.9648 312.188,28.0103 312.463,28.0908 312.73,28.124 312.998,28.1855 313.265,28.2812 313.541,28.3218 313.808,28.3882 314.083,28.4541 314.351,28.5059 314.618,28.6084 314.893,28.6519 315.16,28.7642 315.428,28.8408 315.695,28.8979 315.97,28.9868 316.237,29.0532 316.504,29.1455 316.78,29.1992 317.047,29.3291 317.323,29.3984 317.59,29.5 317.857,29.5786 318.125,29.6968 318.4,29.771 318.667,29.8545 318.934,30.0005 319.209,30.0518 319.477,30.1841 319.752,30.2715 320.02,30.3872 320.287,30.5029 320.562,30.6108 320.83,30.7266 321.097,30.8589 321.364,30.9702 321.639,31.0728 321.906,31.2095 322.174,31.3169 322.449,31.4829 322.716,31.5557 322.984,31.752 323.259,31.8843 323.526,32.0005 323.802,32.1733 324.069,32.2773 324.336,32.439 324.611,32.5723 324.879,32.7632 325.146,32.9067 325.421,33.0498 325.688,33.21 325.956,33.4038 326.231,33.5454 326.499,33.7158 326.766,33.9023 327.033,34.042 327.309,34.2466 327.576,34.3965 327.843,34.604 328.118,34.7837 328.386,34.9697 328.661,35.1426 328.928,35.373 329.195,35.5518 329.471,35.7612 329.738,35.9614 330.005,36.168 330.281,36.3755 330.548,36.5581 330.815,36.8213 331.09,37.0098 331.358,37.2407 331.625,37.4912 331.9,37.6895 332.167,37.9292 332.435,38.1577 332.702,38.4102 332.978,38.6348 333.245,38.8838 333.512,39.1431 333.788,39.3989 334.055,39.6284 334.322,39.9116 334.597,40.1602 334.864,40.4351 335.14,40.6987 335.407,40.9536 335.674,41.2715 335.942,41.5117 336.217,41.8208 336.484,42.0874 336.751,42.3926 337.027,42.6943 337.294,42.9814 337.569,43.3037 337.837,43.6138 338.104,43.9165 338.371,44.2197 338.646,44.5591 338.914,44.8604 339.181,45.21 339.457,45.542 339.724,45.8804 339.991,46.2349 340.267,46.5703 340.534,46.9316 340.801,47.2847 341.076,47.6294 341.344,48.0322 341.619,48.3906 341.886,48.7505 342.153,49.1631 342.429,49.5161 342.696,49.9419 342.963,50.3296 343.239,50.731 343.506,51.166 343.773,51.5625 344.041,51.9956 344.316,52.4106 344.583,52.8457 344.858,53.29 345.125,53.7271 345.393,54.1909 345.66,54.6768 345.936,55.1177 346.203,55.6143 346.47,56.0889 346.746,56.5508 347.013,57.0815 347.288,57.561 347.555,58.0825 347.822,58.5957 348.098,59.1143 348.365,59.6763 348.632,60.2192 348.908,60.75 349.175,61.3496 349.442,61.8936 349.718,62.4692 349.985,63.0879 350.252,63.6602 350.52,64.2876 350.795,64.8931 351.062,65.5229 351.337,66.2031 351.604,66.834 351.872,67.5034 352.147,68.1826 352.415,68.8496 352.682,69.5762 352.957,70.2788 353.225,71.0229 353.492,71.7856 353.767,72.5171 354.034,73.3345 354.301,74.105 354.577,74.8965 354.844,75.7466 355.111,76.5801 355.378,77.4585 355.654,78.332 355.921,79.2246 356.188,80.1548 356.464,81.0918 356.731,82.0635 357.006,83.0737 357.274,84.0713 357.541,85.1201 357.816,86.2114 358.083,87.3086 358.351,88.4673 358.626,89.6201 358.894,90.834 359.161,92.0737 359.428,93.3823 359.703,94.7119 359.971,96.1357 360.238,97.5801 360.513,99.1245 360.78,100.713 361.048,103.093 361.186,269.022" fill="none" stroke-linejoin="round" stroke-linecap="butt"/>
   <polyline stroke-width="0.5" stroke="#d85218" points="55.96,279.46 56,275.377 56.0571,269.661 56.1138,263.944 56.1621,259.044 56.2109,254.145 56.2676,248.429 56.3081,244.346 56.3564,239.446 56.397,235.363 56.4458,230.463 56.4941,225.563 56.5347,221.48 56.5835,216.581 56.6318,211.681 56.6724,207.598 56.7212,202.698 56.7617,198.615 56.8101,193.715 56.8589,188.815 56.9072,183.916 56.9478,179.833 56.9966,174.933 57.0532,169.217 57.1016,164.317 57.1504,159.417 57.1987,154.518 57.2476,149.618 57.3042,143.902 57.3608,138.186 57.4175,132.469 57.4741,126.753 57.5308,121.037" fill="none" stroke-linejoin="round" stroke-linecap="butt"/>
   <polyline stroke-width="0.5" stroke="#000000" points="54.624,111.67 60.624,111.67" fill="none" stroke-linejoin="miter" stroke-linecap="square"/>
   <polyline stroke-width="0.5" stroke="#000000" points="57.624,108.67 57.624,114.67" fill="none" stroke-linejoin="miter" stroke-linecap="square"/>
   <polyline stroke-width="0.5" stroke="#000000" points="55.5024,109.548 59.7451,113.791" fill="none" stroke-linejoin="miter" stroke-linecap="square"/>
   <polyline stroke-width="0.5" stroke="#000000" points="55.5024,113.791 59.7451,109.548" fill="none" stroke-linejoin="miter" stroke-linecap="square"/>
   <text font-family="FreeSans" font-size="10" transform="translate(57.6238,117.67) rotate(-0,-0,-6)" font-weight="normal" font-style="normal" xml:space="preserve">
    <tspan x="0 " y="-4" fill="rgb(0,0,0)"/>
    <tspan x="3 " y="-4" fill="rgb(0,0,0)">σ</tspan>
    <tspan x="9 " font-size="7" y="-2" fill="rgb(0,0,0)">y</tspan>
    <tspan x="12 15 21 27 33 39 42 " y="-4" fill="rgb(0,0,0)"> =327.8</tspan>
   </text>
   <polyline stroke-width="0.5" stroke="#000000" points="261.138,25.0762 267.138,25.0762" fill="none" stroke-linejoin="miter" stroke-linecap="square"/>
   <polyline stroke-width="0.5" stroke="#000000" points="264.138,22.0762 264.138,28.0762" fill="none" stroke-linejoin="miter" stroke-linecap="square"/>
   <polyline stroke-width="0.5" stroke="#000000" points="262.017,22.9546 266.259,27.1973" fill="none" stroke-linejoin="miter" stroke-linecap="square"/>
   <polyline stroke-width="0.5" stroke="#000000" points="262.017,27.1973 266.259,22.9546" fill="none" stroke-linejoin="miter" stroke-linecap="square"/>
   <text font-family="FreeSans" font-size="10" transform="translate(264.138,33.0761) rotate(-0,-0,-8)" font-weight="normal" font-style="normal" xml:space="preserve">
    <tspan x="0 6 12 " y="-0" fill="rgb(0,0,0)">497</tspan>
   </text>
  </g>
 </g>
</svg>
